<?xml version="1.0" encoding="utf-8"?>
<!-- Generator: Adobe Illustrator 23.0.6, SVG Export Plug-In . SVG Version: 6.00 Build 0)  -->
<svg version="1.1" id="Layer_1" xmlns="http://www.w3.org/2000/svg" xmlns:xlink="http://www.w3.org/1999/xlink" x="0px" y="0px"
	 viewBox="0 0 1000 1000" style="enable-background:new 0 0 1000 1000;" xml:space="preserve">
<style type="text/css">
	.st0{fill:#106F99;stroke:#000000;stroke-width:4;stroke-linecap:round;stroke-linejoin:round;stroke-miterlimit:10;}
	.st1{fill:#0A455F;stroke:#000000;stroke-width:4;stroke-linecap:round;stroke-linejoin:round;stroke-miterlimit:10;}
	.st2{fill:#0E6489;}
	.st3{fill:#0A455F;}
	.st4{fill:#0E6489;stroke:#000000;stroke-width:4;stroke-linecap:round;stroke-linejoin:round;stroke-miterlimit:10;}
</style>
<g>
	<polygon class="st0" points="576.07,440.95 466.23,377.54 648.51,398.98 754.7,337.28 499.31,189.83 418.95,237.09 559.84,318.43 
		418.95,301.48 418.95,301.48 326.35,290.35 245.59,337.28 500.97,484.73 	"/>
	<polygon class="st1" points="648.51,398.98 466.23,377.54 576.07,440.95 	"/>
	<polygon class="st1" points="559.84,318.43 418.95,237.09 418.95,301.48 	"/>
	<polygon class="st0" points="330.09,610.73 330.37,512.08 245.08,561.65 	"/>
	<polygon class="st2" points="415.55,549.11 415.23,660.89 500.52,611.32 500.56,598.51 	"/>
	<polygon class="st0" points="500.24,709.97 500.52,611.32 415.23,660.89 	"/>
	<polygon class="st3" points="588.97,564.45 672.59,612.73 672.91,501.42 588.93,550.23 	"/>
	<polygon class="st0" points="589.24,661.17 672.59,612.73 588.97,564.45 	"/>
	<path class="st1" d="M245.59,337.28l-0.32,112.51l85.14,49.48l-0.04,12.81l-0.28,98.65l-85.01-49.08l-0.13,0.07l-0.29,101.63
		L500.05,810.8l0.92-326.06L245.59,337.28z M500.24,709.97l-85.01-49.08l0.32-111.78l85.01,49.4l-0.04,12.81L500.24,709.97z"/>
	<path class="st4" d="M648.51,398.98l0.33,0.04l-45.41,26.16l-102.45,59.54l-0.92,326.06l253.73-147.45l0.92-326.06L648.51,398.98z
		 M672.59,612.73l-83.35,48.44l-0.27-96.72l-0.04-14.22l83.98-48.8L672.59,612.73z"/>
</g>
</svg>
