<svg width="177" height="177" viewBox="0 0 177 177" fill="none" xmlns="http://www.w3.org/2000/svg">
<mask id="path-1-inside-1_358_1120" fill="white">
<path fill-rule="evenodd" clip-rule="evenodd" d="M177 88.5C177 137.377 137.377 177 88.5 177C39.6228 177 0 137.377 0 88.5C0 39.6228 39.6228 0 88.5 0C137.377 0 177 39.6228 177 88.5ZM88.5 170.168C133.604 170.168 170.168 133.604 170.168 88.5C170.168 43.3958 133.604 6.83158 88.5 6.83158C43.3958 6.83158 6.83158 43.3958 6.83158 88.5C6.83158 133.604 43.3958 170.168 88.5 170.168Z"/>
<path fill-rule="evenodd" clip-rule="evenodd" d="M162.095 88.1895C162.095 128.663 129.284 161.474 88.8105 161.474C48.3368 161.474 15.5263 128.663 15.5263 88.1895C15.5263 47.7157 48.3368 14.9053 88.8105 14.9053C129.284 14.9053 162.095 47.7157 162.095 88.1895ZM136.632 89.7421C136.632 105.349 123.98 118 108.374 118C100.781 118 93.8878 115.006 88.8105 110.133C83.7333 115.006 76.84 118 69.2474 118C53.641 118 40.9895 105.349 40.9895 89.7421C40.9895 74.1357 53.641 61.4842 69.2474 61.4842C76.84 61.4842 83.7333 64.4787 88.8105 69.3511C93.8878 64.4787 100.781 61.4842 108.374 61.4842C123.98 61.4842 136.632 74.1357 136.632 89.7421Z"/>
<path fill-rule="evenodd" clip-rule="evenodd" d="M44.4902 94.2093C44.67 95.212 44.9091 96.194 45.2039 97.1517H81.0972C80.8367 96.1903 80.6256 95.2085 80.4669 94.2093H44.4902ZM47.6514 102.644C47.0871 101.702 46.5827 100.719 46.1436 99.7018H81.921C82.3013 100.711 82.7377 101.693 83.2265 102.644H47.6514ZM49.3993 105.194C50.2184 106.245 51.1192 107.229 52.092 108.137H86.4027C86.4993 108.046 86.5953 107.955 86.6906 107.864C85.9803 107.015 85.319 106.123 84.7109 105.194H49.3993ZM61.347 113.629C59.1926 112.917 57.1671 111.921 55.3147 110.687H83.18C81.3276 111.921 79.3021 112.917 77.1477 113.629H61.347ZM44.1667 91.6593H80.1798C80.1374 91.0257 80.1158 90.3864 80.1158 89.7421C80.1158 89.3989 80.1219 89.0571 80.134 88.7169H44.1152C44.1016 89.0569 44.0947 89.3987 44.0947 89.7421C44.0947 90.3871 44.119 91.0265 44.1667 91.6593ZM80.8711 83.2245C80.6438 84.1872 80.4658 85.1689 80.3398 86.1669H44.3469C44.4893 85.1659 44.6907 84.1839 44.9474 83.2245H80.8711ZM45.7788 80.6744C46.171 79.6602 46.6269 78.6778 47.1418 77.7321H82.7876C82.3396 78.685 81.9432 79.6669 81.6021 80.6744H45.7788ZM86.1872 72.2396C85.4488 73.1744 84.7681 74.157 84.1507 75.182H48.7383C48.2743 75.8329 47.8405 76.5069 47.439 77.2017C51.7828 69.6638 59.9225 64.5895 69.2474 64.5895L69.2629 64.5895C65.6306 64.5917 62.178 65.3621 59.0588 66.7472H79.4555C79.6923 66.8525 79.9272 66.9614 80.1601 67.0737C81.6753 67.8044 83.106 68.6826 84.4336 69.6896H54.0741C53.0492 70.4659 52.0854 71.3187 51.1913 72.2396H86.1872Z"/>
<path fill-rule="evenodd" clip-rule="evenodd" d="M83.6166 94.2093C83.7963 95.212 84.0354 96.194 84.3302 97.1517H93.2909C93.5856 96.194 93.8248 95.212 94.0045 94.2093H83.6166ZM94.328 91.6593C94.3757 91.0265 94.4 90.3871 94.4 89.7421C94.4 89.3987 94.3931 89.057 94.3795 88.7169H83.2416C83.2279 89.0569 83.2211 89.3987 83.2211 89.7421C83.2211 90.3871 83.2453 91.0265 83.293 91.6593H94.328ZM93.5474 83.2245C93.804 84.1839 94.0054 85.1659 94.1478 86.1669H83.4732C83.6156 85.1659 83.817 84.1839 84.0737 83.2245H93.5474ZM92.7159 80.6744C92.3238 79.6602 91.8678 78.6778 91.3529 77.7321H86.2681C85.7532 78.6778 85.2972 79.6603 84.9051 80.6745L92.7159 80.6744ZM88.8105 73.9313C89.1396 74.338 89.4562 74.755 89.7598 75.182H87.8613C88.1649 74.755 88.4815 74.338 88.8105 73.9313ZM86.7777 102.644C86.2134 101.702 85.7091 100.719 85.2699 99.7018H92.3511C91.912 100.719 91.4076 101.702 90.8433 102.644H86.7777ZM88.5256 105.194C88.6195 105.315 88.7145 105.434 88.8105 105.553C88.9066 105.434 89.0015 105.315 89.0954 105.194H88.5256Z"/>
<path fill-rule="evenodd" clip-rule="evenodd" d="M97.5053 89.7421C97.5053 96.6385 95.0348 102.958 90.9305 107.864C95.4526 112.218 101.6 114.895 108.374 114.895C122.265 114.895 133.526 103.634 133.526 89.7421C133.526 75.8507 122.265 64.5895 108.374 64.5895C101.601 64.5895 95.4526 67.2667 90.9305 71.6206C95.0348 76.5262 97.5053 82.8457 97.5053 89.7421Z"/>
</mask>
<path fill-rule="evenodd" clip-rule="evenodd" d="M177 88.5C177 137.377 137.377 177 88.5 177C39.6228 177 0 137.377 0 88.5C0 39.6228 39.6228 0 88.5 0C137.377 0 177 39.6228 177 88.5ZM88.5 170.168C133.604 170.168 170.168 133.604 170.168 88.5C170.168 43.3958 133.604 6.83158 88.5 6.83158C43.3958 6.83158 6.83158 43.3958 6.83158 88.5C6.83158 133.604 43.3958 170.168 88.5 170.168Z" fill="black"/>
<path fill-rule="evenodd" clip-rule="evenodd" d="M162.095 88.1895C162.095 128.663 129.284 161.474 88.8105 161.474C48.3368 161.474 15.5263 128.663 15.5263 88.1895C15.5263 47.7157 48.3368 14.9053 88.8105 14.9053C129.284 14.9053 162.095 47.7157 162.095 88.1895ZM136.632 89.7421C136.632 105.349 123.98 118 108.374 118C100.781 118 93.8878 115.006 88.8105 110.133C83.7333 115.006 76.84 118 69.2474 118C53.641 118 40.9895 105.349 40.9895 89.7421C40.9895 74.1357 53.641 61.4842 69.2474 61.4842C76.84 61.4842 83.7333 64.4787 88.8105 69.3511C93.8878 64.4787 100.781 61.4842 108.374 61.4842C123.98 61.4842 136.632 74.1357 136.632 89.7421Z" fill="black"/>
<path fill-rule="evenodd" clip-rule="evenodd" d="M44.4902 94.2093C44.67 95.212 44.9091 96.194 45.2039 97.1517H81.0972C80.8367 96.1903 80.6256 95.2085 80.4669 94.2093H44.4902ZM47.6514 102.644C47.0871 101.702 46.5827 100.719 46.1436 99.7018H81.921C82.3013 100.711 82.7377 101.693 83.2265 102.644H47.6514ZM49.3993 105.194C50.2184 106.245 51.1192 107.229 52.092 108.137H86.4027C86.4993 108.046 86.5953 107.955 86.6906 107.864C85.9803 107.015 85.319 106.123 84.7109 105.194H49.3993ZM61.347 113.629C59.1926 112.917 57.1671 111.921 55.3147 110.687H83.18C81.3276 111.921 79.3021 112.917 77.1477 113.629H61.347ZM44.1667 91.6593H80.1798C80.1374 91.0257 80.1158 90.3864 80.1158 89.7421C80.1158 89.3989 80.1219 89.0571 80.134 88.7169H44.1152C44.1016 89.0569 44.0947 89.3987 44.0947 89.7421C44.0947 90.3871 44.119 91.0265 44.1667 91.6593ZM80.8711 83.2245C80.6438 84.1872 80.4658 85.1689 80.3398 86.1669H44.3469C44.4893 85.1659 44.6907 84.1839 44.9474 83.2245H80.8711ZM45.7788 80.6744C46.171 79.6602 46.6269 78.6778 47.1418 77.7321H82.7876C82.3396 78.685 81.9432 79.6669 81.6021 80.6744H45.7788ZM86.1872 72.2396C85.4488 73.1744 84.7681 74.157 84.1507 75.182H48.7383C48.2743 75.8329 47.8405 76.5069 47.439 77.2017C51.7828 69.6638 59.9225 64.5895 69.2474 64.5895L69.2629 64.5895C65.6306 64.5917 62.178 65.3621 59.0588 66.7472H79.4555C79.6923 66.8525 79.9272 66.9614 80.1601 67.0737C81.6753 67.8044 83.106 68.6826 84.4336 69.6896H54.0741C53.0492 70.4659 52.0854 71.3187 51.1913 72.2396H86.1872Z" fill="black"/>
<path fill-rule="evenodd" clip-rule="evenodd" d="M83.6166 94.2093C83.7963 95.212 84.0354 96.194 84.3302 97.1517H93.2909C93.5856 96.194 93.8248 95.212 94.0045 94.2093H83.6166ZM94.328 91.6593C94.3757 91.0265 94.4 90.3871 94.4 89.7421C94.4 89.3987 94.3931 89.057 94.3795 88.7169H83.2416C83.2279 89.0569 83.2211 89.3987 83.2211 89.7421C83.2211 90.3871 83.2453 91.0265 83.293 91.6593H94.328ZM93.5474 83.2245C93.804 84.1839 94.0054 85.1659 94.1478 86.1669H83.4732C83.6156 85.1659 83.817 84.1839 84.0737 83.2245H93.5474ZM92.7159 80.6744C92.3238 79.6602 91.8678 78.6778 91.3529 77.7321H86.2681C85.7532 78.6778 85.2972 79.6603 84.9051 80.6745L92.7159 80.6744ZM88.8105 73.9313C89.1396 74.338 89.4562 74.755 89.7598 75.182H87.8613C88.1649 74.755 88.4815 74.338 88.8105 73.9313ZM86.7777 102.644C86.2134 101.702 85.7091 100.719 85.2699 99.7018H92.3511C91.912 100.719 91.4076 101.702 90.8433 102.644H86.7777ZM88.5256 105.194C88.6195 105.315 88.7145 105.434 88.8105 105.553C88.9066 105.434 89.0015 105.315 89.0954 105.194H88.5256Z" fill="black"/>
<path fill-rule="evenodd" clip-rule="evenodd" d="M97.5053 89.7421C97.5053 96.6385 95.0348 102.958 90.9305 107.864C95.4526 112.218 101.6 114.895 108.374 114.895C122.265 114.895 133.526 103.634 133.526 89.7421C133.526 75.8507 122.265 64.5895 108.374 64.5895C101.601 64.5895 95.4526 67.2667 90.9305 71.6206C95.0348 76.5262 97.5053 82.8457 97.5053 89.7421Z" fill="black"/>
<path d="M88.8105 69.3511L89.1567 68.9903L88.8105 68.6581L88.4643 68.9903L88.8105 69.3511ZM88.8105 110.133L88.4643 110.494L88.8105 110.826L89.1567 110.494L88.8105 110.133ZM86.6906 107.864L86.3438 107.503L86.0079 107.827L86.3071 108.184L86.6906 107.864ZM88.8105 105.553L89.1992 105.238L88.8105 104.758L88.4218 105.238L88.8105 105.553ZM88.8105 73.9313L88.4218 74.2459L88.8105 74.7262L89.1992 74.2459L88.8105 73.9313ZM90.9305 71.6206L91.2773 71.9807L91.6132 71.6573L91.314 71.2997L90.9305 71.6206ZM90.9305 107.864L91.314 108.184L91.6132 107.827L91.2773 107.503L90.9305 107.864ZM44.4572 94.2093L43.9648 94.2963L44.0377 94.7093H44.4572V94.2093ZM44.1399 91.6593V91.1593H43.602L43.6412 91.6957L44.1399 91.6593ZM94.0996 94.2093V94.7093H94.519L94.592 94.2963L94.0996 94.2093ZM94.4168 91.6593L94.9155 91.6957L94.9547 91.1593H94.4168V91.6593ZM45.1623 97.1517V96.6517H44.4873L44.684 97.2974L45.1623 97.1517ZM46.0931 99.7018L45.6334 99.8984L45.7632 100.202H46.0931V99.7018ZM93.3944 97.1517L93.8727 97.2974L94.0694 96.6517H93.3944V97.1517ZM92.4636 99.7018V100.202H92.7936L92.9233 99.8984L92.4636 99.7018ZM49.3207 105.194L48.9251 105.5L49.0752 105.694H49.3207V105.194ZM47.5879 102.644V102.144H46.7096L47.158 102.899L47.5879 102.644ZM89.236 105.194V105.694H89.4816L89.6317 105.5L89.236 105.194ZM90.9688 102.644L91.3988 102.899L91.8471 102.144H90.9688V102.644ZM51.9874 108.137V107.637H50.7285L51.6444 108.5L51.9874 108.137ZM55.1696 110.687L54.8893 111.101L55.0163 111.187H55.1696V110.687ZM86.5693 108.137L86.9124 108.5L87.8282 107.637H86.5693V108.137ZM83.3872 110.687V111.187H83.5405L83.6674 111.101L83.3872 110.687ZM61.0514 113.629V113.129L60.8883 114.102L61.0514 113.629ZM77.5053 113.629L77.6684 114.102L77.5053 113.129V113.629ZM44.3314 86.1669V85.6669H43.8983L43.8365 86.0955L44.3314 86.1669ZM44.0947 88.7169L43.5952 88.6959L43.5732 89.2169H44.0947V88.7169ZM94.2254 86.1669L94.7203 86.0955L94.6585 85.6669H94.2254V86.1669ZM94.462 88.7169V89.2169H94.9835L94.9616 88.6959L94.462 88.7169ZM44.9372 83.2245L44.4544 83.0945L44.2847 83.7245H44.9372V83.2245ZM45.773 80.6744V80.1744H45.4308L45.3069 80.4934L45.773 80.6744ZM93.6195 83.2245V83.7245H94.272L94.1023 83.0945L93.6195 83.2245ZM92.7837 80.6744L93.2498 80.4934L93.1259 80.1744H92.7837V80.6744ZM47.141 77.7321L46.7021 77.4924L46.2982 78.2321H47.141V77.7321ZM89.8185 75.182L90.2256 74.8918L90.0761 74.682H89.8185V75.182ZM91.4158 77.7321V78.2321H92.2585L91.8546 77.4924L91.4158 77.7321ZM87.3654 72.2396V72.7396H88.5477L87.7241 71.8914L87.3654 72.2396ZM84.4826 69.6896L84.7845 69.291L84.6506 69.1896H84.4826V69.6896ZM79.4979 66.7472V67.2472L79.7008 66.2902L79.4979 66.7472ZM84.4336 69.6896V69.1896H82.947L84.1314 70.088L84.4336 69.6896ZM86.1872 72.2396L85.7949 71.9297L85.1551 72.7396H86.1872V72.2396ZM79.4555 66.7472L79.2524 67.2041L79.3493 67.2472H79.4555V66.7472ZM47.1418 77.7321V78.2321H47.4389L47.581 77.9711L47.1418 77.7321ZM82.7876 77.7321L82.3352 77.5193L82 78.2321H82.7876V77.7321ZM47.439 77.2017L47.8722 77.4514L47.006 76.9516L47.439 77.2017ZM80.8711 83.2245L80.3845 83.1096L80.2393 83.7245H80.8711V83.2245ZM44.9474 83.2245V83.7245H45.3312L45.4304 83.3537L44.9474 83.2245ZM45.7788 80.6744L46.2452 80.8547L46.5082 80.1744H45.7788V80.6744ZM81.6021 80.6744L81.6021 80.1744L81.2435 80.1744L81.1285 80.5141L81.6021 80.6744ZM44.1152 88.7169V89.2169H44.5956L44.6148 88.7369L44.1152 88.7169ZM80.134 88.7169L79.6344 88.6991L79.6159 89.2169H80.134V88.7169ZM80.3398 86.1669V85.6669H79.899L79.8437 86.1042L80.3398 86.1669ZM44.3469 86.1669L44.8419 86.2373L44.9231 85.6669H44.3469V86.1669ZM44.4902 94.2093V94.7093H45.0878L44.9824 94.1211L44.4902 94.2093ZM80.4669 94.2093L79.9731 94.2878L80.0401 94.7093H80.4669V94.2093ZM44.1667 91.6593L44.6653 91.6217L44.6304 91.1593H44.1667V91.6593ZM80.1798 91.6593V91.1593H79.6452L79.6809 91.6927L80.1798 91.6593ZM45.2039 97.1517L45.6817 97.0046L45.5731 96.6517H45.2039V97.1517ZM81.0972 97.1517V96.6517H80.4437L80.6146 97.2825L81.0972 97.1517ZM46.1436 99.7018V100.202H46.904L46.6027 99.5036L46.1436 99.7018ZM81.921 99.7018L81.4531 99.878L81.575 100.202H81.921V99.7018ZM47.6514 102.644L48.0804 102.387L47.9348 102.144H47.6514V102.644ZM83.2265 102.644V102.144H82.4072L82.7818 102.873L83.2265 102.644ZM49.3993 105.194V105.694H50.4231L49.7936 104.887L49.3993 105.194ZM84.7109 105.194L84.2925 105.468L84.4406 105.694H84.7109V105.194ZM52.092 108.137L52.4332 107.771L52.2891 107.637H52.092V108.137ZM86.4027 108.137V107.637H86.2056L86.0616 107.771L86.4027 108.137ZM55.3147 110.687V111.187H56.9664L55.592 110.271L55.3147 110.687ZM83.18 110.687L82.9027 110.271L81.5283 111.187H83.18V110.687ZM61.347 113.629L61.504 113.154L61.4275 113.129H61.347V113.629ZM77.1477 113.629V113.129H77.0672L76.9908 113.154L77.1477 113.629ZM84.3302 97.1517L84.8081 97.0046L84.6994 96.6517H84.3302V97.1517ZM93.2909 97.1517V96.6517H92.9216L92.813 97.0046L93.2909 97.1517ZM85.2699 99.7018V100.202H86.0304L85.729 99.5036L85.2699 99.7018ZM92.3511 99.7018L91.8921 99.5036L91.5907 100.202H92.3511V99.7018ZM83.6166 94.2093V94.7093H84.2141L84.1087 94.1211L83.6166 94.2093ZM94.0045 94.2093L93.5123 94.1211L93.4069 94.7093H94.0045V94.2093ZM83.293 91.6593L83.7916 91.6217L83.7568 91.1593H83.293V91.6593ZM94.328 91.6593V91.1593H93.8643L93.8294 91.6217L94.328 91.6593ZM83.2454 88.6249L82.7459 88.6031L82.7459 88.6031L83.2454 88.6249ZM83.2416 88.7169V89.2169H83.7219L83.7412 88.737L83.2416 88.7169ZM94.3795 88.7169L93.8799 88.7369L93.8991 89.2169H94.3795V88.7169ZM94.1478 86.1669V85.6669H93.5717L93.6528 86.2373L94.1478 86.1669ZM83.4732 86.1669L83.9682 86.2373L84.0494 85.6669H83.4732V86.1669ZM93.5474 83.2245L93.0643 83.3537L93.1635 83.7245H93.5474V83.2245ZM84.077 83.2121L83.594 83.0827L83.5939 83.083L84.077 83.2121ZM84.0737 83.2245V83.7245H84.4576L84.5567 83.3536L84.0737 83.2245ZM92.7159 80.6744V80.1744H91.9865L92.2496 80.8547L92.7159 80.6744ZM84.9051 80.6745L85.3715 80.8548L85.6345 80.1745L84.9051 80.1745L84.9051 80.6745ZM91.3529 77.7321L90.9138 77.9711L91.0558 78.2321H91.3529V77.7321ZM86.3617 77.5618L86.799 77.8043L86.799 77.8042L86.3617 77.5618ZM86.2681 77.7321V78.2321H86.5652L86.7073 77.9712L86.2681 77.7321ZM89.8357 75.2894L90.2447 75.0017L90.2447 75.0017L89.8357 75.2894ZM87.8613 75.182L88.2687 75.4718L88.8303 74.682H87.8613V75.182ZM89.7598 75.182V74.682H88.7907L89.3523 75.4718L89.7598 75.182ZM86.7777 102.644L87.2067 102.387L87.0611 102.144H86.7777V102.644ZM90.8433 102.644V102.144H90.5599L90.4143 102.387L90.8433 102.644ZM88.5256 105.194V105.694H89.5494L88.9199 104.887L88.5256 105.194ZM89.0954 105.194L88.7011 104.887L88.0716 105.694H89.0954V105.194ZM89.1567 109.772C88.4227 109.068 87.7273 108.324 87.0741 107.543L86.3071 108.184C86.9837 108.993 87.704 109.764 88.4643 110.494L89.1567 109.772ZM87.0741 71.9414C87.7273 71.1606 88.4227 70.4163 89.1567 69.7118L88.4643 68.9903C87.704 69.7199 86.9837 70.4909 86.3071 71.2997L87.0741 71.9414ZM86.3438 71.9807C87.0822 72.6917 87.7764 73.4483 88.4218 74.2459L89.1992 73.6168C88.5277 72.787 87.8056 72 87.0374 71.2604L86.3438 71.9807ZM88.4218 105.238C87.7764 106.036 87.0822 106.793 86.3438 107.503L87.0374 108.224C87.8056 107.484 88.5277 106.697 89.1992 105.867L88.4218 105.238ZM89.1992 74.2459C89.8446 73.4483 90.5388 72.6917 91.2773 71.9807L90.5837 71.2604C89.8155 72 89.0933 72.787 88.4218 73.6168L89.1992 74.2459ZM91.314 71.2997C90.6373 70.4909 89.917 69.7199 89.1567 68.9903L88.4643 69.7118C89.1983 70.4162 89.8937 71.1606 90.547 71.9414L91.314 71.2997ZM91.2773 107.503C90.5388 106.793 89.8446 106.036 89.1992 105.238L88.4218 105.867C89.0933 106.697 89.8155 107.484 90.5837 108.224L91.2773 107.503ZM90.547 107.543C89.8937 108.324 89.1983 109.068 88.4643 109.772L89.1567 110.494C89.917 109.764 90.6373 108.993 91.314 108.184L90.547 107.543ZM44.9495 94.1224C44.8048 93.3025 44.7004 92.4686 44.6386 91.6228L43.6412 91.6957C43.7055 92.5755 43.8141 93.4431 43.9648 94.2963L44.9495 94.1224ZM93.9182 91.6228C93.8564 92.4686 93.752 93.3025 93.6072 94.1224L94.592 94.2963C94.7426 93.4431 94.8512 92.5755 94.9155 91.6957L93.9182 91.6228ZM44.684 97.2974C44.9546 98.1858 45.2721 99.0537 45.6334 99.8984L46.5528 99.5051C46.2056 98.6935 45.9006 97.8595 45.6406 97.006L44.684 97.2974ZM92.9233 99.8984C93.2847 99.0537 93.6021 98.1858 93.8727 97.2974L92.9161 97.006C92.6561 97.8595 92.3511 98.6935 92.0039 99.5051L92.9233 99.8984ZM49.7164 104.888C49.1012 104.092 48.5337 103.258 48.0179 102.389L47.158 102.899C47.6946 103.803 48.2852 104.672 48.9251 105.5L49.7164 104.888ZM90.5389 102.389C90.0231 103.258 89.4555 104.092 88.8404 104.888L89.6317 105.5C90.2716 104.672 90.8621 103.803 91.3988 102.899L90.5389 102.389ZM51.6444 108.5C52.6525 109.451 53.7376 110.321 54.8893 111.101L55.4498 110.273C54.3428 109.523 53.2997 108.687 52.3305 107.773L51.6444 108.5ZM83.6674 111.101C84.8191 110.321 85.9042 109.451 86.9124 108.5L86.2263 107.773C85.2571 108.687 84.214 109.523 83.107 110.273L83.6674 111.101ZM60.8883 114.102C63.5184 115.009 66.3414 115.502 69.2784 115.502V114.502C66.4539 114.502 63.7411 114.028 61.2145 113.156L60.8883 114.102ZM69.2784 115.502C72.2154 115.502 75.0383 115.009 77.6684 114.102L77.3422 113.156C74.8156 114.028 72.1028 114.502 69.2784 114.502V115.502ZM43.8365 86.0955C43.7133 86.9496 43.6322 87.8171 43.5952 88.6959L44.5943 88.7379C44.6299 87.8929 44.7079 87.059 44.8262 86.2382L43.8365 86.0955ZM94.9616 88.6959C94.9246 87.8171 94.8434 86.9495 94.7203 86.0955L93.7305 86.2382C93.8488 87.059 93.9269 87.8929 93.9624 88.7379L94.9616 88.6959ZM45.42 83.3545C45.6495 82.5024 45.9234 81.6685 46.2391 80.8554L45.3069 80.4934C44.9783 81.3396 44.6932 82.2076 44.4544 83.0945L45.42 83.3545ZM92.3176 80.8554C92.6333 81.6685 92.9073 82.5024 93.1367 83.3545L94.1023 83.0945C93.8635 82.2076 93.5784 81.3396 93.2498 80.4934L92.3176 80.8554ZM91.8546 77.4924C91.3626 76.5914 90.8182 75.7232 90.2256 74.8918L89.4113 75.4722C89.9809 76.2714 90.5041 77.1059 90.977 77.9717L91.8546 77.4924ZM84.1807 70.0882C85.1855 70.8491 86.1302 71.6852 87.0066 72.5879L87.7241 71.8914C86.8125 70.9523 85.8297 70.0826 84.7845 69.291L84.1807 70.0882ZM69.2784 65.0895C72.8451 65.0895 76.234 65.845 79.295 67.2042L79.7008 66.2902C76.5146 64.8754 72.9876 64.0895 69.2784 64.0895V65.0895ZM87.3654 71.7396H86.1872V72.7396H87.3654V71.7396ZM84.4336 70.1896H84.4826V69.1896H84.4336V70.1896ZM86.5796 72.5496C86.7416 72.3445 86.9064 72.1417 87.0741 71.9414L86.3071 71.2997C86.1335 71.5072 85.9627 71.7173 85.7949 71.9297L86.5796 72.5496ZM84.1314 70.088C84.9059 70.6754 85.6447 71.3076 86.3438 71.9807L87.0374 71.2604C86.3101 70.5601 85.5415 69.9024 84.7357 69.2912L84.1314 70.088ZM69.2629 64.0895C69.2604 64.0895 69.2579 64.0895 69.2553 64.0895C69.2528 64.0895 69.2501 64.0895 69.2474 64.0895V65.0895C69.2498 65.0895 69.2523 65.0895 69.2549 65.0895C69.2574 65.0895 69.2601 65.0895 69.2629 65.0895V64.0895ZM69.2632 65.0895C69.2682 65.0895 69.2733 65.0895 69.2784 65.0895V64.0895C69.2731 64.0895 69.2678 64.0895 69.2626 64.0895L69.2632 65.0895ZM79.4979 66.2472H79.4555V67.2472H79.4979V66.2472ZM69.2626 65.0895C72.8199 65.0916 76.1998 65.8469 79.2524 67.2041L79.6586 66.2903C76.4808 64.8775 72.9629 64.0917 69.2632 64.0895L69.2626 65.0895ZM83.2401 77.9448C83.6445 77.0849 84.0917 76.249 84.579 75.44L83.7224 74.924C83.2175 75.7622 82.7542 76.6282 82.3352 77.5193L83.2401 77.9448ZM47.141 78.2321H47.1418V77.2321H47.141V78.2321ZM47.006 76.9516C46.9026 77.1305 46.8013 77.3108 46.7021 77.4924L47.5798 77.9717C47.6751 77.7972 47.7725 77.6239 47.8719 77.4519L47.006 76.9516ZM47.581 77.9711C47.676 77.7966 47.7731 77.6233 47.8722 77.4514L47.0057 76.9521C46.9026 77.131 46.8016 77.3113 46.7027 77.493L47.581 77.9711ZM45.773 81.1744H45.7788V80.1744H45.773V81.1744ZM81.1285 80.5141C80.8413 81.3622 80.5926 82.2281 80.3845 83.1096L81.3577 83.3394C81.5586 82.4887 81.7985 81.6532 82.0756 80.8348L81.1285 80.5141ZM45.4304 83.3537C45.6584 82.5016 45.9308 81.6678 46.2452 80.8547L45.3125 80.4941C44.9853 81.3404 44.7017 82.2084 44.4644 83.0953L45.4304 83.3537ZM44.9474 82.7245H44.9372V83.7245H44.9474V82.7245ZM44.3469 85.6669H44.3314V86.6669H44.3469V85.6669ZM80.6337 88.7347C80.6639 87.8894 80.7318 87.0537 80.8359 86.2295L79.8437 86.1042C79.7359 86.9582 79.6656 87.8237 79.6344 88.6991L80.6337 88.7347ZM43.8519 86.0964C43.7303 86.9505 43.6509 87.8181 43.6156 88.6969L44.6148 88.7369C44.6487 87.892 44.7251 87.0581 44.8419 86.2373L43.8519 86.0964ZM44.0947 89.2169H44.1152V88.2169H44.0947V89.2169ZM44.1399 92.1593H44.1667V91.1593H44.1399V92.1593ZM80.9607 94.1309C80.8299 93.3075 80.7354 92.4719 80.6787 91.6259L79.6809 91.6927C79.7396 92.569 79.8376 93.4346 79.9731 94.2878L80.9607 94.1309ZM44.4902 93.7093H44.4572V94.7093H44.4902V93.7093ZM44.9824 94.1211C44.8355 93.3014 44.729 92.4676 44.6653 91.6217L43.6681 91.6969C43.7344 92.5768 43.8452 93.4444 43.9981 94.2975L44.9824 94.1211ZM46.0931 100.202H46.1436V99.2018H46.0931V100.202ZM82.3889 99.5255C82.081 98.7083 81.8106 97.8727 81.5798 97.0209L80.6146 97.2825C80.8538 98.1652 81.134 99.0311 81.4531 99.878L82.3889 99.5255ZM44.726 97.2988C44.9995 98.1874 45.32 99.0554 45.6845 99.8999L46.6027 99.5036C46.2524 98.6922 45.9445 97.8583 45.6817 97.0046L44.726 97.2988ZM45.2039 96.6517H45.1623V97.6517H45.2039V96.6517ZM85.1293 104.92C84.6014 104.114 84.1144 103.278 83.6711 102.416L82.7818 102.873C83.241 103.766 83.7456 104.632 84.2925 105.468L85.1293 104.92ZM49.3993 104.694H49.3207V105.694H49.3993V104.694ZM47.2224 102.901C47.764 103.806 48.3596 104.674 49.005 105.502L49.7936 104.887C49.1733 104.091 48.6008 103.257 48.0804 102.387L47.2224 102.901ZM47.5879 103.144H47.6514V102.144H47.5879V103.144ZM55.1696 111.187H55.3147V110.187H55.1696V111.187ZM83.18 111.187H83.3872V110.187H83.18V111.187ZM86.0616 107.771C85.08 108.687 84.0236 109.523 82.9027 110.271L83.4573 111.103C84.6237 110.325 85.7227 109.455 86.7438 108.502L86.0616 107.771ZM51.7509 108.502C52.772 109.455 53.8711 110.325 55.0374 111.103L55.592 110.271C54.4711 109.523 53.4147 108.687 52.4332 107.771L51.7509 108.502ZM86.5693 107.637H86.4027V108.637H86.5693V107.637ZM52.092 107.637H51.9874V108.637H52.092V107.637ZM69.2474 115.395C72.0612 115.395 74.7701 114.942 77.3046 114.104L76.9908 113.154C74.5563 113.959 71.9532 114.395 69.2474 114.395V115.395ZM61.1901 114.104C63.7246 114.942 66.4336 115.395 69.2474 115.395V114.395C66.5415 114.395 63.9385 113.959 61.504 113.154L61.1901 114.104ZM77.5053 113.129H77.1477V114.129H77.5053V113.129ZM61.347 113.129H61.0514V114.129H61.347V113.129ZM81.921 100.202H85.2699V99.2018H81.921V100.202ZM92.3511 100.202H92.4636V99.2018H92.3511V100.202ZM92.813 97.0046C92.5502 97.8583 92.2423 98.6922 91.8921 99.5036L92.8102 99.8999C93.1747 99.0554 93.4952 98.1874 93.7687 97.2988L92.813 97.0046ZM93.3944 96.6517H93.2909V97.6517H93.3944V96.6517ZM84.3302 96.6517H81.0972V97.6517H84.3302V96.6517ZM85.729 99.5036C85.3787 98.6922 85.0708 97.8583 84.8081 97.0046L83.8523 97.2988C84.1258 98.1874 84.4463 99.0554 84.8109 99.8999L85.729 99.5036ZM80.1798 92.1593H83.293V91.1593H80.1798V92.1593ZM94.328 92.1593H94.4168V91.1593H94.328V92.1593ZM84.1087 94.1211C83.9618 93.3014 83.8554 92.4676 83.7916 91.6217L82.7944 91.6969C82.8608 92.5768 82.9715 93.4444 83.1244 94.2975L84.1087 94.1211ZM93.8294 91.6217C93.7657 92.4676 93.6593 93.3014 93.5123 94.1211L94.4967 94.2975C94.6496 93.4444 94.7603 92.5768 94.8266 91.6969L93.8294 91.6217ZM94.0996 93.7093H94.0045V94.7093H94.0996V93.7093ZM83.6166 93.7093H80.4669V94.7093H83.6166V93.7093ZM82.7459 88.6031C82.7445 88.6344 82.7432 88.6656 82.742 88.6968L83.7412 88.737C83.7424 88.7068 83.7436 88.6767 83.7449 88.6467L82.7459 88.6031ZM93.6528 86.2373C93.7696 87.0581 93.846 87.892 93.8799 88.7369L94.8791 88.6969C94.8439 87.8181 94.7644 86.9505 94.6429 86.0964L93.6528 86.2373ZM94.2254 85.6669H94.1478V86.6669H94.2254V85.6669ZM83.4732 85.6669H80.3398V86.6669H83.4732V85.6669ZM80.134 89.2169H83.2416V88.2169H80.134V89.2169ZM94.3795 89.2169H94.462V88.2169H94.3795V89.2169ZM83.7449 88.6467C83.7805 87.8326 83.8556 87.0288 83.9682 86.2373L82.9782 86.0964C82.861 86.9201 82.7829 87.7563 82.7459 88.6031L83.7449 88.6467ZM83.5939 83.083C83.5939 83.083 83.5939 83.0831 83.5939 83.0831C83.5939 83.0831 83.5939 83.0831 83.5939 83.0831C83.5939 83.0831 83.5939 83.0831 83.5939 83.0831C83.5939 83.0831 83.5939 83.0831 83.5939 83.0831C83.5939 83.0831 83.5939 83.0831 83.5939 83.0832C83.5939 83.0832 83.5939 83.0832 83.5939 83.0832C83.5939 83.0832 83.5939 83.0832 83.5939 83.0832C83.5939 83.0832 83.5939 83.0832 83.5939 83.0832C83.5939 83.0832 83.5939 83.0832 83.5939 83.0833C83.5939 83.0833 83.5939 83.0833 83.5939 83.0833C83.5939 83.0833 83.5939 83.0833 83.5939 83.0833C83.5939 83.0833 83.5939 83.0833 83.5939 83.0833C83.5939 83.0833 83.5939 83.0833 83.5939 83.0833C83.5939 83.0834 83.5939 83.0834 83.5939 83.0834C83.5939 83.0834 83.5939 83.0834 83.5938 83.0834C83.5938 83.0834 83.5938 83.0834 83.5938 83.0834C83.5938 83.0834 83.5938 83.0834 83.5938 83.0834C83.5938 83.0835 83.5938 83.0835 83.5938 83.0835C83.5938 83.0835 83.5938 83.0835 83.5938 83.0835C83.5938 83.0835 83.5938 83.0835 83.5938 83.0835C83.5938 83.0835 83.5938 83.0835 83.5938 83.0835C83.5938 83.0835 83.5938 83.0836 83.5938 83.0836C83.5938 83.0836 83.5938 83.0836 83.5938 83.0836C83.5938 83.0836 83.5938 83.0836 83.5938 83.0836C83.5938 83.0836 83.5938 83.0836 83.5938 83.0836C83.5938 83.0836 83.5938 83.0837 83.5938 83.0837C83.5938 83.0837 83.5938 83.0837 83.5938 83.0837C83.5938 83.0837 83.5938 83.0837 83.5938 83.0837C83.5938 83.0837 83.5938 83.0837 83.5938 83.0837C83.5938 83.0837 83.5938 83.0838 83.5938 83.0838C83.5938 83.0838 83.5937 83.0838 83.5937 83.0838C83.5937 83.0838 83.5937 83.0838 83.5937 83.0838C83.5937 83.0838 83.5937 83.0838 83.5937 83.0838C83.5937 83.0838 83.5937 83.0838 83.5937 83.0839C83.5937 83.0839 83.5937 83.0839 83.5937 83.0839C83.5937 83.0839 83.5937 83.0839 83.5937 83.0839C83.5937 83.0839 83.5937 83.0839 83.5937 83.0839C83.5937 83.0839 83.5937 83.0839 83.5937 83.084C83.5937 83.084 83.5937 83.084 83.5937 83.084C83.5937 83.084 83.5937 83.084 83.5937 83.084C83.5937 83.084 83.5937 83.084 83.5937 83.084C83.5937 83.084 83.5937 83.084 83.5937 83.084C83.5937 83.0841 83.5937 83.0841 83.5937 83.0841C83.5937 83.0841 83.5937 83.0841 83.5937 83.0841C83.5937 83.0841 83.5937 83.0841 83.5937 83.0841C83.5937 83.0841 83.5937 83.0841 83.5936 83.0841C83.5936 83.0842 83.5936 83.0842 83.5936 83.0842C83.5936 83.0842 83.5936 83.0842 83.5936 83.0842C83.5936 83.0842 83.5936 83.0842 83.5936 83.0842C83.5936 83.0842 83.5936 83.0842 83.5936 83.0842C83.5936 83.0842 83.5936 83.0843 83.5936 83.0843C83.5936 83.0843 83.5936 83.0843 83.5936 83.0843C83.5936 83.0843 83.5936 83.0843 83.5936 83.0843C83.5936 83.0843 83.5936 83.0843 83.5936 83.0843C83.5936 83.0843 83.5936 83.0844 83.5936 83.0844C83.5936 83.0844 83.5936 83.0844 83.5936 83.0844C83.5936 83.0844 83.5936 83.0844 83.5936 83.0844C83.5936 83.0844 83.5936 83.0844 83.5936 83.0844C83.5936 83.0844 83.5936 83.0844 83.5936 83.0845C83.5936 83.0845 83.5936 83.0845 83.5936 83.0845C83.5936 83.0845 83.5936 83.0845 83.5936 83.0845C83.5936 83.0845 83.5935 83.0845 83.5935 83.0845C83.5935 83.0845 83.5935 83.0845 83.5935 83.0846C83.5935 83.0846 83.5935 83.0846 83.5935 83.0846C83.5935 83.0846 83.5935 83.0846 83.5935 83.0846C83.5935 83.0846 83.5935 83.0846 83.5935 83.0846C83.5935 83.0846 83.5935 83.0846 83.5935 83.0846C83.5935 83.0847 83.5935 83.0847 83.5935 83.0847C83.5935 83.0847 83.5935 83.0847 83.5935 83.0847C83.5935 83.0847 83.5935 83.0847 83.5935 83.0847C83.5935 83.0847 83.5935 83.0847 83.5935 83.0847C83.5935 83.0848 83.5935 83.0848 83.5935 83.0848C83.5935 83.0848 83.5935 83.0848 83.5935 83.0848C83.5935 83.0848 83.5935 83.0848 83.5935 83.0848C83.5935 83.0848 83.5935 83.0848 83.5935 83.0848C83.5935 83.0849 83.5935 83.0849 83.5935 83.0849C83.5935 83.0849 83.5935 83.0849 83.5934 83.0849C83.5934 83.0849 83.5934 83.0849 83.5934 83.0849C83.5934 83.0849 83.5934 83.0849 83.5934 83.0849C83.5934 83.0849 83.5934 83.085 83.5934 83.085C83.5934 83.085 83.5934 83.085 83.5934 83.085C83.5934 83.085 83.5934 83.085 83.5934 83.085C83.5934 83.085 83.5934 83.085 83.5934 83.085C83.5934 83.085 83.5934 83.0851 83.5934 83.0851C83.5934 83.0851 83.5934 83.0851 83.5934 83.0851C83.5934 83.0851 83.5934 83.0851 83.5934 83.0851C83.5934 83.0851 83.5934 83.0851 83.5934 83.0851C83.5934 83.0851 83.5934 83.0851 83.5934 83.0852C83.5934 83.0852 83.5934 83.0852 83.5934 83.0852C83.5934 83.0852 83.5934 83.0852 83.5934 83.0852C83.5934 83.0852 83.5934 83.0852 83.5934 83.0852C83.5934 83.0852 83.5934 83.0852 83.5934 83.0853C83.5934 83.0853 83.5933 83.0853 83.5933 83.0853C83.5933 83.0853 83.5933 83.0853 83.5933 83.0853C83.5933 83.0853 83.5933 83.0853 83.5933 83.0853C83.5933 83.0853 83.5933 83.0853 83.5933 83.0853C83.5933 83.0854 83.5933 83.0854 83.5933 83.0854C83.5933 83.0854 83.5933 83.0854 83.5933 83.0854C83.5933 83.0854 83.5933 83.0854 83.5933 83.0854C83.5933 83.0854 83.5933 83.0854 83.5933 83.0854C83.5933 83.0855 83.5933 83.0855 83.5933 83.0855C83.5933 83.0855 83.5933 83.0855 83.5933 83.0855C83.5933 83.0855 83.5933 83.0855 83.5933 83.0855C83.5933 83.0855 83.5933 83.0855 83.5933 83.0855C83.5933 83.0855 83.5933 83.0856 83.5933 83.0856C83.5933 83.0856 83.5933 83.0856 83.5933 83.0856C83.5933 83.0856 83.5933 83.0856 83.5933 83.0856C83.5933 83.0856 83.5933 83.0856 83.5932 83.0856C83.5932 83.0856 83.5932 83.0857 83.5932 83.0857C83.5932 83.0857 83.5932 83.0857 83.5932 83.0857C83.5932 83.0857 83.5932 83.0857 83.5932 83.0857C83.5932 83.0857 83.5932 83.0857 83.5932 83.0857C83.5932 83.0857 83.5932 83.0858 83.5932 83.0858C83.5932 83.0858 83.5932 83.0858 83.5932 83.0858C83.5932 83.0858 83.5932 83.0858 83.5932 83.0858C83.5932 83.0858 83.5932 83.0858 83.5932 83.0858C83.5932 83.0858 83.5932 83.0858 83.5932 83.0859C83.5932 83.0859 83.5932 83.0859 83.5932 83.0859C83.5932 83.0859 83.5932 83.0859 83.5932 83.0859C83.5932 83.0859 83.5932 83.0859 83.5932 83.0859C83.5932 83.0859 83.5932 83.0859 83.5932 83.086C83.5932 83.086 83.5932 83.086 83.5932 83.086C83.5932 83.086 83.5932 83.086 83.5932 83.086C83.5932 83.086 83.5931 83.086 83.5931 83.086C83.5931 83.086 83.5931 83.086 83.5931 83.086C83.5931 83.0861 83.5931 83.0861 83.5931 83.0861C83.5931 83.0861 83.5931 83.0861 83.5931 83.0861C83.5931 83.0861 83.5931 83.0861 83.5931 83.0861C83.5931 83.0861 83.5931 83.0861 83.5931 83.0861C83.5931 83.0862 83.5931 83.0862 83.5931 83.0862C83.5931 83.0862 83.5931 83.0862 83.5931 83.0862C83.5931 83.0862 83.5931 83.0862 83.5931 83.0862C83.5931 83.0862 83.5931 83.0862 83.5931 83.0862C83.5931 83.0862 83.5931 83.0863 83.5931 83.0863C83.5931 83.0863 83.5931 83.0863 83.5931 83.0863C83.5931 83.0863 83.5931 83.0863 83.5931 83.0863C83.5931 83.0863 83.5931 83.0863 83.5931 83.0863C83.5931 83.0863 83.5931 83.0864 83.5931 83.0864C83.5931 83.0864 83.5931 83.0864 83.5931 83.0864C83.593 83.0864 83.593 83.0864 83.593 83.0864C83.593 83.0864 83.593 83.0864 83.593 83.0864C83.593 83.0864 83.593 83.0864 83.593 83.0865C83.593 83.0865 83.593 83.0865 83.593 83.0865C83.593 83.0865 83.593 83.0865 83.593 83.0865C83.593 83.0865 83.593 83.0865 83.593 83.0865C83.593 83.0865 83.593 83.0865 83.593 83.0866C83.593 83.0866 83.593 83.0866 83.593 83.0866C83.593 83.0866 83.593 83.0866 83.593 83.0866C83.593 83.0866 83.593 83.0866 83.593 83.0866C83.593 83.0866 83.593 83.0866 83.593 83.0866C83.593 83.0867 83.593 83.0867 83.593 83.0867C83.593 83.0867 83.593 83.0867 83.593 83.0867C83.593 83.0867 83.593 83.0867 83.593 83.0867C83.593 83.0867 83.593 83.0867 83.593 83.0867C83.593 83.0868 83.5929 83.0868 83.5929 83.0868C83.5929 83.0868 83.5929 83.0868 83.5929 83.0868C83.5929 83.0868 83.5929 83.0868 83.5929 83.0868C83.5929 83.0868 83.5929 83.0868 83.5929 83.0868C83.5929 83.0869 83.5929 83.0869 83.5929 83.0869C83.5929 83.0869 83.5929 83.0869 83.5929 83.0869C83.5929 83.0869 83.5929 83.0869 83.5929 83.0869C83.5929 83.0869 83.5929 83.0869 83.5929 83.0869C83.5929 83.0869 83.5929 83.087 83.5929 83.087C83.5929 83.087 83.5929 83.087 83.5929 83.087C83.5929 83.087 83.5929 83.087 83.5929 83.087C83.5929 83.087 83.5929 83.087 83.5929 83.087C83.5929 83.087 83.5929 83.0871 83.5929 83.0871C83.5929 83.0871 83.5929 83.0871 83.5929 83.0871C83.5929 83.0871 83.5929 83.0871 83.5929 83.0871C83.5929 83.0871 83.5929 83.0871 83.5929 83.0871C83.5928 83.0871 83.5928 83.0871 83.5928 83.0872C83.5928 83.0872 83.5928 83.0872 83.5928 83.0872C83.5928 83.0872 83.5928 83.0872 83.5928 83.0872C83.5928 83.0872 83.5928 83.0872 83.5928 83.0872C83.5928 83.0872 83.5928 83.0872 83.5928 83.0873C83.5928 83.0873 83.5928 83.0873 83.5928 83.0873C83.5928 83.0873 83.5928 83.0873 83.5928 83.0873C83.5928 83.0873 83.5928 83.0873 83.5928 83.0873C83.5928 83.0873 83.5928 83.0873 83.5928 83.0873C83.5928 83.0874 83.5928 83.0874 83.5928 83.0874C83.5928 83.0874 83.5928 83.0874 83.5928 83.0874C83.5928 83.0874 83.5928 83.0874 83.5928 83.0874C83.5928 83.0874 83.5928 83.0874 83.5928 83.0874C83.5928 83.0875 83.5928 83.0875 83.5928 83.0875C83.5928 83.0875 83.5928 83.0875 83.5928 83.0875C83.5928 83.0875 83.5927 83.0875 83.5927 83.0875C83.5927 83.0875 83.5927 83.0875 83.5927 83.0875C83.5927 83.0875 83.5927 83.0876 83.5927 83.0876C83.5927 83.0876 83.5927 83.0876 83.5927 83.0876C83.5927 83.0876 83.5927 83.0876 83.5927 83.0876C83.5927 83.0876 83.5927 83.0876 83.5927 83.0876C83.5927 83.0876 83.5927 83.0877 83.5927 83.0877C83.5927 83.0877 83.5927 83.0877 83.5927 83.0877C83.5927 83.0877 83.5927 83.0877 83.5927 83.0877C83.5927 83.0877 83.5927 83.0877 83.5927 83.0877C83.5927 83.0877 83.5927 83.0878 83.5927 83.0878C83.5927 83.0878 83.5927 83.0878 83.5927 83.0878C83.5927 83.0878 83.5927 83.0878 83.5927 83.0878C83.5927 83.0878 83.5927 83.0878 83.5927 83.0878C83.5927 83.0878 83.5927 83.0878 83.5927 83.0879C83.5927 83.0879 83.5927 83.0879 83.5927 83.0879C83.5926 83.0879 83.5926 83.0879 83.5926 83.0879C83.5926 83.0879 83.5926 83.0879 83.5926 83.0879C83.5926 83.0879 83.5926 83.0879 83.5926 83.088C83.5926 83.088 83.5926 83.088 83.5926 83.088C83.5926 83.088 83.5926 83.088 83.5926 83.088C83.5926 83.088 83.5926 83.088 83.5926 83.088C83.5926 83.088 83.5926 83.088 83.5926 83.088C83.5926 83.0881 83.5926 83.0881 83.5926 83.0881C83.5926 83.0881 83.5926 83.0881 83.5926 83.0881C83.5926 83.0881 83.5926 83.0881 83.5926 83.0881C83.5926 83.0881 83.5926 83.0881 83.5926 83.0881C83.5926 83.0882 83.5926 83.0882 83.5926 83.0882C83.5926 83.0882 83.5926 83.0882 83.5926 83.0882C83.5926 83.0882 83.5926 83.0882 83.5926 83.0882C83.5926 83.0882 83.5926 83.0882 83.5926 83.0882C83.5926 83.0882 83.5925 83.0883 83.5925 83.0883C83.5925 83.0883 83.5925 83.0883 83.5925 83.0883C83.5925 83.0883 83.5925 83.0883 83.5925 83.0883C83.5925 83.0883 83.5925 83.0883 83.5925 83.0883C83.5925 83.0883 83.5925 83.0884 83.5925 83.0884C83.5925 83.0884 83.5925 83.0884 83.5925 83.0884C83.5925 83.0884 83.5925 83.0884 83.5925 83.0884C83.5925 83.0884 83.5925 83.0884 83.5925 83.0884C83.5925 83.0884 83.5925 83.0884 83.5925 83.0885C83.5925 83.0885 83.5925 83.0885 83.5925 83.0885C83.5925 83.0885 83.5925 83.0885 83.5925 83.0885C83.5925 83.0885 83.5925 83.0885 83.5925 83.0885C83.5925 83.0885 83.5925 83.0885 83.5925 83.0886C83.5925 83.0886 83.5925 83.0886 83.5925 83.0886C83.5925 83.0886 83.5925 83.0886 83.5925 83.0886C83.5925 83.0886 83.5925 83.0886 83.5925 83.0886C83.5924 83.0886 83.5924 83.0886 83.5924 83.0887C83.5924 83.0887 83.5924 83.0887 83.5924 83.0887C83.5924 83.0887 83.5924 83.0887 83.5924 83.0887C83.5924 83.0887 83.5924 83.0887 83.5924 83.0887C83.5924 83.0887 83.5924 83.0887 83.5924 83.0887C83.5924 83.0888 83.5924 83.0888 83.5924 83.0888C83.5924 83.0888 83.5924 83.0888 83.5924 83.0888C83.5924 83.0888 83.5924 83.0888 83.5924 83.0888C83.5924 83.0888 83.5924 83.0888 83.5924 83.0888C83.5924 83.0889 83.5924 83.0889 83.5924 83.0889C83.5924 83.0889 83.5924 83.0889 83.5924 83.0889C83.5924 83.0889 83.5924 83.0889 83.5924 83.0889C83.5924 83.0889 83.5924 83.0889 83.5924 83.0889C83.5924 83.0889 83.5924 83.089 83.5924 83.089C83.5924 83.089 83.5924 83.089 83.5924 83.089C83.5924 83.089 83.5924 83.089 83.5923 83.089C83.5923 83.089 83.5923 83.089 83.5923 83.089C83.5923 83.089 83.5923 83.0891 83.5923 83.0891C83.5923 83.0891 83.5923 83.0891 83.5923 83.0891C83.5923 83.0891 83.5923 83.0891 83.5923 83.0891C83.5923 83.0891 83.5923 83.0891 83.5923 83.0891C83.5923 83.0891 83.5923 83.0891 83.5923 83.0892C83.5923 83.0892 83.5923 83.0892 83.5923 83.0892C83.5923 83.0892 83.5923 83.0892 83.5923 83.0892C83.5923 83.0892 83.5923 83.0892 83.5923 83.0892C83.5923 83.0892 83.5923 83.0892 83.5923 83.0893C83.5923 83.0893 83.5923 83.0893 83.5923 83.0893C83.5923 83.0893 83.5923 83.0893 83.5923 83.0893C83.5923 83.0893 83.5923 83.0893 83.5923 83.0893C83.5923 83.0893 83.5923 83.0893 83.5923 83.0893C83.5923 83.0894 83.5923 83.0894 83.5923 83.0894C83.5922 83.0894 83.5922 83.0894 83.5922 83.0894C83.5922 83.0894 83.5922 83.0894 83.5922 83.0894C83.5922 83.0894 83.5922 83.0894 83.5922 83.0894C83.5922 83.0895 83.5922 83.0895 83.5922 83.0895C83.5922 83.0895 83.5922 83.0895 83.5922 83.0895C83.5922 83.0895 83.5922 83.0895 83.5922 83.0895C83.5922 83.0895 83.5922 83.0895 83.5922 83.0895C83.5922 83.0895 83.5922 83.0896 83.5922 83.0896C83.5922 83.0896 83.5922 83.0896 83.5922 83.0896C83.5922 83.0896 83.5922 83.0896 83.5922 83.0896C83.5922 83.0896 83.5922 83.0896 83.5922 83.0896C83.5922 83.0896 83.5922 83.0897 83.5922 83.0897C83.5922 83.0897 83.5922 83.0897 83.5922 83.0897C83.5922 83.0897 83.5922 83.0897 83.5922 83.0897C83.5922 83.0897 83.5922 83.0897 83.5922 83.0897C83.5922 83.0897 83.5922 83.0898 83.5921 83.0898C83.5921 83.0898 83.5921 83.0898 83.5921 83.0898C83.5921 83.0898 83.5921 83.0898 83.5921 83.0898C83.5921 83.0898 83.5921 83.0898 83.5921 83.0898C83.5921 83.0898 83.5921 83.0898 83.5921 83.0899C83.5921 83.0899 83.5921 83.0899 83.5921 83.0899C83.5921 83.0899 83.5921 83.0899 83.5921 83.0899C83.5921 83.0899 83.5921 83.0899 83.5921 83.0899C83.5921 83.0899 83.5921 83.0899 83.5921 83.09C83.5921 83.09 83.5921 83.09 83.5921 83.09C83.5921 83.09 83.5921 83.09 83.5921 83.09C83.5921 83.09 83.5921 83.09 83.5921 83.09C83.5921 83.09 83.5921 83.09 83.5921 83.09C83.5921 83.0901 83.5921 83.0901 83.5921 83.0901C83.5921 83.0901 83.5921 83.0901 83.5921 83.0901C83.5921 83.0901 83.5921 83.0901 83.5921 83.0901C83.592 83.0901 83.592 83.0901 83.592 83.0901C83.592 83.0902 83.592 83.0902 83.592 83.0902C83.592 83.0902 83.592 83.0902 83.592 83.0902C83.592 83.0902 83.592 83.0902 83.592 83.0902C83.592 83.0902 83.592 83.0902 83.592 83.0902C83.592 83.0902 83.592 83.0903 83.592 83.0903C83.592 83.0903 83.592 83.0903 83.592 83.0903C83.592 83.0903 83.592 83.0903 83.592 83.0903C83.592 83.0903 83.592 83.0903 83.592 83.0903C83.592 83.0903 83.592 83.0904 83.592 83.0904C83.592 83.0904 83.592 83.0904 83.592 83.0904C83.592 83.0904 83.592 83.0904 83.592 83.0904C83.592 83.0904 83.592 83.0904 83.592 83.0904C83.592 83.0904 83.592 83.0904 83.592 83.0905C83.592 83.0905 83.592 83.0905 83.592 83.0905C83.592 83.0905 83.592 83.0905 83.5919 83.0905C83.5919 83.0905 83.5919 83.0905 83.5919 83.0905C83.5919 83.0905 83.5919 83.0905 83.5919 83.0906C83.5919 83.0906 83.5919 83.0906 83.5919 83.0906C83.5919 83.0906 83.5919 83.0906 83.5919 83.0906C83.5919 83.0906 83.5919 83.0906 83.5919 83.0906C83.5919 83.0906 83.5919 83.0906 83.5919 83.0907C83.5919 83.0907 83.5919 83.0907 83.5919 83.0907C83.5919 83.0907 83.5919 83.0907 83.5919 83.0907C83.5919 83.0907 83.5919 83.0907 83.5919 83.0907C83.5919 83.0907 83.5919 83.0907 83.5919 83.0907C83.5919 83.0908 83.5919 83.0908 83.5919 83.0908C83.5919 83.0908 83.5919 83.0908 83.5919 83.0908C83.5919 83.0908 83.5919 83.0908 83.5919 83.0908C83.5919 83.0908 83.5919 83.0908 83.5919 83.0908C83.5919 83.0909 83.5919 83.0909 83.5919 83.0909C83.5918 83.0909 83.5918 83.0909 83.5918 83.0909C83.5918 83.0909 83.5918 83.0909 83.5918 83.0909C83.5918 83.0909 83.5918 83.0909 83.5918 83.0909C83.5918 83.0909 83.5918 83.091 83.5918 83.091C83.5918 83.091 83.5918 83.091 83.5918 83.091C83.5918 83.091 83.5918 83.091 83.5918 83.091C83.5918 83.091 83.5918 83.091 83.5918 83.091C83.5918 83.091 83.5918 83.0911 83.5918 83.0911C83.5918 83.0911 83.5918 83.0911 83.5918 83.0911C83.5918 83.0911 83.5918 83.0911 83.5918 83.0911C83.5918 83.0911 83.5918 83.0911 83.5918 83.0911C83.5918 83.0911 83.5918 83.0911 83.5918 83.0912C83.5918 83.0912 83.5918 83.0912 83.5918 83.0912C83.5918 83.0912 83.5918 83.0912 83.5918 83.0912C83.5918 83.0912 83.5918 83.0912 83.5918 83.0912C83.5918 83.0912 83.5918 83.0912 83.5917 83.0913C83.5917 83.0913 83.5917 83.0913 83.5917 83.0913C83.5917 83.0913 83.5917 83.0913 83.5917 83.0913C83.5917 83.0913 83.5917 83.0913 83.5917 83.0913C83.5917 83.0913 83.5917 83.0913 83.5917 83.0913C83.5917 83.0914 83.5917 83.0914 83.5917 83.0914C83.5917 83.0914 83.5917 83.0914 83.5917 83.0914C83.5917 83.0914 83.5917 83.0914 83.5917 83.0914C83.5917 83.0914 83.5917 83.0914 83.5917 83.0914C83.5917 83.0915 83.5917 83.0915 83.5917 83.0915C83.5917 83.0915 83.5917 83.0915 83.5917 83.0915C83.5917 83.0915 83.5917 83.0915 83.5917 83.0915C83.5917 83.0915 83.5917 83.0915 83.5917 83.0915C83.5917 83.0915 83.5917 83.0916 83.5917 83.0916C83.5917 83.0916 83.5917 83.0916 83.5917 83.0916C83.5917 83.0916 83.5917 83.0916 83.5917 83.0916C83.5917 83.0916 83.5916 83.0916 83.5916 83.0916C83.5916 83.0916 83.5916 83.0917 83.5916 83.0917C83.5916 83.0917 83.5916 83.0917 83.5916 83.0917C83.5916 83.0917 83.5916 83.0917 83.5916 83.0917C83.5916 83.0917 83.5916 83.0917 83.5916 83.0917C83.5916 83.0917 83.5916 83.0918 83.5916 83.0918C83.5916 83.0918 83.5916 83.0918 83.5916 83.0918C83.5916 83.0918 83.5916 83.0918 83.5916 83.0918C83.5916 83.0918 83.5916 83.0918 83.5916 83.0918C83.5916 83.0918 83.5916 83.0918 83.5916 83.0919C83.5916 83.0919 83.5916 83.0919 83.5916 83.0919C83.5916 83.0919 83.5916 83.0919 83.5916 83.0919C83.5916 83.0919 83.5916 83.0919 83.5916 83.0919C83.5916 83.0919 83.5916 83.0919 83.5916 83.092C83.5916 83.092 83.5916 83.092 83.5916 83.092C83.5916 83.092 83.5916 83.092 83.5915 83.092C83.5915 83.092 83.5915 83.092 83.5915 83.092C83.5915 83.092 83.5915 83.092 83.5915 83.092C83.5915 83.0921 83.5915 83.0921 83.5915 83.0921C83.5915 83.0921 83.5915 83.0921 83.5915 83.0921C83.5915 83.0921 83.5915 83.0921 83.5915 83.0921C83.5915 83.0921 83.5915 83.0921 83.5915 83.0921C83.5915 83.0922 83.5915 83.0922 83.5915 83.0922C83.5915 83.0922 83.5915 83.0922 83.5915 83.0922C83.5915 83.0922 83.5915 83.0922 83.5915 83.0922C83.5915 83.0922 83.5915 83.0922 83.5915 83.0922C83.5915 83.0922 83.5915 83.0923 83.5915 83.0923C83.5915 83.0923 83.5915 83.0923 83.5915 83.0923C83.5915 83.0923 83.5915 83.0923 83.5915 83.0923C83.5915 83.0923 83.5915 83.0923 83.5915 83.0923C83.5915 83.0923 83.5915 83.0924 83.5915 83.0924C83.5915 83.0924 83.5914 83.0924 83.5914 83.0924C83.5914 83.0924 83.5914 83.0924 83.5914 83.0924C83.5914 83.0924 83.5914 83.0924 83.5914 83.0924C83.5914 83.0924 83.5914 83.0924 83.5914 83.0925C83.5914 83.0925 83.5914 83.0925 83.5914 83.0925C83.5914 83.0925 83.5914 83.0925 83.5914 83.0925C83.5914 83.0925 83.5914 83.0925 83.5914 83.0925C83.5914 83.0925 83.5914 83.0925 83.5914 83.0926C83.5914 83.0926 83.5914 83.0926 83.5914 83.0926C83.5914 83.0926 83.5914 83.0926 83.5914 83.0926C83.5914 83.0926 83.5914 83.0926 83.5914 83.0926C83.5914 83.0926 83.5914 83.0926 83.5914 83.0927C83.5914 83.0927 83.5914 83.0927 83.5914 83.0927C83.5914 83.0927 83.5914 83.0927 83.5914 83.0927C83.5914 83.0927 83.5914 83.0927 83.5914 83.0927C83.5914 83.0927 83.5914 83.0927 83.5913 83.0927C83.5913 83.0928 83.5913 83.0928 83.5913 83.0928C83.5913 83.0928 83.5913 83.0928 83.5913 83.0928C83.5913 83.0928 83.5913 83.0928 83.5913 83.0928C83.5913 83.0928 83.5913 83.0928 83.5913 83.0928C83.5913 83.0929 83.5913 83.0929 83.5913 83.0929C83.5913 83.0929 83.5913 83.0929 83.5913 83.0929C83.5913 83.0929 83.5913 83.0929 83.5913 83.0929C83.5913 83.0929 83.5913 83.0929 83.5913 83.0929C83.5913 83.0929 83.5913 83.093 83.5913 83.093C83.5913 83.093 83.5913 83.093 83.5913 83.093C83.5913 83.093 83.5913 83.093 83.5913 83.093C83.5913 83.093 83.5913 83.093 83.5913 83.093C83.5913 83.093 83.5913 83.0931 83.5913 83.0931C83.5913 83.0931 83.5913 83.0931 83.5913 83.0931C83.5913 83.0931 83.5913 83.0931 83.5913 83.0931C83.5913 83.0931 83.5912 83.0931 83.5912 83.0931C83.5912 83.0931 83.5912 83.0931 83.5912 83.0932C83.5912 83.0932 83.5912 83.0932 83.5912 83.0932C83.5912 83.0932 83.5912 83.0932 83.5912 83.0932C83.5912 83.0932 83.5912 83.0932 83.5912 83.0932C83.5912 83.0932 83.5912 83.0932 83.5912 83.0933C83.5912 83.0933 83.5912 83.0933 83.5912 83.0933C83.5912 83.0933 83.5912 83.0933 83.5912 83.0933C83.5912 83.0933 83.5912 83.0933 83.5912 83.0933C83.5912 83.0933 83.5912 83.0933 83.5912 83.0933C83.5912 83.0934 83.5912 83.0934 83.5912 83.0934C83.5912 83.0934 83.5912 83.0934 83.5912 83.0934C83.5912 83.0934 83.5912 83.0934 83.5912 83.0934C83.5912 83.0934 83.5912 83.0934 83.5912 83.0934C83.5912 83.0935 83.5912 83.0935 83.5912 83.0935C83.5912 83.0935 83.5912 83.0935 83.5911 83.0935C83.5911 83.0935 83.5911 83.0935 83.5911 83.0935C83.5911 83.0935 83.5911 83.0935 83.5911 83.0935C83.5911 83.0936 83.5911 83.0936 83.5911 83.0936C83.5911 83.0936 83.5911 83.0936 83.5911 83.0936C83.5911 83.0936 83.5911 83.0936 83.5911 83.0936C83.5911 83.0936 83.5911 83.0936 83.5911 83.0936C83.5911 83.0936 83.5911 83.0937 83.5911 83.0937C83.5911 83.0937 83.5911 83.0937 83.5911 83.0937C83.5911 83.0937 83.5911 83.0937 83.5911 83.0937C83.5911 83.0937 83.5911 83.0937 83.5911 83.0937C83.5911 83.0937 83.5911 83.0938 83.5911 83.0938C83.5911 83.0938 83.5911 83.0938 83.5911 83.0938C83.5911 83.0938 83.5911 83.0938 83.5911 83.0938C83.5911 83.0938 83.5911 83.0938 83.5911 83.0938C83.5911 83.0938 83.5911 83.0938 83.5911 83.0939C83.5911 83.0939 83.591 83.0939 83.591 83.0939C83.591 83.0939 83.591 83.0939 83.591 83.0939C83.591 83.0939 83.591 83.0939 83.591 83.0939C83.591 83.0939 83.591 83.0939 83.591 83.094C83.591 83.094 83.591 83.094 83.591 83.094C83.591 83.094 83.591 83.094 83.591 83.094C83.591 83.094 83.591 83.094 83.591 83.094C83.591 83.094 83.591 83.094 83.591 83.094C83.591 83.0941 83.591 83.0941 83.591 83.0941C83.591 83.0941 83.591 83.0941 83.591 83.0941C83.591 83.0941 83.591 83.0941 83.591 83.0941C83.591 83.0941 83.591 83.0941 83.591 83.0941C83.591 83.0942 83.591 83.0942 83.591 83.0942C83.591 83.0942 83.591 83.0942 83.591 83.0942C83.591 83.0942 83.591 83.0942 83.591 83.0942C83.591 83.0942 83.591 83.0942 83.591 83.0942C83.5909 83.0942 83.5909 83.0943 83.5909 83.0943C83.5909 83.0943 83.5909 83.0943 83.5909 83.0943C83.5909 83.0943 83.5909 83.0943 83.5909 83.0943C83.5909 83.0943 83.5909 83.0943 83.5909 83.0943C83.5909 83.0943 83.5909 83.0944 83.5909 83.0944C83.5909 83.0944 83.5909 83.0944 83.5909 83.0944C83.5909 83.0944 83.5909 83.0944 83.5909 83.0944C83.5909 83.0944 83.5909 83.0944 83.5909 83.0944C83.5909 83.0944 83.5909 83.0944 83.5909 83.0945C83.5909 83.0945 83.5909 83.0945 83.5909 83.0945C83.5909 83.0945 83.5909 83.0945 83.5909 83.0945C83.5909 83.0945 83.5909 83.0945 83.5909 83.0945C83.5909 83.0945 83.5909 83.0945 83.5909 83.0946C83.5909 83.0946 83.5909 83.0946 83.5909 83.0946C83.5909 83.0946 83.5909 83.0946 83.5909 83.0946C83.5909 83.0946 83.5908 83.0946 83.5908 83.0946C83.5908 83.0946 83.5908 83.0946 83.5908 83.0947C83.5908 83.0947 83.5908 83.0947 83.5908 83.0947C83.5908 83.0947 83.5908 83.0947 83.5908 83.0947C83.5908 83.0947 83.5908 83.0947 83.5908 83.0947C83.5908 83.0947 83.5908 83.0947 83.5908 83.0947C83.5908 83.0948 83.5908 83.0948 83.5908 83.0948C83.5908 83.0948 83.5908 83.0948 83.5908 83.0948C83.5908 83.0948 83.5908 83.0948 83.5908 83.0948C83.5908 83.0948 83.5908 83.0948 83.5908 83.0948C83.5908 83.0949 83.5908 83.0949 83.5908 83.0949C83.5908 83.0949 83.5908 83.0949 83.5908 83.0949C83.5908 83.0949 83.5908 83.0949 83.5908 83.0949C83.5908 83.0949 83.5908 83.0949 83.5908 83.0949C83.5908 83.0949 83.5908 83.095 83.5908 83.095C83.5908 83.095 83.5908 83.095 83.5908 83.095C83.5907 83.095 83.5907 83.095 83.5907 83.095C83.5907 83.095 83.5907 83.095 83.5907 83.095C83.5907 83.095 83.5907 83.0951 83.5907 83.0951C83.5907 83.0951 83.5907 83.0951 83.5907 83.0951C83.5907 83.0951 83.5907 83.0951 83.5907 83.0951C83.5907 83.0951 83.5907 83.0951 83.5907 83.0951C83.5907 83.0951 83.5907 83.0951 83.5907 83.0952C83.5907 83.0952 83.5907 83.0952 83.5907 83.0952C83.5907 83.0952 83.5907 83.0952 83.5907 83.0952C83.5907 83.0952 83.5907 83.0952 83.5907 83.0952C83.5907 83.0952 83.5907 83.0952 83.5907 83.0953C83.5907 83.0953 83.5907 83.0953 83.5907 83.0953C83.5907 83.0953 83.5907 83.0953 83.5907 83.0953C83.5907 83.0953 83.5907 83.0953 83.5907 83.0953C83.5907 83.0953 83.5907 83.0953 83.5907 83.0953C83.5907 83.0954 83.5906 83.0954 83.5906 83.0954L84.5567 83.3536C84.5567 83.3536 84.5567 83.3536 84.5567 83.3536C84.5567 83.3536 84.5567 83.3536 84.5567 83.3535C84.5567 83.3535 84.5568 83.3535 84.5568 83.3535C84.5568 83.3535 84.5568 83.3535 84.5568 83.3535C84.5568 83.3535 84.5568 83.3535 84.5568 83.3535C84.5568 83.3535 84.5568 83.3535 84.5568 83.3534C84.5568 83.3534 84.5568 83.3534 84.5568 83.3534C84.5568 83.3534 84.5568 83.3534 84.5568 83.3534C84.5568 83.3534 84.5568 83.3534 84.5568 83.3534C84.5568 83.3534 84.5568 83.3534 84.5568 83.3533C84.5568 83.3533 84.5568 83.3533 84.5568 83.3533C84.5568 83.3533 84.5568 83.3533 84.5568 83.3533C84.5568 83.3533 84.5568 83.3533 84.5568 83.3533C84.5568 83.3533 84.5568 83.3533 84.5568 83.3533C84.5568 83.3532 84.5568 83.3532 84.5568 83.3532C84.5568 83.3532 84.5568 83.3532 84.5568 83.3532C84.5568 83.3532 84.5568 83.3532 84.5568 83.3532C84.5568 83.3532 84.5568 83.3532 84.5569 83.3532C84.5569 83.3531 84.5569 83.3531 84.5569 83.3531C84.5569 83.3531 84.5569 83.3531 84.5569 83.3531C84.5569 83.3531 84.5569 83.3531 84.5569 83.3531C84.5569 83.3531 84.5569 83.3531 84.5569 83.3531C84.5569 83.3531 84.5569 83.353 84.5569 83.353C84.5569 83.353 84.5569 83.353 84.5569 83.353C84.5569 83.353 84.5569 83.353 84.5569 83.353C84.5569 83.353 84.5569 83.353 84.5569 83.353C84.5569 83.353 84.5569 83.3529 84.5569 83.3529C84.5569 83.3529 84.5569 83.3529 84.5569 83.3529C84.5569 83.3529 84.5569 83.3529 84.5569 83.3529C84.5569 83.3529 84.5569 83.3529 84.5569 83.3529C84.5569 83.3529 84.5569 83.3529 84.5569 83.3528C84.5569 83.3528 84.5569 83.3528 84.5569 83.3528C84.5569 83.3528 84.5569 83.3528 84.5569 83.3528C84.5569 83.3528 84.557 83.3528 84.557 83.3528C84.557 83.3528 84.557 83.3528 84.557 83.3527C84.557 83.3527 84.557 83.3527 84.557 83.3527C84.557 83.3527 84.557 83.3527 84.557 83.3527C84.557 83.3527 84.557 83.3527 84.557 83.3527C84.557 83.3527 84.557 83.3527 84.557 83.3527C84.557 83.3526 84.557 83.3526 84.557 83.3526C84.557 83.3526 84.557 83.3526 84.557 83.3526C84.557 83.3526 84.557 83.3526 84.557 83.3526C84.557 83.3526 84.557 83.3526 84.557 83.3526C84.557 83.3525 84.557 83.3525 84.557 83.3525C84.557 83.3525 84.557 83.3525 84.557 83.3525C84.557 83.3525 84.557 83.3525 84.557 83.3525C84.557 83.3525 84.557 83.3525 84.557 83.3525C84.557 83.3524 84.557 83.3524 84.557 83.3524C84.557 83.3524 84.557 83.3524 84.5571 83.3524C84.5571 83.3524 84.5571 83.3524 84.5571 83.3524C84.5571 83.3524 84.5571 83.3524 84.5571 83.3524C84.5571 83.3524 84.5571 83.3523 84.5571 83.3523C84.5571 83.3523 84.5571 83.3523 84.5571 83.3523C84.5571 83.3523 84.5571 83.3523 84.5571 83.3523C84.5571 83.3523 84.5571 83.3523 84.5571 83.3523C84.5571 83.3523 84.5571 83.3522 84.5571 83.3522C84.5571 83.3522 84.5571 83.3522 84.5571 83.3522C84.5571 83.3522 84.5571 83.3522 84.5571 83.3522C84.5571 83.3522 84.5571 83.3522 84.5571 83.3522C84.5571 83.3522 84.5571 83.3522 84.5571 83.3521C84.5571 83.3521 84.5571 83.3521 84.5571 83.3521C84.5571 83.3521 84.5571 83.3521 84.5571 83.3521C84.5571 83.3521 84.5571 83.3521 84.5571 83.3521C84.5571 83.3521 84.5571 83.3521 84.5571 83.352C84.5571 83.352 84.5572 83.352 84.5572 83.352C84.5572 83.352 84.5572 83.352 84.5572 83.352C84.5572 83.352 84.5572 83.352 84.5572 83.352C84.5572 83.352 84.5572 83.352 84.5572 83.352C84.5572 83.3519 84.5572 83.3519 84.5572 83.3519C84.5572 83.3519 84.5572 83.3519 84.5572 83.3519C84.5572 83.3519 84.5572 83.3519 84.5572 83.3519C84.5572 83.3519 84.5572 83.3519 84.5572 83.3519C84.5572 83.3518 84.5572 83.3518 84.5572 83.3518C84.5572 83.3518 84.5572 83.3518 84.5572 83.3518C84.5572 83.3518 84.5572 83.3518 84.5572 83.3518C84.5572 83.3518 84.5572 83.3518 84.5572 83.3518C84.5572 83.3518 84.5572 83.3517 84.5572 83.3517C84.5572 83.3517 84.5572 83.3517 84.5572 83.3517C84.5572 83.3517 84.5572 83.3517 84.5572 83.3517C84.5572 83.3517 84.5572 83.3517 84.5572 83.3517C84.5573 83.3517 84.5573 83.3516 84.5573 83.3516C84.5573 83.3516 84.5573 83.3516 84.5573 83.3516C84.5573 83.3516 84.5573 83.3516 84.5573 83.3516C84.5573 83.3516 84.5573 83.3516 84.5573 83.3516C84.5573 83.3516 84.5573 83.3516 84.5573 83.3515C84.5573 83.3515 84.5573 83.3515 84.5573 83.3515C84.5573 83.3515 84.5573 83.3515 84.5573 83.3515C84.5573 83.3515 84.5573 83.3515 84.5573 83.3515C84.5573 83.3515 84.5573 83.3515 84.5573 83.3514C84.5573 83.3514 84.5573 83.3514 84.5573 83.3514C84.5573 83.3514 84.5573 83.3514 84.5573 83.3514C84.5573 83.3514 84.5573 83.3514 84.5573 83.3514C84.5573 83.3514 84.5573 83.3514 84.5573 83.3513C84.5573 83.3513 84.5573 83.3513 84.5573 83.3513C84.5573 83.3513 84.5573 83.3513 84.5573 83.3513C84.5573 83.3513 84.5574 83.3513 84.5574 83.3513C84.5574 83.3513 84.5574 83.3513 84.5574 83.3513C84.5574 83.3512 84.5574 83.3512 84.5574 83.3512C84.5574 83.3512 84.5574 83.3512 84.5574 83.3512C84.5574 83.3512 84.5574 83.3512 84.5574 83.3512C84.5574 83.3512 84.5574 83.3512 84.5574 83.3512C84.5574 83.3511 84.5574 83.3511 84.5574 83.3511C84.5574 83.3511 84.5574 83.3511 84.5574 83.3511C84.5574 83.3511 84.5574 83.3511 84.5574 83.3511C84.5574 83.3511 84.5574 83.3511 84.5574 83.3511C84.5574 83.3511 84.5574 83.351 84.5574 83.351C84.5574 83.351 84.5574 83.351 84.5574 83.351C84.5574 83.351 84.5574 83.351 84.5574 83.351C84.5574 83.351 84.5574 83.351 84.5574 83.351C84.5574 83.351 84.5574 83.3509 84.5574 83.3509C84.5574 83.3509 84.5574 83.3509 84.5574 83.3509C84.5575 83.3509 84.5575 83.3509 84.5575 83.3509C84.5575 83.3509 84.5575 83.3509 84.5575 83.3509C84.5575 83.3509 84.5575 83.3509 84.5575 83.3508C84.5575 83.3508 84.5575 83.3508 84.5575 83.3508C84.5575 83.3508 84.5575 83.3508 84.5575 83.3508C84.5575 83.3508 84.5575 83.3508 84.5575 83.3508C84.5575 83.3508 84.5575 83.3508 84.5575 83.3507C84.5575 83.3507 84.5575 83.3507 84.5575 83.3507C84.5575 83.3507 84.5575 83.3507 84.5575 83.3507C84.5575 83.3507 84.5575 83.3507 84.5575 83.3507C84.5575 83.3507 84.5575 83.3507 84.5575 83.3507C84.5575 83.3506 84.5575 83.3506 84.5575 83.3506C84.5575 83.3506 84.5575 83.3506 84.5575 83.3506C84.5575 83.3506 84.5575 83.3506 84.5575 83.3506C84.5575 83.3506 84.5575 83.3506 84.5575 83.3506C84.5575 83.3505 84.5576 83.3505 84.5576 83.3505C84.5576 83.3505 84.5576 83.3505 84.5576 83.3505C84.5576 83.3505 84.5576 83.3505 84.5576 83.3505C84.5576 83.3505 84.5576 83.3505 84.5576 83.3505C84.5576 83.3504 84.5576 83.3504 84.5576 83.3504C84.5576 83.3504 84.5576 83.3504 84.5576 83.3504C84.5576 83.3504 84.5576 83.3504 84.5576 83.3504C84.5576 83.3504 84.5576 83.3504 84.5576 83.3504C84.5576 83.3504 84.5576 83.3503 84.5576 83.3503C84.5576 83.3503 84.5576 83.3503 84.5576 83.3503C84.5576 83.3503 84.5576 83.3503 84.5576 83.3503C84.5576 83.3503 84.5576 83.3503 84.5576 83.3503C84.5576 83.3503 84.5576 83.3502 84.5576 83.3502C84.5576 83.3502 84.5576 83.3502 84.5576 83.3502C84.5576 83.3502 84.5576 83.3502 84.5576 83.3502C84.5576 83.3502 84.5576 83.3502 84.5576 83.3502C84.5577 83.3502 84.5577 83.3502 84.5577 83.3501C84.5577 83.3501 84.5577 83.3501 84.5577 83.3501C84.5577 83.3501 84.5577 83.3501 84.5577 83.3501C84.5577 83.3501 84.5577 83.3501 84.5577 83.3501C84.5577 83.3501 84.5577 83.3501 84.5577 83.35C84.5577 83.35 84.5577 83.35 84.5577 83.35C84.5577 83.35 84.5577 83.35 84.5577 83.35C84.5577 83.35 84.5577 83.35 84.5577 83.35C84.5577 83.35 84.5577 83.35 84.5577 83.35C84.5577 83.3499 84.5577 83.3499 84.5577 83.3499C84.5577 83.3499 84.5577 83.3499 84.5577 83.3499C84.5577 83.3499 84.5577 83.3499 84.5577 83.3499C84.5577 83.3499 84.5577 83.3499 84.5577 83.3499C84.5577 83.3498 84.5577 83.3498 84.5577 83.3498C84.5577 83.3498 84.5577 83.3498 84.5577 83.3498C84.5577 83.3498 84.5578 83.3498 84.5578 83.3498C84.5578 83.3498 84.5578 83.3498 84.5578 83.3498C84.5578 83.3498 84.5578 83.3497 84.5578 83.3497C84.5578 83.3497 84.5578 83.3497 84.5578 83.3497C84.5578 83.3497 84.5578 83.3497 84.5578 83.3497C84.5578 83.3497 84.5578 83.3497 84.5578 83.3497C84.5578 83.3497 84.5578 83.3496 84.5578 83.3496C84.5578 83.3496 84.5578 83.3496 84.5578 83.3496C84.5578 83.3496 84.5578 83.3496 84.5578 83.3496C84.5578 83.3496 84.5578 83.3496 84.5578 83.3496C84.5578 83.3496 84.5578 83.3495 84.5578 83.3495C84.5578 83.3495 84.5578 83.3495 84.5578 83.3495C84.5578 83.3495 84.5578 83.3495 84.5578 83.3495C84.5578 83.3495 84.5578 83.3495 84.5578 83.3495C84.5578 83.3495 84.5578 83.3495 84.5578 83.3494C84.5578 83.3494 84.5578 83.3494 84.5578 83.3494C84.5579 83.3494 84.5579 83.3494 84.5579 83.3494C84.5579 83.3494 84.5579 83.3494 84.5579 83.3494C84.5579 83.3494 84.5579 83.3494 84.5579 83.3493C84.5579 83.3493 84.5579 83.3493 84.5579 83.3493C84.5579 83.3493 84.5579 83.3493 84.5579 83.3493C84.5579 83.3493 84.5579 83.3493 84.5579 83.3493C84.5579 83.3493 84.5579 83.3493 84.5579 83.3493C84.5579 83.3492 84.5579 83.3492 84.5579 83.3492C84.5579 83.3492 84.5579 83.3492 84.5579 83.3492C84.5579 83.3492 84.5579 83.3492 84.5579 83.3492C84.5579 83.3492 84.5579 83.3492 84.5579 83.3492C84.5579 83.3491 84.5579 83.3491 84.5579 83.3491C84.5579 83.3491 84.5579 83.3491 84.5579 83.3491C84.5579 83.3491 84.5579 83.3491 84.5579 83.3491C84.5579 83.3491 84.5579 83.3491 84.5579 83.3491C84.5579 83.3491 84.5579 83.349 84.558 83.349C84.558 83.349 84.558 83.349 84.558 83.349C84.558 83.349 84.558 83.349 84.558 83.349C84.558 83.349 84.558 83.349 84.558 83.349C84.558 83.349 84.558 83.3489 84.558 83.3489C84.558 83.3489 84.558 83.3489 84.558 83.3489C84.558 83.3489 84.558 83.3489 84.558 83.3489C84.558 83.3489 84.558 83.3489 84.558 83.3489C84.558 83.3489 84.558 83.3489 84.558 83.3488C84.558 83.3488 84.558 83.3488 84.558 83.3488C84.558 83.3488 84.558 83.3488 84.558 83.3488C84.558 83.3488 84.558 83.3488 84.558 83.3488C84.558 83.3488 84.558 83.3488 84.558 83.3487C84.558 83.3487 84.558 83.3487 84.558 83.3487C84.558 83.3487 84.558 83.3487 84.558 83.3487C84.558 83.3487 84.558 83.3487 84.558 83.3487C84.5581 83.3487 84.5581 83.3487 84.5581 83.3487C84.5581 83.3486 84.5581 83.3486 84.5581 83.3486C84.5581 83.3486 84.5581 83.3486 84.5581 83.3486C84.5581 83.3486 84.5581 83.3486 84.5581 83.3486C84.5581 83.3486 84.5581 83.3486 84.5581 83.3486C84.5581 83.3485 84.5581 83.3485 84.5581 83.3485C84.5581 83.3485 84.5581 83.3485 84.5581 83.3485C84.5581 83.3485 84.5581 83.3485 84.5581 83.3485C84.5581 83.3485 84.5581 83.3485 84.5581 83.3485C84.5581 83.3484 84.5581 83.3484 84.5581 83.3484C84.5581 83.3484 84.5581 83.3484 84.5581 83.3484C84.5581 83.3484 84.5581 83.3484 84.5581 83.3484C84.5581 83.3484 84.5581 83.3484 84.5581 83.3484C84.5581 83.3484 84.5581 83.3483 84.5581 83.3483C84.5581 83.3483 84.5581 83.3483 84.5581 83.3483C84.5581 83.3483 84.5581 83.3483 84.5582 83.3483C84.5582 83.3483 84.5582 83.3483 84.5582 83.3483C84.5582 83.3483 84.5582 83.3482 84.5582 83.3482C84.5582 83.3482 84.5582 83.3482 84.5582 83.3482C84.5582 83.3482 84.5582 83.3482 84.5582 83.3482C84.5582 83.3482 84.5582 83.3482 84.5582 83.3482C84.5582 83.3482 84.5582 83.3482 84.5582 83.3481C84.5582 83.3481 84.5582 83.3481 84.5582 83.3481C84.5582 83.3481 84.5582 83.3481 84.5582 83.3481C84.5582 83.3481 84.5582 83.3481 84.5582 83.3481C84.5582 83.3481 84.5582 83.3481 84.5582 83.348C84.5582 83.348 84.5582 83.348 84.5582 83.348C84.5582 83.348 84.5582 83.348 84.5582 83.348C84.5582 83.348 84.5582 83.348 84.5582 83.348C84.5582 83.348 84.5582 83.348 84.5582 83.348C84.5582 83.3479 84.5582 83.3479 84.5582 83.3479C84.5583 83.3479 84.5583 83.3479 84.5583 83.3479C84.5583 83.3479 84.5583 83.3479 84.5583 83.3479C84.5583 83.3479 84.5583 83.3479 84.5583 83.3479C84.5583 83.3478 84.5583 83.3478 84.5583 83.3478C84.5583 83.3478 84.5583 83.3478 84.5583 83.3478C84.5583 83.3478 84.5583 83.3478 84.5583 83.3478C84.5583 83.3478 84.5583 83.3478 84.5583 83.3478C84.5583 83.3478 84.5583 83.3477 84.5583 83.3477C84.5583 83.3477 84.5583 83.3477 84.5583 83.3477C84.5583 83.3477 84.5583 83.3477 84.5583 83.3477C84.5583 83.3477 84.5583 83.3477 84.5583 83.3477C84.5583 83.3477 84.5583 83.3476 84.5583 83.3476C84.5583 83.3476 84.5583 83.3476 84.5583 83.3476C84.5583 83.3476 84.5583 83.3476 84.5583 83.3476C84.5583 83.3476 84.5583 83.3476 84.5583 83.3476C84.5583 83.3476 84.5583 83.3475 84.5584 83.3475C84.5584 83.3475 84.5584 83.3475 84.5584 83.3475C84.5584 83.3475 84.5584 83.3475 84.5584 83.3475C84.5584 83.3475 84.5584 83.3475 84.5584 83.3475C84.5584 83.3475 84.5584 83.3475 84.5584 83.3474C84.5584 83.3474 84.5584 83.3474 84.5584 83.3474C84.5584 83.3474 84.5584 83.3474 84.5584 83.3474C84.5584 83.3474 84.5584 83.3474 84.5584 83.3474C84.5584 83.3474 84.5584 83.3474 84.5584 83.3473C84.5584 83.3473 84.5584 83.3473 84.5584 83.3473C84.5584 83.3473 84.5584 83.3473 84.5584 83.3473C84.5584 83.3473 84.5584 83.3473 84.5584 83.3473C84.5584 83.3473 84.5584 83.3473 84.5584 83.3473C84.5584 83.3472 84.5584 83.3472 84.5584 83.3472C84.5584 83.3472 84.5584 83.3472 84.5584 83.3472C84.5584 83.3472 84.5584 83.3472 84.5584 83.3472C84.5585 83.3472 84.5585 83.3472 84.5585 83.3472C84.5585 83.3471 84.5585 83.3471 84.5585 83.3471C84.5585 83.3471 84.5585 83.3471 84.5585 83.3471C84.5585 83.3471 84.5585 83.3471 84.5585 83.3471C84.5585 83.3471 84.5585 83.3471 84.5585 83.3471C84.5585 83.3471 84.5585 83.347 84.5585 83.347C84.5585 83.347 84.5585 83.347 84.5585 83.347C84.5585 83.347 84.5585 83.347 84.5585 83.347C84.5585 83.347 84.5585 83.347 84.5585 83.347C84.5585 83.347 84.5585 83.3469 84.5585 83.3469C84.5585 83.3469 84.5585 83.3469 84.5585 83.3469C84.5585 83.3469 84.5585 83.3469 84.5585 83.3469C84.5585 83.3469 84.5585 83.3469 84.5585 83.3469C84.5585 83.3469 84.5585 83.3469 84.5585 83.3468C84.5585 83.3468 84.5585 83.3468 84.5585 83.3468C84.5585 83.3468 84.5585 83.3468 84.5586 83.3468C84.5586 83.3468 84.5586 83.3468 84.5586 83.3468C84.5586 83.3468 84.5586 83.3468 84.5586 83.3467C84.5586 83.3467 84.5586 83.3467 84.5586 83.3467C84.5586 83.3467 84.5586 83.3467 84.5586 83.3467C84.5586 83.3467 84.5586 83.3467 84.5586 83.3467C84.5586 83.3467 84.5586 83.3467 84.5586 83.3466C84.5586 83.3466 84.5586 83.3466 84.5586 83.3466C84.5586 83.3466 84.5586 83.3466 84.5586 83.3466C84.5586 83.3466 84.5586 83.3466 84.5586 83.3466C84.5586 83.3466 84.5586 83.3466 84.5586 83.3466C84.5586 83.3465 84.5586 83.3465 84.5586 83.3465C84.5586 83.3465 84.5586 83.3465 84.5586 83.3465C84.5586 83.3465 84.5586 83.3465 84.5586 83.3465C84.5586 83.3465 84.5586 83.3465 84.5586 83.3465C84.5586 83.3464 84.5586 83.3464 84.5586 83.3464C84.5586 83.3464 84.5587 83.3464 84.5587 83.3464C84.5587 83.3464 84.5587 83.3464 84.5587 83.3464C84.5587 83.3464 84.5587 83.3464 84.5587 83.3464C84.5587 83.3464 84.5587 83.3463 84.5587 83.3463C84.5587 83.3463 84.5587 83.3463 84.5587 83.3463C84.5587 83.3463 84.5587 83.3463 84.5587 83.3463C84.5587 83.3463 84.5587 83.3463 84.5587 83.3463C84.5587 83.3463 84.5587 83.3462 84.5587 83.3462C84.5587 83.3462 84.5587 83.3462 84.5587 83.3462C84.5587 83.3462 84.5587 83.3462 84.5587 83.3462C84.5587 83.3462 84.5587 83.3462 84.5587 83.3462C84.5587 83.3462 84.5587 83.3462 84.5587 83.3461C84.5587 83.3461 84.5587 83.3461 84.5587 83.3461C84.5587 83.3461 84.5587 83.3461 84.5587 83.3461C84.5587 83.3461 84.5587 83.3461 84.5587 83.3461C84.5587 83.3461 84.5587 83.3461 84.5588 83.346C84.5588 83.346 84.5588 83.346 84.5588 83.346C84.5588 83.346 84.5588 83.346 84.5588 83.346C84.5588 83.346 84.5588 83.346 84.5588 83.346C84.5588 83.346 84.5588 83.346 84.5588 83.346C84.5588 83.3459 84.5588 83.3459 84.5588 83.3459C84.5588 83.3459 84.5588 83.3459 84.5588 83.3459C84.5588 83.3459 84.5588 83.3459 84.5588 83.3459C84.5588 83.3459 84.5588 83.3459 84.5588 83.3459C84.5588 83.3458 84.5588 83.3458 84.5588 83.3458C84.5588 83.3458 84.5588 83.3458 84.5588 83.3458C84.5588 83.3458 84.5588 83.3458 84.5588 83.3458C84.5588 83.3458 84.5588 83.3458 84.5588 83.3458C84.5588 83.3458 84.5588 83.3457 84.5588 83.3457C84.5588 83.3457 84.5588 83.3457 84.5588 83.3457C84.5588 83.3457 84.5588 83.3457 84.5588 83.3457C84.5588 83.3457 84.5589 83.3457 84.5589 83.3457C84.5589 83.3457 84.5589 83.3456 84.5589 83.3456C84.5589 83.3456 84.5589 83.3456 84.5589 83.3456C84.5589 83.3456 84.5589 83.3456 84.5589 83.3456C84.5589 83.3456 84.5589 83.3456 84.5589 83.3456C84.5589 83.3456 84.5589 83.3455 84.5589 83.3455C84.5589 83.3455 84.5589 83.3455 84.5589 83.3455C84.5589 83.3455 84.5589 83.3455 84.5589 83.3455C84.5589 83.3455 84.5589 83.3455 84.5589 83.3455C84.5589 83.3455 84.5589 83.3455 84.5589 83.3454C84.5589 83.3454 84.5589 83.3454 84.5589 83.3454C84.5589 83.3454 84.5589 83.3454 84.5589 83.3454C84.5589 83.3454 84.5589 83.3454 84.5589 83.3454C84.5589 83.3454 84.5589 83.3454 84.5589 83.3453C84.5589 83.3453 84.5589 83.3453 84.5589 83.3453C84.5589 83.3453 84.5589 83.3453 84.559 83.3453C84.559 83.3453 84.559 83.3453 84.559 83.3453C84.559 83.3453 84.559 83.3453 84.559 83.3453C84.559 83.3452 84.559 83.3452 84.559 83.3452C84.559 83.3452 84.559 83.3452 84.559 83.3452C84.559 83.3452 84.559 83.3452 84.559 83.3452C84.559 83.3452 84.559 83.3452 84.559 83.3452C84.559 83.3451 84.559 83.3451 84.559 83.3451C84.559 83.3451 84.559 83.3451 84.559 83.3451C84.559 83.3451 84.559 83.3451 84.559 83.3451C84.559 83.3451 84.559 83.3451 84.559 83.3451C84.559 83.3451 84.559 83.345 84.559 83.345C84.559 83.345 84.559 83.345 84.559 83.345C84.559 83.345 84.559 83.345 84.559 83.345C84.559 83.345 84.559 83.345 84.559 83.345C84.559 83.345 84.559 83.3449 84.559 83.3449C84.559 83.3449 84.5591 83.3449 84.5591 83.3449C84.5591 83.3449 84.5591 83.3449 84.5591 83.3449C84.5591 83.3449 84.5591 83.3449 84.5591 83.3449C84.5591 83.3449 84.5591 83.3449 84.5591 83.3448C84.5591 83.3448 84.5591 83.3448 84.5591 83.3448C84.5591 83.3448 84.5591 83.3448 84.5591 83.3448C84.5591 83.3448 84.5591 83.3448 84.5591 83.3448C84.5591 83.3448 84.5591 83.3448 84.5591 83.3447C84.5591 83.3447 84.5591 83.3447 84.5591 83.3447C84.5591 83.3447 84.5591 83.3447 84.5591 83.3447C84.5591 83.3447 84.5591 83.3447 84.5591 83.3447C84.5591 83.3447 84.5591 83.3447 84.5591 83.3446C84.5591 83.3446 84.5591 83.3446 84.5591 83.3446C84.5591 83.3446 84.5591 83.3446 84.5591 83.3446C84.5591 83.3446 84.5591 83.3446 84.5591 83.3446C84.5591 83.3446 84.5591 83.3446 84.5591 83.3446C84.5592 83.3445 84.5592 83.3445 84.5592 83.3445C84.5592 83.3445 84.5592 83.3445 84.5592 83.3445C84.5592 83.3445 84.5592 83.3445 84.5592 83.3445C84.5592 83.3445 84.5592 83.3445 84.5592 83.3445C84.5592 83.3444 84.5592 83.3444 84.5592 83.3444C84.5592 83.3444 84.5592 83.3444 84.5592 83.3444C84.5592 83.3444 84.5592 83.3444 84.5592 83.3444C84.5592 83.3444 84.5592 83.3444 84.5592 83.3444C84.5592 83.3444 84.5592 83.3443 84.5592 83.3443C84.5592 83.3443 84.5592 83.3443 84.5592 83.3443C84.5592 83.3443 84.5592 83.3443 84.5592 83.3443C84.5592 83.3443 84.5592 83.3443 84.5592 83.3443C84.5592 83.3443 84.5592 83.3442 84.5592 83.3442C84.5592 83.3442 84.5592 83.3442 84.5592 83.3442C84.5592 83.3442 84.5592 83.3442 84.5592 83.3442C84.5592 83.3442 84.5593 83.3442 84.5593 83.3442C84.5593 83.3442 84.5593 83.3442 84.5593 83.3441C84.5593 83.3441 84.5593 83.3441 84.5593 83.3441C84.5593 83.3441 84.5593 83.3441 84.5593 83.3441C84.5593 83.3441 84.5593 83.3441 84.5593 83.3441C84.5593 83.3441 84.5593 83.3441 84.5593 83.344C84.5593 83.344 84.5593 83.344 84.5593 83.344C84.5593 83.344 84.5593 83.344 84.5593 83.344C84.5593 83.344 84.5593 83.344 84.5593 83.344C84.5593 83.344 84.5593 83.344 84.5593 83.344C84.5593 83.3439 84.5593 83.3439 84.5593 83.3439C84.5593 83.3439 84.5593 83.3439 84.5593 83.3439C84.5593 83.3439 84.5593 83.3439 84.5593 83.3439C84.5593 83.3439 84.5593 83.3439 84.5593 83.3439C84.5593 83.3438 84.5593 83.3438 84.5593 83.3438C84.5593 83.3438 84.5593 83.3438 84.5593 83.3438C84.5594 83.3438 84.5594 83.3438 84.5594 83.3438C84.5594 83.3438 84.5594 83.3438 84.5594 83.3438C84.5594 83.3438 84.5594 83.3437 84.5594 83.3437C84.5594 83.3437 84.5594 83.3437 84.5594 83.3437C84.5594 83.3437 84.5594 83.3437 84.5594 83.3437C84.5594 83.3437 84.5594 83.3437 84.5594 83.3437C84.5594 83.3437 84.5594 83.3436 84.5594 83.3436C84.5594 83.3436 84.5594 83.3436 84.5594 83.3436C84.5594 83.3436 84.5594 83.3436 84.5594 83.3436C84.5594 83.3436 84.5594 83.3436 84.5594 83.3436C84.5594 83.3436 84.5594 83.3435 84.5594 83.3435C84.5594 83.3435 84.5594 83.3435 84.5594 83.3435C84.5594 83.3435 84.5594 83.3435 84.5594 83.3435C84.5594 83.3435 84.5594 83.3435 84.5594 83.3435C84.5594 83.3435 84.5594 83.3435 84.5594 83.3434C84.5594 83.3434 84.5595 83.3434 84.5595 83.3434C84.5595 83.3434 84.5595 83.3434 84.5595 83.3434C84.5595 83.3434 84.5595 83.3434 84.5595 83.3434C84.5595 83.3434 84.5595 83.3434 84.5595 83.3433C84.5595 83.3433 84.5595 83.3433 84.5595 83.3433C84.5595 83.3433 84.5595 83.3433 84.5595 83.3433C84.5595 83.3433 84.5595 83.3433 84.5595 83.3433C84.5595 83.3433 84.5595 83.3433 84.5595 83.3433C84.5595 83.3432 84.5595 83.3432 84.5595 83.3432C84.5595 83.3432 84.5595 83.3432 84.5595 83.3432C84.5595 83.3432 84.5595 83.3432 84.5595 83.3432C84.5595 83.3432 84.5595 83.3432 84.5595 83.3432C84.5595 83.3431 84.5595 83.3431 84.5595 83.3431C84.5595 83.3431 84.5595 83.3431 84.5595 83.3431C84.5595 83.3431 84.5595 83.3431 84.5595 83.3431C84.5595 83.3431 84.5595 83.3431 84.5595 83.3431C84.5596 83.3431 84.5596 83.343 84.5596 83.343C84.5596 83.343 84.5596 83.343 84.5596 83.343C84.5596 83.343 84.5596 83.343 84.5596 83.343C84.5596 83.343 84.5596 83.343 84.5596 83.343C84.5596 83.343 84.5596 83.3429 84.5596 83.3429C84.5596 83.3429 84.5596 83.3429 84.5596 83.3429C84.5596 83.3429 84.5596 83.3429 84.5596 83.3429C84.5596 83.3429 84.5596 83.3429 84.5596 83.3429C84.5596 83.3429 84.5596 83.3429 84.5596 83.3428C84.5596 83.3428 84.5596 83.3428 84.5596 83.3428C84.5596 83.3428 84.5596 83.3428 84.5596 83.3428C84.5596 83.3428 84.5596 83.3428 84.5596 83.3428C84.5596 83.3428 84.5596 83.3428 84.5596 83.3427C84.5596 83.3427 84.5596 83.3427 84.5596 83.3427C84.5596 83.3427 84.5596 83.3427 84.5596 83.3427C84.5596 83.3427 84.5597 83.3427 84.5597 83.3427C84.5597 83.3427 84.5597 83.3427 84.5597 83.3426C84.5597 83.3426 84.5597 83.3426 84.5597 83.3426C84.5597 83.3426 84.5597 83.3426 84.5597 83.3426C84.5597 83.3426 84.5597 83.3426 84.5597 83.3426C84.5597 83.3426 84.5597 83.3426 84.5597 83.3426C84.5597 83.3425 84.5597 83.3425 84.5597 83.3425C84.5597 83.3425 84.5597 83.3425 84.5597 83.3425C84.5597 83.3425 84.5597 83.3425 84.5597 83.3425C84.5597 83.3425 84.5597 83.3425 84.5597 83.3425C84.5597 83.3424 84.5597 83.3424 84.5597 83.3424C84.5597 83.3424 84.5597 83.3424 84.5597 83.3424C84.5597 83.3424 84.5597 83.3424 84.5597 83.3424C84.5597 83.3424 84.5597 83.3424 84.5597 83.3424C84.5597 83.3424 84.5597 83.3423 84.5597 83.3423C84.5597 83.3423 84.5597 83.3423 84.5597 83.3423C84.5598 83.3423 84.5598 83.3423 84.5598 83.3423C84.5598 83.3423 84.5598 83.3423 84.5598 83.3423C84.5598 83.3423 84.5598 83.3422 84.5598 83.3422C84.5598 83.3422 84.5598 83.3422 84.5598 83.3422C84.5598 83.3422 84.5598 83.3422 84.5598 83.3422C84.5598 83.3422 84.5598 83.3422 84.5598 83.3422C84.5598 83.3422 84.5598 83.3422 84.5598 83.3421C84.5598 83.3421 84.5598 83.3421 84.5598 83.3421C84.5598 83.3421 84.5598 83.3421 84.5598 83.3421C84.5598 83.3421 84.5598 83.3421 84.5598 83.3421C84.5598 83.3421 84.5598 83.3421 84.5598 83.342C84.5598 83.342 84.5598 83.342 84.5598 83.342C84.5598 83.342 84.5598 83.342 84.5598 83.342C84.5598 83.342 84.5598 83.342 84.5598 83.342C84.5598 83.342 84.5598 83.342 84.5598 83.342C84.5598 83.3419 84.5598 83.3419 84.5599 83.3419C84.5599 83.3419 84.5599 83.3419 84.5599 83.3419C84.5599 83.3419 84.5599 83.3419 84.5599 83.3419C84.5599 83.3419 84.5599 83.3419 84.5599 83.3419C84.5599 83.3418 84.5599 83.3418 84.5599 83.3418C84.5599 83.3418 84.5599 83.3418 84.5599 83.3418C84.5599 83.3418 84.5599 83.3418 84.5599 83.3418C84.5599 83.3418 84.5599 83.3418 84.5599 83.3418C84.5599 83.3417 84.5599 83.3417 84.5599 83.3417C84.5599 83.3417 84.5599 83.3417 84.5599 83.3417C84.5599 83.3417 84.5599 83.3417 84.5599 83.3417C84.5599 83.3417 84.5599 83.3417 84.5599 83.3417C84.5599 83.3417 84.5599 83.3416 84.5599 83.3416C84.5599 83.3416 84.5599 83.3416 84.5599 83.3416C84.5599 83.3416 84.5599 83.3416 84.5599 83.3416C84.5599 83.3416 84.5599 83.3416 84.5599 83.3416C84.56 83.3416 84.56 83.3415 84.56 83.3415C84.56 83.3415 84.56 83.3415 84.56 83.3415C84.56 83.3415 84.56 83.3415 84.56 83.3415C84.56 83.3415 84.56 83.3415 84.56 83.3415C84.56 83.3415 84.56 83.3415 84.56 83.3414C84.56 83.3414 84.56 83.3414 84.56 83.3414C84.56 83.3414 84.56 83.3414 84.56 83.3414C84.56 83.3414 84.56 83.3414 84.56 83.3414C84.56 83.3414 84.56 83.3414 84.56 83.3413C84.56 83.3413 84.56 83.3413 84.56 83.3413C84.56 83.3413 84.56 83.3413 84.56 83.3413C84.56 83.3413 84.56 83.3413 84.56 83.3413C84.56 83.3413 84.56 83.3413 84.56 83.3413L83.5939 83.083ZM81.602 81.1744L84.9051 81.1745L84.9051 80.1745L81.6021 80.1744L81.602 81.1744ZM92.7159 81.1744H92.7837V80.1744H92.7159V81.1744ZM84.4387 80.4942C84.1131 81.3364 83.8306 82.2002 83.594 83.0827L84.5599 83.3416C84.7872 82.4938 85.0586 81.664 85.3715 80.8548L84.4387 80.4942ZM94.0304 83.0953C93.7931 82.2084 93.5095 81.3404 93.1823 80.4941L92.2496 80.8547C92.5639 81.6678 92.8364 82.5016 93.0643 83.3537L94.0304 83.0953ZM93.6195 82.7245H93.5474V83.7245H93.6195V82.7245ZM84.0737 82.7245H80.8711V83.7245H84.0737V82.7245ZM85.9245 77.3193C85.8924 77.3771 85.8606 77.435 85.829 77.493L86.7073 77.9712C86.7377 77.9153 86.7682 77.8597 86.799 77.8043L85.9245 77.3193ZM89.3523 75.4718C89.3772 75.5068 89.402 75.5418 89.4267 75.577L90.2447 75.0017C90.219 74.9652 90.1932 74.9287 90.1673 74.8922L89.3523 75.4718ZM89.8185 74.682H89.7598V75.682H89.8185V74.682ZM87.8613 74.682H86.9846V75.682H87.8613V74.682ZM87.4538 74.8922C86.9006 75.6702 86.3897 76.4803 85.9244 77.3193L86.799 77.8042C87.2461 76.998 87.7371 76.2194 88.2687 75.4718L87.4538 74.8922ZM91.792 77.493C91.323 76.6314 90.806 75.7998 90.2447 75.0017L89.4267 75.577C89.9662 76.3441 90.463 77.1433 90.9138 77.9711L91.792 77.493ZM82.7876 78.2321H86.2681V77.2321H82.7876V78.2321ZM91.3529 78.2321H91.4158V77.2321H91.3529V78.2321ZM89.236 104.694H89.0954V105.694H89.236V104.694ZM88.5256 104.694H84.7109V105.694H88.5256V104.694ZM86.3487 102.901C86.8903 103.806 87.486 104.674 88.1313 105.502L88.9199 104.887C88.2997 104.091 87.7272 103.257 87.2067 102.387L86.3487 102.901ZM89.4898 105.502C90.1351 104.674 90.7308 103.806 91.2723 102.901L90.4143 102.387C89.8939 103.257 89.3214 104.091 88.7011 104.887L89.4898 105.502ZM83.2265 103.144H86.7777V102.144H83.2265V103.144ZM90.8433 103.144H90.9688V102.144H90.8433V103.144ZM69.2474 64.5895L69.2477 63.5895H69.2474V64.5895ZM88.8105 69.3511L88.1181 70.0726L88.8105 70.7371L89.5029 70.0726L88.8105 69.3511ZM88.8105 110.133L89.5029 109.412L88.8105 108.747L88.1181 109.412L88.8105 110.133ZM86.6906 107.864L87.3842 108.584L88.056 107.937L87.4576 107.222L86.6906 107.864ZM88.8105 105.553L88.0332 106.182L88.8105 107.143L89.5879 106.182L88.8105 105.553ZM88.8105 73.9313L89.5879 73.3023L88.8105 72.3416L88.0332 73.3023L88.8105 73.9313ZM90.9305 71.6206L90.2369 70.9002L89.5651 71.547L90.1635 72.2622L90.9305 71.6206ZM90.9305 107.864L90.1635 107.222L89.5651 107.937L90.2369 108.584L90.9305 107.864ZM80.1601 67.0737L80.5945 66.173L80.5945 66.173L80.1601 67.0737ZM48.7383 75.182V74.182H48.223L47.9239 74.6016L48.7383 75.182ZM51.1913 72.2396L50.4738 71.5431L48.8268 73.2396H51.1913V72.2396ZM54.0741 69.6896V68.6896H53.7382L53.4704 68.8924L54.0741 69.6896ZM59.0588 66.7472L58.653 65.8333L59.0588 67.7472V66.7472ZM84.1507 75.182V76.182H84.7158L85.0073 75.698L84.1507 75.182ZM84.4336 69.6896V70.6896H87.4067L85.0379 68.8928L84.4336 69.6896ZM86.1872 72.2396L86.9719 72.8595L88.2516 71.2396H86.1872V72.2396ZM79.4555 66.7472L79.8617 65.8335L79.6678 65.7472H79.4555V66.7472ZM69.2629 64.5895L69.2635 65.5895L69.2632 63.5895L69.2629 64.5895ZM47.1418 77.7321V76.7321H46.5477L46.2636 77.2539L47.1418 77.7321ZM82.7876 77.7321L83.6926 78.1576L84.3629 76.7321H82.7876V77.7321ZM47.439 77.2017L46.5725 76.7024L48.3048 77.7021L47.439 77.2017ZM80.8711 83.2245L81.8444 83.4543L82.1347 82.2245H80.8711V83.2245ZM44.9474 83.2245V82.2245H44.1798L43.9814 82.966L44.9474 83.2245ZM45.7788 80.6744L44.8461 80.3138L44.32 81.6744H45.7788V80.6744ZM81.6021 80.6744V81.6744H82.3192L82.5492 80.9951L81.6021 80.6744ZM44.1152 88.7169V87.7169H43.1545L43.1161 88.6768L44.1152 88.7169ZM80.134 88.7169L81.1334 88.7525L81.1703 87.7169H80.134V88.7169ZM80.3398 86.1669V87.1669H81.2215L81.3319 86.2921L80.3398 86.1669ZM44.3469 86.1669L43.3569 86.026L43.1945 87.1669H44.3469V86.1669ZM44.4902 94.2093V93.2093H43.2951L43.5059 94.3858L44.4902 94.2093ZM80.4669 94.2093L81.4545 94.0525L81.3206 93.2093H80.4669V94.2093ZM44.1667 91.6593L43.1695 91.7344L43.2392 92.6593H44.1667V91.6593ZM80.1798 91.6593V92.6593H81.249L81.1776 91.5924L80.1798 91.6593ZM45.2039 97.1517L44.2481 97.4459L44.4654 98.1517H45.2039V97.1517ZM81.0972 97.1517V98.1517H82.4043L82.0624 96.8901L81.0972 97.1517ZM46.1436 99.7018V98.7018H44.6227L45.2255 100.098L46.1436 99.7018ZM81.921 99.7018L82.8568 99.3492L82.6129 98.7018H81.921V99.7018ZM47.6514 102.644L46.7934 103.158L47.0846 103.644H47.6514V102.644ZM83.2265 102.644V103.644H84.865L84.1158 102.187L83.2265 102.644ZM49.3993 105.194V104.194H47.3517L48.6106 105.809L49.3993 105.194ZM84.7109 105.194L85.5477 104.647L85.2517 104.194H84.7109V105.194ZM52.092 108.137L51.4098 108.868L51.698 109.137H52.092V108.137ZM86.4027 108.137V109.137H86.7967L87.0849 108.868L86.4027 108.137ZM55.3147 110.687V109.687H52.0114L54.7601 111.519L55.3147 110.687ZM83.18 110.687L83.7346 111.519L86.4833 109.687H83.18V110.687ZM61.347 113.629L61.0332 114.578L61.186 114.629H61.347V113.629ZM77.1477 113.629V114.629H77.3087L77.4616 114.578L77.1477 113.629ZM84.3302 97.1517L83.3744 97.4459L83.5917 98.1517H84.3302V97.1517ZM93.2909 97.1517V98.1517H94.0293L94.2466 97.4459L93.2909 97.1517ZM85.2699 99.7018V98.7018H83.7491L84.3518 100.098L85.2699 99.7018ZM92.3511 99.7018L93.2692 100.098L93.872 98.7018H92.3511V99.7018ZM83.6166 94.2093V93.2093H82.4214L82.6322 94.3858L83.6166 94.2093ZM94.0045 94.2093L94.9888 94.3858L95.1997 93.2093H94.0045V94.2093ZM83.293 91.6593L82.2959 91.7344L82.3656 92.6593H83.293V91.6593ZM94.328 91.6593V92.6593H95.2555L95.3252 91.7344L94.328 91.6593ZM83.2416 88.7169V87.7169H82.2808L82.2424 88.6769L83.2416 88.7169ZM94.3795 88.7169L95.3787 88.6769L95.3402 87.7169H94.3795V88.7169ZM94.1478 86.1669V87.1669H95.3002L95.1379 86.026L94.1478 86.1669ZM83.4732 86.1669L82.4832 86.026L82.3208 87.1669H83.4732V86.1669ZM93.5474 83.2245L94.5134 82.966L94.315 82.2245H93.5474V83.2245ZM84.0737 83.2245V82.2245H83.3061L83.1077 82.966L84.0737 83.2245ZM92.7159 80.6744L92.7159 81.6744L94.1747 81.6744L93.6486 80.3138L92.7159 80.6744ZM84.9051 80.6745L83.9724 80.3139L83.4463 81.6745L84.9051 81.6745L84.9051 80.6745ZM91.3529 77.7321L92.2312 77.2539L91.9471 76.7321H91.3529V77.7321ZM86.2681 77.7321V76.7321H85.674L85.3899 77.2539L86.2681 77.7321ZM87.8613 75.182L87.0463 74.6025L85.9231 76.182H87.8613V75.182ZM89.7598 75.182V76.182H91.698L90.5747 74.6025L89.7598 75.182ZM86.7777 102.644L85.9197 103.158L86.2109 103.644H86.7777V102.644ZM90.8433 102.644V103.644H91.4101L91.7013 103.158L90.8433 102.644ZM88.5256 105.194V104.194H86.478L87.737 105.809L88.5256 105.194ZM89.0954 105.194L89.8841 105.809L91.1431 104.194H89.0954V105.194ZM176 88.5C176 136.825 136.825 176 88.5 176V178C137.929 178 178 137.929 178 88.5H176ZM88.5 176C40.1751 176 1 136.825 1 88.5H-1C-1 137.929 39.0705 178 88.5 178V176ZM1 88.5C1 40.1751 40.1751 1 88.5 1V-1C39.0705 -1 -1 39.0705 -1 88.5H1ZM88.5 1C136.825 1 176 40.1751 176 88.5H178C178 39.0705 137.929 -1 88.5 -1V1ZM169.168 88.5C169.168 133.052 133.052 169.168 88.5 169.168V171.168C134.157 171.168 171.168 134.157 171.168 88.5H169.168ZM88.5 169.168C43.9481 169.168 7.83158 133.052 7.83158 88.5H5.83158C5.83158 134.157 42.8435 171.168 88.5 171.168V169.168ZM7.83158 88.5C7.83158 43.9481 43.9481 7.83158 88.5 7.83158V5.83158C42.8435 5.83158 5.83158 42.8435 5.83158 88.5H7.83158ZM88.5 7.83158C133.052 7.83158 169.168 43.9481 169.168 88.5H171.168C171.168 42.8435 134.157 5.83158 88.5 5.83158V7.83158ZM161.095 88.1895C161.095 128.111 128.732 160.474 88.8105 160.474V162.474C129.837 162.474 163.095 129.216 163.095 88.1895H161.095ZM88.8105 160.474C48.8891 160.474 16.5263 128.111 16.5263 88.1895H14.5263C14.5263 129.216 47.7845 162.474 88.8105 162.474V160.474ZM16.5263 88.1895C16.5263 48.268 48.8891 15.9053 88.8105 15.9053V13.9053C47.7845 13.9053 14.5263 47.1634 14.5263 88.1895H16.5263ZM88.8105 15.9053C128.732 15.9053 161.095 48.268 161.095 88.1895H163.095C163.095 47.1634 129.837 13.9053 88.8105 13.9053V15.9053ZM135.632 89.7421C135.632 104.796 123.428 117 108.374 117V119C124.532 119 137.632 105.901 137.632 89.7421H135.632ZM108.374 62.4842C123.428 62.4842 135.632 74.688 135.632 89.7421H137.632C137.632 73.5834 124.532 60.4842 108.374 60.4842V62.4842ZM132.526 89.7421C132.526 103.081 121.713 113.895 108.374 113.895V115.895C122.817 115.895 134.526 104.186 134.526 89.7421H132.526ZM108.374 65.5895C121.713 65.5895 132.526 76.403 132.526 89.7421H134.526C134.526 75.2984 122.817 63.5895 108.374 63.5895V65.5895ZM69.2474 117C54.1932 117 41.9895 104.796 41.9895 89.7421H39.9895C39.9895 105.901 53.0887 119 69.2474 119V117ZM41.9895 89.7421C41.9895 74.688 54.1932 62.4842 69.2474 62.4842V60.4842C53.0887 60.4842 39.9895 73.5834 39.9895 89.7421H41.9895ZM108.374 60.4842C100.513 60.4842 93.3741 63.5857 88.1181 68.6296L89.5029 70.0726C94.4015 65.3717 101.049 62.4842 108.374 62.4842V60.4842ZM89.5029 68.6296C84.2469 63.5857 77.1083 60.4842 69.2474 60.4842V62.4842C76.5717 62.4842 83.2196 65.3717 88.1181 70.0726L89.5029 68.6296ZM69.2474 119C77.1083 119 84.2469 115.899 89.5029 110.855L88.1181 109.412C83.2196 114.112 76.5717 117 69.2474 117V119ZM88.1181 110.855C93.3741 115.899 100.513 119 108.374 119V117C101.049 117 94.4015 114.112 89.5029 109.412L88.1181 110.855ZM91.624 72.3409C95.9674 68.1592 101.869 65.5895 108.374 65.5895V63.5895C101.332 63.5895 94.9379 66.3741 90.2369 70.9002L91.624 72.3409ZM90.1635 72.2622C94.1229 76.9947 96.5053 83.0889 96.5053 89.7421H98.5053C98.5053 82.6025 95.9467 76.0578 91.6974 70.9789L90.1635 72.2622ZM96.5053 89.7421C96.5053 96.3953 94.1229 102.49 90.1635 107.222L91.6974 108.505C95.9467 103.426 98.5053 96.8817 98.5053 89.7421H96.5053ZM108.374 113.895C101.869 113.895 95.9674 111.325 91.624 107.143L90.2369 108.584C94.9379 113.11 101.332 115.895 108.374 115.895V113.895ZM51.9088 72.9362C52.7676 72.0516 53.6934 71.2324 54.6779 70.4868L53.4704 68.8924C52.4049 69.6994 51.4031 70.5859 50.4738 71.5431L51.9088 72.9362ZM84.1507 74.182H48.7383V76.182H84.1507V74.182ZM79.7257 67.9744C81.1804 68.676 82.5542 69.5192 83.8293 70.4863L85.0379 68.8928C83.6577 67.846 82.1702 66.9329 80.5945 66.173L79.7257 67.9744ZM84.4336 68.6896H54.0741V70.6896H84.4336V68.6896ZM51.1913 73.2396H86.1872V71.2396H51.1913V73.2396ZM85.4025 71.6198C84.6381 72.5875 83.9334 73.6048 83.2941 74.666L85.0073 75.698C85.6029 74.7093 86.2595 73.7614 86.9719 72.8595L85.4025 71.6198ZM80.5945 66.173C80.3523 66.0562 80.108 65.943 79.8617 65.8335L79.0492 67.661C79.2766 67.7621 79.5021 67.8666 79.7257 67.9744L80.5945 66.173ZM79.4555 65.7472H59.0588V67.7472H79.4555V65.7472ZM59.4647 67.6612C62.4587 66.3317 65.7734 65.5916 69.2635 65.5895L69.2623 63.5895C65.4877 63.5918 61.8973 64.3926 58.653 65.8333L59.4647 67.6612ZM47.1418 78.7321H82.7876V76.7321H47.1418V78.7321ZM69.2632 63.5895L69.2477 63.5895L69.2471 65.5895L69.2626 65.5895L69.2632 63.5895ZM69.2474 63.5895C59.5505 63.5895 51.0876 68.8674 46.5725 76.7024L48.3054 77.701C52.4781 70.4601 60.2945 65.5895 69.2474 65.5895V63.5895ZM48.3048 77.7021C48.6904 77.0348 49.107 76.3876 49.5526 75.7624L47.9239 74.6016C47.4416 75.2783 46.9907 75.9789 46.5731 76.7014L48.3048 77.7021ZM80.8711 82.2245H44.9474V84.2245H80.8711V82.2245ZM46.7115 81.0351C47.088 80.0615 47.5257 79.1183 48.0201 78.2102L46.2636 77.2539C45.7282 78.2373 45.2539 79.259 44.8461 80.3138L46.7115 81.0351ZM81.8827 77.3065C81.4187 78.2933 81.0082 79.3103 80.6549 80.3537L82.5492 80.9951C82.8782 80.0236 83.2604 79.0766 83.6926 78.1576L81.8827 77.3065ZM81.6021 79.6744H45.7788V81.6744H81.6021V79.6744ZM45.0947 89.7421C45.0947 89.4121 45.1013 89.0837 45.1144 88.757L43.1161 88.6768C43.1019 89.0302 43.0947 89.3854 43.0947 89.7421H45.0947ZM44.1152 89.7169H80.134V87.7169H44.1152V89.7169ZM79.1347 88.6813C79.1221 89.0334 79.1158 89.387 79.1158 89.7421H81.1158C81.1158 89.4108 81.1217 89.0809 81.1334 88.7525L79.1347 88.6813ZM81.3319 86.2921C81.4535 85.3295 81.6252 84.3826 81.8444 83.4543L79.8979 82.9947C79.6625 83.9917 79.4781 85.0083 79.3477 86.0416L81.3319 86.2921ZM43.9814 82.966C43.7144 83.9639 43.505 84.9851 43.3569 86.026L45.3369 86.3077C45.4737 85.3466 45.667 84.4039 45.9134 83.4829L43.9814 82.966ZM44.3469 87.1669H80.3398V85.1669H44.3469V87.1669ZM80.4669 93.2093H44.4902V95.2093H80.4669V93.2093ZM44.1667 92.6593H80.1798V90.6593H44.1667V92.6593ZM81.1776 91.5924C81.1366 90.9811 81.1158 90.3641 81.1158 89.7421H79.1158C79.1158 90.4088 79.1381 91.0703 79.182 91.7261L81.1776 91.5924ZM43.0947 89.7421C43.0947 90.4122 43.12 91.0766 43.1695 91.7344L45.1639 91.5841C45.1181 90.9763 45.0947 90.362 45.0947 89.7421H43.0947ZM46.1596 96.8575C45.8767 95.9382 45.6471 94.9955 45.4746 94.0329L43.5059 94.3858C43.6928 95.4285 43.9415 96.4498 44.2481 97.4459L46.1596 96.8575ZM79.4793 94.3662C79.6436 95.4009 79.8622 96.4176 80.132 97.4133L82.0624 96.8901C81.8112 95.963 81.6076 95.0162 81.4545 94.0525L79.4793 94.3662ZM81.0972 96.1517H45.2039V98.1517H81.0972V96.1517ZM81.921 98.7018H46.1436V100.702H81.921V98.7018ZM48.5094 102.13C47.9675 101.225 47.4833 100.282 47.0617 99.3054L45.2255 100.098C45.6822 101.156 46.2067 102.178 46.7934 103.158L48.5094 102.13ZM80.9852 100.054C81.379 101.1 81.831 102.117 82.3371 103.101L84.1158 102.187C83.6444 101.27 83.2235 100.323 82.8568 99.3492L80.9852 100.054ZM83.2265 101.644H47.6514V103.644H83.2265V101.644ZM87.4576 107.222C86.7723 106.403 86.1343 105.543 85.5477 104.647L83.8742 105.742C84.5037 106.704 85.1884 107.627 85.9236 108.505L87.4576 107.222ZM84.7109 104.194H49.3993V106.194H84.7109V104.194ZM52.7743 107.405C51.8398 106.534 50.9747 105.588 50.1879 104.579L48.6106 105.809C49.4622 106.901 50.3986 107.924 51.4098 108.868L52.7743 107.405ZM85.997 107.143C85.9055 107.231 85.8133 107.319 85.7204 107.405L87.0849 108.868C87.1854 108.774 87.2851 108.679 87.3842 108.584L85.997 107.143ZM86.4027 107.137H52.092V109.137H86.4027V107.137ZM83.18 109.687H55.3147V111.687H83.18V109.687ZM61.6609 112.68C59.5929 111.996 57.6482 111.04 55.8694 109.855L54.7601 111.519C56.686 112.802 58.7923 113.838 61.0332 114.578L61.6609 112.68ZM82.6254 109.855C80.8465 111.04 78.9019 111.996 76.8338 112.68L77.4616 114.578C79.7024 113.838 81.8087 112.802 83.7346 111.519L82.6254 109.855ZM77.1477 112.629H61.347V114.629H77.1477V112.629ZM93.2909 96.1517H84.3302V98.1517H93.2909V96.1517ZM92.3511 98.7018H85.2699V100.702H92.3511V98.7018ZM82.6322 94.3858C82.8191 95.4285 83.0678 96.4498 83.3744 97.4459L85.2859 96.8575C85.003 95.9382 84.7734 94.9955 84.6009 94.0329L82.6322 94.3858ZM94.2466 97.4459C94.5532 96.4498 94.8019 95.4285 94.9888 94.3858L93.0202 94.0329C92.8476 94.9955 92.6181 95.9382 92.3351 96.8575L94.2466 97.4459ZM94.0045 93.2093H83.6166V95.2093H94.0045V93.2093ZM83.293 92.6593H94.328V90.6593H83.293V92.6593ZM95.3252 91.7344C95.3748 91.0766 95.4 90.4122 95.4 89.7421H93.4C93.4 90.362 93.3767 90.9763 93.3309 91.5841L95.3252 91.7344ZM82.2211 89.7421C82.2211 90.4122 82.2463 91.0766 82.2959 91.7344L84.2902 91.5841C84.2444 90.9763 84.2211 90.362 84.2211 89.7421H82.2211ZM83.2416 89.7169H94.3795V87.7169H83.2416V89.7169ZM93.3803 88.7569C93.3934 89.0837 93.4 89.4121 93.4 89.7421H95.4C95.4 89.3853 95.3928 89.0302 95.3787 88.6769L93.3803 88.7569ZM83.4732 87.1669H94.1478V85.1669H83.4732V87.1669ZM84.2211 89.7421C84.2211 89.4121 84.2277 89.0837 84.2408 88.757L82.2424 88.6769C82.2282 89.0302 82.2211 89.3853 82.2211 89.7421H84.2211ZM92.5813 83.4829C92.8277 84.4039 93.0211 85.3466 93.1578 86.3077L95.1379 86.026C94.9898 84.9851 94.7804 83.9639 94.5134 82.966L92.5813 83.4829ZM84.0737 84.2245H93.5474V82.2245H84.0737V84.2245ZM84.4632 86.3077C84.6 85.3466 84.7933 84.4039 85.0397 83.4829L83.1077 82.966C82.8407 83.9639 82.6313 84.9851 82.4832 86.026L84.4632 86.3077ZM84.9051 81.6745L92.7159 81.6744L92.7159 79.6744L84.9051 79.6745L84.9051 81.6745ZM90.4746 78.2102C90.969 79.1183 91.4068 80.0615 91.7832 81.035L93.6486 80.3138C93.2408 79.259 92.7666 78.2373 92.2312 77.2539L90.4746 78.2102ZM86.2681 78.7321H91.3529V76.7321H86.2681V78.7321ZM88.0332 73.3023C87.6911 73.725 87.362 74.1586 87.0463 74.6025L88.6762 75.7615C88.9678 75.3515 89.2719 74.9509 89.5879 74.5604L88.0332 73.3023ZM87.8613 76.182H89.7598V74.182H87.8613V76.182ZM90.5747 74.6025C90.2591 74.1586 89.9299 73.725 89.5879 73.3023L88.0332 74.5604C88.3492 74.9509 88.6532 75.3515 88.9448 75.7615L90.5747 74.6025ZM85.8378 81.0351C86.2142 80.0615 86.652 79.1183 87.1464 78.2102L85.3899 77.2539C84.8545 78.2373 84.3802 79.259 83.9724 80.3139L85.8378 81.0351ZM87.6357 102.13C87.0938 101.225 86.6096 100.282 86.188 99.3054L84.3518 100.098C84.8085 101.156 85.333 102.178 85.9197 103.158L87.6357 102.13ZM91.433 99.3054C91.0114 100.282 90.5272 101.225 89.9854 102.13L91.7013 103.158C92.2881 102.178 92.8125 101.156 93.2692 100.098L91.433 99.3054ZM90.8433 101.644H86.7777V103.644H90.8433V101.644ZM87.737 105.809C87.8346 105.934 87.9333 106.059 88.0332 106.182L89.5879 104.924C89.4957 104.81 89.4044 104.695 89.3143 104.579L87.737 105.809ZM89.5879 106.182C89.6877 106.059 89.7865 105.934 89.8841 105.809L88.3068 104.579C88.2166 104.695 88.1254 104.81 88.0332 104.924L89.5879 106.182ZM89.0954 104.194H88.5256V106.194H89.0954V104.194Z" fill="black" mask="url(#path-1-inside-1_358_1120)"/>
</svg>
