<svg width="158" height="183" viewBox="0 0 158 183" fill="none" xmlns="http://www.w3.org/2000/svg">
<path fill-rule="evenodd" clip-rule="evenodd" d="M118.525 16.0842C118.525 24.9672 111.324 32.1684 102.441 32.1684C102.422 32.1684 102.404 32.1683 102.385 32.1683L87.7889 75.5821C93.1325 78.8688 97.3026 83.8889 99.5219 89.8625L132.955 81.2248C134.12 75.6259 139.047 71.4214 144.949 71.4214C151.717 71.4214 157.204 76.9509 157.204 83.7718C157.204 90.5927 151.717 96.1221 144.949 96.1221C141.258 96.1221 137.949 94.4778 135.702 91.8764L101.275 100.771C101.005 108.497 97.6521 115.437 92.4129 120.39L114.451 151.579C116.249 150.883 118.204 150.502 120.248 150.502C129.131 150.502 136.332 157.703 136.332 166.586C136.332 175.469 129.131 182.67 120.248 182.67C111.365 182.67 104.164 175.469 104.164 166.586C104.164 163.79 104.878 161.16 106.133 158.869L83.089 126.256C79.9694 127.447 76.5852 128.099 73.0493 128.099C68.1243 128.099 63.4937 126.834 59.4626 124.611L42.8791 142.071C43.3824 143.446 43.657 144.932 43.657 146.481C43.657 153.566 37.9132 159.31 30.828 159.31C23.7427 159.31 17.9989 153.566 17.9989 146.481C17.9989 139.396 23.7427 133.652 30.828 133.652C32.3015 133.652 33.717 133.9 35.0349 134.358L51.0333 117.513C47.1377 112.655 44.8062 106.481 44.8062 99.7602C44.8062 93.6638 46.7248 88.017 49.9891 83.3946L26.2538 54.8812C24.2623 55.5495 22.1303 55.9117 19.9138 55.9117C8.91569 55.9117 0 46.996 0 35.9979C0 24.9999 8.91569 16.0842 19.9138 16.0842C30.9118 16.0842 39.8275 24.9999 39.8275 35.9979C39.8275 40.7782 38.1431 45.1652 35.3355 48.5976L57.9732 75.7923C62.3356 73.0239 67.5059 71.4214 73.0493 71.4214C74.5521 71.4214 76.0275 71.5392 77.4669 71.7661L92.0577 28.3686C88.5705 25.4182 86.3565 21.0098 86.3565 16.0842C86.3565 7.20113 93.5576 0 102.441 0C111.324 0 118.525 7.20113 118.525 16.0842Z" fill="black"/>
</svg>
