<svg width="185" height="185" viewBox="0 0 185 185" fill="none" xmlns="http://www.w3.org/2000/svg">
<path fill-rule="evenodd" clip-rule="evenodd" d="M92.7264 185C143.688 185 185 143.688 185 92.7267C185 41.7655 143.688 0.453369 92.7264 0.453369C41.7653 0.453369 0.453125 41.7655 0.453125 92.7267C0.453125 143.688 41.7653 185 92.7264 185ZM111.027 49.0015C111.027 59.9269 104.039 69.2261 94.2737 72.7039V54.4827C94.2737 49.8043 90.4673 46.0117 85.7722 46.0117C81.077 46.0117 77.2707 49.8043 77.2707 54.4827V72.7039C67.5056 69.2261 60.5178 59.9269 60.5178 49.0015C60.5178 35.1039 71.8247 23.8377 85.7722 23.8377C99.7197 23.8377 111.027 35.1039 111.027 49.0015ZM82.6219 137.246C82.0921 136.857 81.607 136.411 81.1754 135.916L50.3931 100.586C48.375 98.2699 48.5778 94.7655 50.8497 92.6976C53.0537 90.6914 56.4371 90.7425 58.5795 92.8143L74.5207 108.231C76.4656 110.112 79.7158 108.733 79.7158 106.028V55.0464C79.7158 51.6446 82.4735 48.8868 85.8754 48.8868C89.2773 48.8868 92.035 51.6446 92.035 55.0464V93.236L93.5743 93.4499V83.586C93.5743 80.2975 96.2402 77.6317 99.5286 77.6317C102.817 77.6317 105.483 80.2975 105.483 83.586V95.1047L107.536 95.39V87.0764C107.536 83.7879 110.201 81.1221 113.49 81.1221C116.778 81.1221 119.444 83.7879 119.444 87.0764V97.0448L121.498 97.3301V90.3615C121.498 87.073 124.164 84.4072 127.452 84.4072C130.741 84.4072 133.406 87.073 133.406 90.3615V98.9849L133.407 98.985V133.266C133.407 135.444 132.561 137.537 131.046 139.102L130.134 140.046C128.348 141.892 127.35 144.359 127.35 146.927H136.692V161.916H69.9631V146.927H85.9328L86.0852 146.165C86.7632 142.771 85.4124 139.293 82.6219 137.246Z" fill="black"/>
</svg>
