<svg width="141" height="141" viewBox="0 0 141 141" fill="none" xmlns="http://www.w3.org/2000/svg">
<path d="M0 4.90719C0 2.19703 2.2073 0 4.93007 0H35.4965C38.2193 0 40.4266 2.19703 40.4266 4.90719V35.3318C40.4266 38.042 38.2193 40.239 35.4965 40.239H4.93007C2.2073 40.239 0 38.042 0 35.3318V4.90719Z" fill="black"/>
<path d="M0 55.2877C0 52.5775 2.2073 50.3805 4.93007 50.3805H35.4965C38.2193 50.3805 40.4266 52.5775 40.4266 55.2877V85.7123C40.4266 88.4225 38.2193 90.6195 35.4965 90.6195H4.93007C2.2073 90.6195 0 88.4225 0 85.7123V55.2877Z" fill="black"/>
<path d="M4.93007 100.761C2.2073 100.761 0 102.958 0 105.668V136.093C0 138.803 2.2073 141 4.93007 141H35.4965C38.2193 141 40.4266 138.803 40.4266 136.093V105.668C40.4266 102.958 38.2193 100.761 35.4965 100.761H4.93007Z" fill="black"/>
<path d="M50.2867 4.90719C50.2867 2.19703 52.494 0 55.2168 0H85.7832C88.506 0 90.7133 2.19703 90.7133 4.90719V35.3318C90.7133 38.042 88.506 40.239 85.7832 40.239H55.2168C52.494 40.239 50.2867 38.042 50.2867 35.3318V4.90719Z" fill="black"/>
<path d="M55.2168 50.3805C52.494 50.3805 50.2867 52.5775 50.2867 55.2877V85.7123C50.2867 88.4225 52.494 90.6195 55.2168 90.6195H85.7832C88.506 90.6195 90.7133 88.4225 90.7133 85.7123V55.2877C90.7133 52.5775 88.506 50.3805 85.7832 50.3805H55.2168Z" fill="black"/>
<path d="M50.2867 105.668C50.2867 102.958 52.494 100.761 55.2168 100.761H85.7832C88.506 100.761 90.7133 102.958 90.7133 105.668V136.093C90.7133 138.803 88.506 141 85.7832 141H55.2168C52.494 141 50.2867 138.803 50.2867 136.093V105.668Z" fill="black"/>
<path d="M105.503 0C102.781 0 100.573 2.19703 100.573 4.90719V35.3318C100.573 38.042 102.781 40.239 105.503 40.239H136.07C138.793 40.239 141 38.042 141 35.3318V4.90719C141 2.19703 138.793 0 136.07 0H105.503Z" fill="black"/>
<path d="M100.573 55.2877C100.573 52.5775 102.781 50.3805 105.503 50.3805H136.07C138.793 50.3805 141 52.5775 141 55.2877V85.7123C141 88.4225 138.793 90.6195 136.07 90.6195H105.503C102.781 90.6195 100.573 88.4225 100.573 85.7123V55.2877Z" fill="black"/>
<path d="M105.503 100.761C102.781 100.761 100.573 102.958 100.573 105.668V136.093C100.573 138.803 102.781 141 105.503 141H136.07C138.793 141 141 138.803 141 136.093V105.668C141 102.958 138.793 100.761 136.07 100.761H105.503Z" fill="black"/>
</svg>
