<svg width="145" height="157" viewBox="0 0 145 157" fill="none" xmlns="http://www.w3.org/2000/svg">
<path fill-rule="evenodd" clip-rule="evenodd" d="M9 0C4.02944 0 0 4.02944 0 9V147.599C0 152.57 4.02943 156.599 8.99999 156.599H73.3229C78.2934 156.599 82.3229 152.57 82.3229 147.599V136.723H0.000330463V134.916H82.3229V86.1931L104.295 98.8788C100.678 108.247 104.317 119.113 113.287 124.292C123.209 130.021 135.896 126.621 141.624 116.699C147.352 106.778 143.953 94.0906 134.031 88.3623C124.979 83.1361 113.626 85.5075 107.355 93.4979L82.3229 79.0458V63.0767L107.554 48.5098C113.847 56.3871 125.12 58.7 134.119 53.5046C144.04 47.7763 147.44 35.0894 141.712 25.1676C135.983 15.2458 123.296 11.8464 113.375 17.5747C104.351 22.7843 100.722 33.7493 104.448 43.1555L82.3229 55.9295V22.8874H0.000330463V21.0805H82.3229V9C82.3229 4.02944 78.2935 0 73.3229 0H9ZM12.7603 70.8085C12.7603 55.1601 25.4739 42.4708 41.1614 42.4708C56.8488 42.4708 69.5624 55.1601 69.5624 70.8085C69.5624 76.6465 67.7941 82.0695 64.7629 86.5771C63.9079 87.8484 63.1231 89.2268 62.59 90.7316H61.771H42.1614V75.8329C45.6374 75.3475 48.3151 72.3682 48.3151 68.7617C48.3151 64.8161 45.1102 61.6213 41.1614 61.6213C37.2125 61.6213 34.0077 64.8161 34.0077 68.7617C34.0077 72.3682 36.6853 75.3475 40.1614 75.8329V90.7316H20.5517H19.7327C19.1996 89.2268 18.4148 87.8484 17.5598 86.5771C14.5286 82.0695 12.7603 76.6465 12.7603 70.8085ZM66.4225 87.6932C65.7592 88.6795 65.1747 89.6859 64.7343 90.7316H64.8645C65.2463 90.7316 65.5948 90.949 65.7627 91.292L70.5489 101.071C70.7006 101.381 70.6818 101.747 70.4991 102.04C70.3165 102.333 69.9958 102.511 69.6507 102.511H64.4157L64.4155 102.511C64.2344 102.909 63.9596 103.468 63.5776 104.136C62.8142 105.47 61.6178 107.245 59.8786 109.02C56.3851 112.586 50.7217 116.129 42.0897 116.129C33.4577 116.129 27.7942 112.586 24.3008 109.02C22.5615 107.245 21.3651 105.47 20.6018 104.136C20.2197 103.468 19.9449 102.909 19.7639 102.511L19.7636 102.511H13.1278C12.7895 102.511 12.4742 102.34 12.2897 102.056C12.1052 101.773 12.0765 101.415 12.2135 101.106L16.5438 91.3267C16.704 90.9649 17.0625 90.7316 17.4582 90.7316H17.5884C17.1481 89.6859 16.5635 88.6795 15.9002 87.6932C12.6542 82.8662 10.7603 77.0566 10.7603 70.8085C10.7603 54.0514 24.3734 40.4708 41.1614 40.4708C57.9493 40.4708 71.5624 54.0514 71.5624 70.8085C71.5624 77.0566 69.6685 82.8662 66.4225 87.6932ZM14.6643 100.511L18.109 92.7316H19.005H20.5517H41.1614H61.771H63.3177H64.2406L68.0479 100.511H14.6643ZM36.0077 68.7617C36.0077 65.9248 38.313 63.6213 41.1614 63.6213C44.0097 63.6213 46.3151 65.9248 46.3151 68.7617C46.3151 71.5987 44.0097 73.9022 41.1614 73.9022C38.313 73.9022 36.0077 71.5987 36.0077 68.7617ZM21.9915 102.512C22.0935 102.706 22.2086 102.917 22.3377 103.143C23.0353 104.362 24.1335 105.991 25.7294 107.62C28.9062 110.863 34.0747 114.129 42.0897 114.129C50.1047 114.129 55.2732 110.863 58.4499 107.62C60.0458 105.991 61.1441 104.362 61.8416 103.143C61.9707 102.917 62.0859 102.706 62.1878 102.512H21.9915ZM133.698 106.463C133.698 112.253 129.021 116.951 123.238 116.985H123.113C117.33 116.951 112.653 112.253 112.653 106.463C112.653 100.651 117.364 95.9404 123.176 95.9404C128.987 95.9404 133.698 100.651 133.698 106.463ZM114.51 125.745C120.78 128.708 127.884 128.371 133.698 125.302V147.934L124.413 139.578L114.51 147.934V125.745ZM132.698 106.463C132.698 111.722 128.435 115.985 123.176 115.985C117.917 115.985 113.653 111.722 113.653 106.463C113.653 101.204 117.917 96.9404 123.176 96.9404C128.435 96.9404 132.698 101.204 132.698 106.463ZM122.866 48.8978C122.659 48.8978 122.484 48.8256 122.34 48.6812C122.216 48.5574 122.154 48.3923 122.154 48.186V46.0196C120.71 45.8958 119.461 45.5657 118.409 45.0293C117.357 44.4722 116.552 43.7913 115.995 42.9867C115.459 42.1614 115.17 41.2845 115.129 40.356C115.129 40.191 115.191 40.0466 115.314 39.9228C115.459 39.7783 115.624 39.7061 115.809 39.7061H117.419C117.79 39.7061 118.048 39.9124 118.193 40.3251C118.399 41.1916 118.935 41.9344 119.802 42.5534C120.668 43.1723 121.896 43.4818 123.485 43.4818C125.197 43.4818 126.487 43.1827 127.353 42.5843C128.22 41.9654 128.653 41.1091 128.653 40.0156C128.653 39.3141 128.436 38.7467 128.003 38.3134C127.591 37.8802 126.972 37.4985 126.146 37.1683C125.321 36.8382 124.083 36.4256 122.432 35.9304C120.823 35.4765 119.544 34.9916 118.595 34.4758C117.646 33.96 116.934 33.3204 116.459 32.557C115.985 31.7936 115.748 30.8342 115.748 29.6788C115.748 28.152 116.315 26.8625 117.45 25.8103C118.585 24.7374 120.153 24.0978 122.154 23.8915V21.756C122.154 21.5497 122.216 21.3846 122.34 21.2608C122.484 21.1164 122.659 21.0442 122.866 21.0442H124.042C124.248 21.0442 124.413 21.1164 124.537 21.2608C124.681 21.3846 124.754 21.5497 124.754 21.756V23.9224C126.074 24.0875 127.199 24.4588 128.127 25.0366C129.076 25.6143 129.788 26.2951 130.262 27.0791C130.758 27.8632 131.026 28.6472 131.067 29.4312C131.067 29.5963 131.005 29.7407 130.881 29.8645C130.778 29.9883 130.623 30.0502 130.417 30.0502H128.777C128.344 30.0502 128.075 29.8542 127.972 29.4622C127.848 28.5956 127.364 27.8838 126.518 27.3267C125.672 26.749 124.609 26.4602 123.33 26.4602C121.927 26.4602 120.823 26.7284 120.018 27.2648C119.214 27.8013 118.811 28.5956 118.811 29.6479C118.811 30.3494 118.997 30.9271 119.369 31.381C119.761 31.8349 120.349 32.2372 121.133 32.588C121.917 32.9181 123.062 33.2998 124.568 33.7331C126.322 34.2076 127.704 34.7028 128.715 35.2186C129.726 35.7138 130.479 36.3431 130.974 37.1064C131.469 37.8492 131.717 38.7983 131.717 39.9537C131.717 41.7075 131.098 43.1208 129.86 44.1936C128.622 45.2459 126.92 45.8649 124.754 46.0506V48.186C124.754 48.3923 124.681 48.5574 124.537 48.6812C124.413 48.8256 124.248 48.8978 124.042 48.8978H122.866Z" fill="black"/>
</svg>
