<svg width="184" height="161" viewBox="0 0 184 161" fill="none" xmlns="http://www.w3.org/2000/svg">
<path fill-rule="evenodd" clip-rule="evenodd" d="M179.151 61.1472C184.724 66.7201 184.724 75.7557 179.151 81.3286C173.578 86.9015 164.543 86.9015 158.97 81.3286L102.881 25.24C97.3082 19.6671 97.3081 10.6315 102.881 5.05859C108.454 -0.514352 117.49 -0.514348 123.062 5.05859L179.151 61.1472ZM61.2074 4.7965C66.7803 -0.77644 75.8159 -0.776445 81.3888 4.7965C86.9618 10.3694 86.9618 19.405 81.3888 24.9779L25.3002 81.0665C19.7273 86.6394 10.6918 86.6394 5.11882 81.0665C-0.454125 75.4936 -0.454121 66.458 5.11882 60.8851L61.2074 4.7965ZM157.79 81.7217L106.681 30.613L102.226 35.0686L153.334 86.1774L157.79 81.7217ZM154.382 112.912L109.564 68.0932L109.564 68.0933L103.535 62.065L80.8642 84.7363C79.2916 86.3089 75.6222 86.571 74.1807 85.1294L77.3259 88.2746L98.821 109.77C100.175 111.13 100.861 111.879 100.866 112.633C100.871 113.441 100.094 114.255 98.5197 115.831L94.0703 120.28C92.5171 121.834 91.8464 123.935 92.0581 125.962L90.955 127.065L99.3 135.41C100.682 136.8 101.374 137.567 101.374 138.335C101.374 139.186 100.522 140.038 98.8183 141.742L102.225 138.335L102.225 138.335L101.701 138.859L101.701 138.859L89.1208 151.44L93.0522 155.371C96.5262 158.845 102.159 158.845 105.633 155.371C109.107 151.897 109.107 146.265 105.633 142.791L104.846 142.004L105.37 141.48L115.592 151.702C119.066 155.176 124.699 155.176 128.173 151.702C131.647 148.228 131.647 142.595 128.173 139.121L117.951 128.9L118.213 128.637L118.213 128.637L118.475 128.375L128.698 138.597C132.172 142.071 137.804 142.071 141.278 138.597C144.752 135.123 144.752 129.49 141.278 126.016L131.056 115.794L131.58 115.27L141.802 125.492C145.276 128.966 150.908 128.966 154.382 125.492C157.856 122.018 157.856 116.386 154.382 112.912ZM69.4635 157.468C65.9894 153.994 65.9894 148.361 69.4635 144.887L82.3062 132.045C85.7802 128.571 91.4128 128.571 94.8868 132.045C98.3609 135.519 98.3608 141.151 94.8868 144.625L82.0441 157.468C78.57 160.942 72.9375 160.942 69.4635 157.468ZM56.3586 131.783C52.8845 135.257 52.8845 140.889 56.3586 144.363C59.8326 147.837 65.4651 147.837 68.9392 144.363L94.3625 118.94C97.8366 115.466 97.8366 109.833 94.3625 106.359C90.8885 102.885 85.2559 102.885 81.7819 106.359L56.3586 131.783ZM43.2541 131.258C39.7801 127.784 39.7801 122.152 43.2541 118.678L68.6775 93.2544C72.1515 89.7804 77.784 89.7804 81.2581 93.2544C84.7321 96.7285 84.7321 102.361 81.2581 105.835L55.8347 131.258C52.3607 134.732 46.7282 134.732 43.2541 131.258ZM30.1492 105.573C26.6752 109.047 26.6752 114.68 30.1492 118.154C33.6233 121.628 39.2558 121.628 42.7298 118.154L68.1532 92.7302C71.6272 89.2562 71.6272 83.6237 68.1532 80.1496C64.6791 76.6756 59.0466 76.6756 55.5726 80.1496L30.1492 105.573ZM103.536 37.9522C97.4562 31.8726 87.5993 31.8726 81.5197 37.9522L81.5197 37.9521L70.7197 48.7522C61.6302 57.8417 61.6302 72.5786 70.7197 81.6681C74.0788 85.0273 79.5251 85.0273 82.8843 81.6681L104.06 60.4924L145.209 101.642L156.217 90.6335L103.536 37.9522ZM81.258 26.6815L86.2378 31.6614L60.2904 57.6088C56.6716 61.2275 56.6717 67.0948 60.2904 70.7136C61.159 71.5821 61.159 72.9902 60.2904 73.8587L37.4881 96.6611L24.3831 83.5564L81.258 26.6815Z" fill="black"/>
</svg>
