<svg width="177" height="113" viewBox="0 0 177 113" fill="none" xmlns="http://www.w3.org/2000/svg">
<path fill-rule="evenodd" clip-rule="evenodd" d="M88.3787 61.2167C105.049 61.2167 118.562 47.7031 118.562 31.0332C118.562 14.3633 105.049 0.849701 88.3787 0.849701C71.7089 0.849701 58.1953 14.3633 58.1953 31.0332C58.1953 47.7031 71.7089 61.2167 88.3787 61.2167ZM115.093 31.0332C115.093 45.787 103.132 57.7473 88.3787 57.7473C73.6249 57.7473 61.6646 45.787 61.6646 31.0332C61.6646 16.2794 73.6249 4.31907 88.3787 4.31907C103.132 4.31907 115.093 16.2794 115.093 31.0332ZM113.01 31.0332C113.01 44.6373 101.982 55.6657 88.378 55.6657C74.7738 55.6657 63.7455 44.6373 63.7455 31.0332C63.7455 17.429 74.7738 6.40069 88.378 6.40069C101.982 6.40069 113.01 17.429 113.01 31.0332ZM91.6207 13.7384V16.6527C94.315 17.2193 96.4705 18.2987 98.0871 19.8907C99.7306 21.4828 100.552 23.0748 100.552 24.6669C100.552 24.9097 100.458 25.1256 100.269 25.3145C100.108 25.4764 99.9192 25.5574 99.7037 25.5574H91.6207C91.001 25.5574 90.4352 25.328 89.9233 24.8693C89.4114 24.4105 88.7243 24.1812 87.8622 24.1812C86.5689 24.1812 85.9222 24.559 85.9222 25.3145C85.9222 25.7193 86.2321 26.0566 86.8518 26.3264C87.4984 26.5962 88.6839 26.8391 90.4083 27.055C94.4228 27.5677 97.2788 28.5121 98.9762 29.8883C100.701 31.2375 101.563 33.1803 101.563 35.7168C101.563 38.2533 100.647 40.3446 98.8145 41.9906C97.0093 43.6096 94.6114 44.662 91.6207 45.1477V47.981C91.6207 48.2779 91.5129 48.5342 91.2974 48.7501C91.0818 48.9659 90.8259 49.0739 90.5295 49.0739H85.6393C85.343 49.0739 85.087 48.9659 84.8715 48.7501C84.6559 48.5342 84.5481 48.2779 84.5481 47.981V45.1882C81.4227 44.7295 79.0248 43.7311 77.3543 42.193C75.6839 40.6279 74.8486 38.8335 74.8486 36.8097C74.8486 36.5668 74.9294 36.3644 75.0911 36.2025C75.2797 36.0136 75.4953 35.9192 75.7377 35.9192H83.4165C83.9823 35.9192 84.602 36.189 85.2756 36.7287C85.9761 37.2684 86.9326 37.5382 88.145 37.5382C90.1658 37.5382 91.1762 37.1605 91.1762 36.4049C91.1762 35.9192 90.8124 35.5549 90.085 35.3121C89.3575 35.0422 87.9834 34.7724 85.9627 34.5025C79.0113 33.5851 75.5357 30.6169 75.5357 25.5978C75.5357 23.3042 76.344 21.3479 77.9605 19.7288C79.6041 18.1098 81.7999 17.0574 84.5481 16.5717V13.7384C84.5481 13.4416 84.6559 13.1852 84.8715 12.9693C85.087 12.7535 85.343 12.6455 85.6393 12.6455H90.5295C90.8259 12.6455 91.0818 12.7535 91.2974 12.9693C91.5129 13.1852 91.6207 13.4416 91.6207 13.7384ZM12.4297 9.36298C5.80227 9.36298 0.429688 14.7356 0.429688 21.363V21.4986V24.4986V24.8098V27.8098V33.6342V36.6342V36.9454V39.9454V45.7698V48.7698V49.081V52.081V57.9055V60.9055V61.2166V64.2166V70.0411V73.0411V73.3523V76.3523V82.1767V85.1767V85.4879V88.4879V94.3124V97.3124V97.6235V100.624V100.759C0.429688 107.387 5.80227 112.759 12.4297 112.759H42.3498C48.9773 112.759 54.3498 107.387 54.3498 100.759V100.624V97.6235V97.3124V94.3124V88.4879V85.4879V85.1767V82.1767V76.3523V73.3523V73.0411V70.0411V64.2166V61.2166V60.9055V57.9055V52.081V49.081V48.7698V45.7698V39.9454V36.9454V36.6342V33.6342V27.8098V24.8098V24.4986V21.4986V21.363C54.3498 14.7356 48.9773 9.36298 42.3498 9.36298H12.4297ZM48.3498 21.4986V21.363C48.3498 18.0493 45.6636 15.363 42.3498 15.363H12.4297C9.11598 15.363 6.42969 18.0493 6.42969 21.363V21.4986H48.3498ZM6.42969 27.8098H48.3498V33.6342H6.42969V27.8098ZM48.3498 39.9454H6.42969V45.7698H48.3498V39.9454ZM6.42969 52.081H48.3498V57.9055H6.42969V52.081ZM48.3498 64.2166H6.42969V70.0411H48.3498V64.2166ZM6.42969 76.3523H48.3498V82.1767H6.42969V76.3523ZM48.3498 88.4879H6.42969V94.3124H48.3498V88.4879ZM6.42969 100.624H48.3498V100.759C48.3498 104.073 45.6636 106.759 42.3498 106.759H12.4297C9.11598 106.759 6.42969 104.073 6.42969 100.759V100.624ZM134.408 82.1768C127.78 82.1768 122.408 87.5493 122.408 94.1768V94.3124V97.3124V97.6236V100.624V100.759C122.408 107.387 127.78 112.759 134.408 112.759H164.328C170.955 112.759 176.328 107.387 176.328 100.759V100.624V97.6236V97.3124V94.3124V94.1768C176.328 87.5493 170.955 82.1768 164.328 82.1768H134.408ZM170.328 94.3124V94.1768C170.328 90.8631 167.642 88.1768 164.328 88.1768H134.408C131.094 88.1768 128.408 90.8631 128.408 94.1768V94.3124H170.328ZM128.408 100.624H170.328V100.759C170.328 104.073 167.642 106.759 164.328 106.759H134.408C131.094 106.759 128.408 104.073 128.408 100.759V100.624ZM61.4195 82.0411C61.4195 75.4137 66.7921 70.0411 73.4195 70.0411H103.34C109.967 70.0411 115.34 75.4137 115.34 82.0411V82.1767V85.1767V85.4879V88.4879V94.3124V97.3124V97.6235V100.624V100.759C115.34 107.387 109.967 112.759 103.34 112.759H73.4195C66.7921 112.759 61.4195 107.387 61.4195 100.759V100.624V97.6235V97.3124V94.3124V88.4879V85.4879V85.1767V82.1767V82.0411ZM109.34 82.0411V82.1767H67.4195V82.0411C67.4195 78.7274 70.1058 76.0411 73.4195 76.0411H103.34C106.653 76.0411 109.34 78.7274 109.34 82.0411ZM109.34 88.4879H67.4195V94.3124H109.34V88.4879ZM67.4195 100.624H109.34V100.759C109.34 104.073 106.653 106.759 103.34 106.759H73.4195C70.1058 106.759 67.4195 104.073 67.4195 100.759V100.624ZM160.201 47.5766H161.078C166.057 47.5766 168.87 41.8614 165.832 37.9161L154.064 22.6336C151.663 19.5144 146.958 19.5144 144.556 22.6336L132.789 37.9161C129.751 41.8614 132.564 47.5766 137.543 47.5766H138.108V67.7149C138.108 71.0286 140.795 73.7149 144.108 73.7149H154.201C157.515 73.7149 160.201 71.0286 160.201 67.7149V47.5766Z" fill="black"/>
</svg>
