<svg width="193" height="192" viewBox="0 0 193 192" fill="none" xmlns="http://www.w3.org/2000/svg">
<path d="M110.585 177.988C110.585 171.29 105.86 165.689 99.5454 164.305V147.503H93.4546V164.305C87.1397 165.689 82.4152 171.29 82.4152 177.988C82.4152 185.727 88.7212 192 96.5 192C104.279 192 110.585 185.727 110.585 177.988Z" fill="black"/>
<path d="M77.7312 134.399L64.8069 156.668C69.5802 161.009 70.8568 168.209 67.4902 174.01C63.6006 180.712 54.9868 183.008 48.25 179.138C41.5132 175.269 39.205 166.7 43.0946 159.998C46.4611 154.197 53.3675 151.697 59.5322 153.639L68.3609 138.426C69.6218 138.41 70.8776 137.924 71.8397 136.967L75.5653 133.26C76.275 133.66 76.9973 134.039 77.7312 134.399Z" fill="black"/>
<path d="M115.361 134.557L128.193 156.668C123.42 161.009 122.143 168.209 125.51 174.01C129.399 180.712 138.013 183.008 144.75 179.138C151.487 175.269 153.795 166.7 149.905 159.998C146.539 154.197 139.633 151.697 133.467 153.639L124.76 138.634C123.458 138.649 122.153 138.162 121.16 137.174L117.45 133.484C116.765 133.86 116.068 134.218 115.361 134.557Z" fill="black"/>
<path d="M139.16 124L154.439 132.776C152.487 138.909 155 145.78 160.831 149.129C167.568 152.998 176.182 150.702 180.072 144C183.961 137.298 181.653 128.729 174.916 124.859C169.085 121.51 161.847 122.78 157.485 127.529L135.349 114.815C134.958 115.607 134.544 116.385 134.106 117.148L137.698 120.722C138.614 121.632 139.101 122.808 139.16 124Z" fill="black"/>
<path d="M148.081 99.0296H165.16C166.552 105.312 172.182 110.012 178.915 110.012C186.694 110.012 193 103.739 193 96C193 88.2615 186.694 81.9882 178.915 81.9882C172.182 81.9882 166.552 86.6883 165.16 92.9704H148.081V99.0296Z" fill="black"/>
<path d="M135.363 77.177L157.485 64.4713C161.847 69.2195 169.085 70.4896 174.916 67.1405C181.653 63.2713 183.961 54.7018 180.072 48C176.182 41.2982 167.568 39.002 160.831 42.8713C155 46.2204 152.487 53.0911 154.439 59.2239L139.166 67.9963C139.148 69.2481 138.659 70.4943 137.699 71.4494L134.182 74.9477C134.597 75.6777 134.991 76.4211 135.363 77.177Z" fill="black"/>
<path d="M124.66 53.5365L133.467 38.3612C139.633 40.3031 146.539 37.8029 149.905 32.0021C153.795 25.3003 151.487 16.7308 144.75 12.8615C138.013 8.9923 129.399 11.2885 125.51 17.9902C122.143 23.7911 123.42 30.9914 128.193 35.3316L115.377 57.4142C116.125 57.7733 116.861 58.1532 117.584 58.5533L121.16 54.9966C122.128 54.0341 123.392 53.5474 124.66 53.5365Z" fill="black"/>
<path d="M99.5454 44.8757V27.6953C105.86 26.3107 110.585 20.7101 110.585 14.0118C110.585 6.2733 104.279 0 96.5 0C88.7212 0 82.4152 6.2733 82.4152 14.0118C82.4152 20.7101 87.1397 26.3107 93.4546 27.6953V44.8757H99.5454Z" fill="black"/>
<path d="M77.7148 57.5722L64.8073 35.3316C69.5802 30.9914 70.8568 23.7911 67.4902 17.9902C63.6006 11.2885 54.9868 8.99228 48.25 12.8615C41.5132 16.7308 39.2054 25.3003 43.0946 32.0021C46.4611 37.8029 53.3675 40.3031 59.5326 38.3612L68.4616 53.7467C69.6884 53.7869 70.9032 54.2728 71.8397 55.2044L75.4319 58.778C76.1791 58.3542 76.9404 57.9519 77.7148 57.5722Z" fill="black"/>
<path d="M53.8352 67.9967L38.5611 59.2239C40.5132 53.0911 37.9998 46.2204 32.1689 42.8713C25.4321 39.002 16.8179 41.2982 12.9287 48C9.03944 54.7017 11.3473 63.2712 18.0841 67.1405C23.915 70.4896 31.1529 69.2195 35.5157 64.4713L57.9627 77.364C58.2946 76.6816 58.6445 76.0093 59.011 75.3477L55.3013 71.6571C54.2883 70.6492 53.7995 69.3173 53.8352 67.9967Z" fill="black"/>
<path d="M44.9191 92.9704H27.8395C26.4477 86.6883 20.8179 81.9882 14.0848 81.9882C6.30597 81.9882 0 88.2615 0 96C0 103.739 6.30597 110.012 14.0848 110.012C20.8179 110.012 26.4477 105.312 27.8395 99.0296H44.9191V92.9704Z" fill="black"/>
<path d="M57.9768 114.628L35.5157 127.529C31.1529 122.781 23.915 121.51 18.0841 124.859C11.3473 128.729 9.03944 137.298 12.9287 144C16.8179 150.702 25.4321 152.998 32.1689 149.129C37.9998 145.78 40.5132 138.909 38.5611 132.776L53.8337 124.004C53.8426 122.74 54.3318 121.478 55.3013 120.514L59.0857 116.749C58.6969 116.054 58.327 115.346 57.9768 114.628Z" fill="black"/>
<path fill-rule="evenodd" clip-rule="evenodd" d="M85.6687 139.098C85.6687 141.648 87.7472 143.716 90.3108 143.716H102.689C105.253 143.716 107.331 141.648 107.331 139.098V134.206C110.348 133.377 113.221 132.204 115.904 130.732L119.34 134.15C121.153 135.953 124.092 135.953 125.905 134.15L134.658 125.442C136.47 123.638 136.47 120.715 134.658 118.911L131.331 115.601C132.876 112.905 134.113 110.01 134.992 106.965H139.632C142.196 106.965 144.274 104.897 144.274 102.347V90.0321C144.274 87.4816 142.196 85.4141 139.632 85.4141H135.102C134.229 82.2742 132.979 79.2908 131.401 76.5154L134.658 73.2752C136.47 71.4718 136.47 68.5478 134.658 66.7444L125.905 58.0367C124.092 56.2332 121.153 56.2332 119.34 58.0367L116.028 61.3309C113.309 59.8266 110.394 58.6299 107.331 57.7878V53.2807C107.331 50.7302 105.253 48.6627 102.689 48.6627H90.3108C87.7472 48.6627 85.6687 50.7302 85.6687 53.2807V57.8962C82.6074 58.7712 79.6977 60.0014 76.9869 61.539L73.6598 58.2291C71.8467 56.4256 68.9077 56.4256 67.0947 58.2291L58.3419 66.9368C56.5292 68.7402 56.5292 71.6642 58.3419 73.4676L61.7779 76.8859C60.298 79.5558 59.1192 82.4135 58.2854 85.4141H53.3679C50.8043 85.4141 48.7258 87.4816 48.7258 90.0321V102.347C48.7258 104.897 50.8043 106.965 53.3679 106.965H58.3943C59.2337 109.871 60.3984 112.641 61.8467 115.232L58.3419 118.719C56.5292 120.522 56.5292 123.446 58.3419 125.249L67.0947 133.957C68.9077 135.761 71.8467 135.761 73.6598 133.957L77.1103 130.525C79.7862 132.03 82.6538 133.236 85.6687 134.098V139.098ZM115.648 95.997C115.648 106.411 107.162 114.854 96.6933 114.854C86.2249 114.854 77.7382 106.411 77.7382 95.997C77.7382 85.5827 86.2249 77.1402 96.6933 77.1402C107.162 77.1402 115.648 85.5827 115.648 95.997Z" fill="black"/>
</svg>
