<svg width="181" height="184" viewBox="0 0 181 184" fill="none" xmlns="http://www.w3.org/2000/svg">
<path fill-rule="evenodd" clip-rule="evenodd" d="M53.1275 8.99999C53.1275 4.02943 57.157 0 62.1275 0H115.517C120.488 0 124.517 4.02944 124.517 9V35.1584C124.517 40.129 120.488 44.1584 115.517 44.1584H62.1275C57.157 44.1584 53.1275 40.129 53.1275 35.1584V8.99999ZM61.0908 11.0398C61.0908 10.7637 61.3147 10.5398 61.5908 10.5398H116.421C116.697 10.5398 116.921 10.7637 116.921 11.0398C116.921 11.316 116.697 11.5398 116.421 11.5398H61.5908C61.3147 11.5398 61.0908 11.316 61.0908 11.0398ZM26.4809 107.149C40.6475 107.149 52.1318 95.6652 52.1318 81.4986C52.1318 67.332 40.6475 55.8477 26.4809 55.8477C12.3144 55.8477 0.830078 67.332 0.830078 81.4986C0.830078 95.6652 12.3144 107.149 26.4809 107.149ZM38.1411 81.4991L14.8222 93.1586V69.8396L38.1411 81.4991ZM157.008 107.799C143.072 99.0041 136.565 92.1789 133.305 67.9078C144.826 66.8393 149.955 64.0996 157.008 55.8477C164.061 64.0996 169.19 66.8393 180.711 67.9078C177.451 92.1789 170.944 99.0041 157.008 107.799ZM162.651 77.3209C162.651 79.4804 161.29 81.3289 159.359 82.0921V91.4713H155.409V82.0921C153.479 81.3289 152.117 79.4804 152.117 77.3209C152.117 74.4792 154.475 72.1752 157.384 72.1752C160.293 72.1752 162.651 74.4792 162.651 77.3209ZM58.5617 60.4737L64.1202 67.9941C70.7623 61.826 79.6605 58.0542 89.4396 58.0542C99.2187 58.0542 108.117 61.826 114.759 67.9942L120.318 60.4738C112.104 53.1798 101.289 48.7499 89.4396 48.7499C77.5902 48.7499 66.7756 53.1797 58.5617 60.4737ZM66.2083 70.8191L72.4995 79.3307C76.7417 74.8243 82.762 72.0107 89.4396 72.0107C96.1172 72.0107 102.138 74.8244 106.38 79.3309L112.671 70.8193C106.622 65.0709 98.443 61.5433 89.4396 61.5433C80.4362 61.5433 72.2569 65.0708 66.2083 70.8191ZM104.266 82.1908C100.643 78.0877 95.3434 75.4998 89.4396 75.4998C83.5358 75.4998 78.2362 78.0876 74.6134 82.1907L79.6448 88.9979C81.7129 85.7761 85.3271 83.6411 89.4396 83.6411C93.5521 83.6411 97.1664 85.7761 99.2344 88.9981L104.266 82.1908ZM66.574 96.1091C63.2603 96.1091 60.574 98.7954 60.574 102.109V177.777C60.574 181.09 63.2602 183.777 66.574 183.777H111.72C115.034 183.777 117.72 181.09 117.72 177.777V172.737H60.574V171.438H117.72L117.72 102.109C117.72 98.7954 115.034 96.1091 111.72 96.1091H66.574ZM92.7238 107.096V110.421C95.8021 111.068 98.2648 112.299 100.112 114.116C101.989 115.932 102.928 117.748 102.928 119.565C102.928 119.842 102.821 120.088 102.605 120.304C102.42 120.488 102.205 120.581 101.959 120.581H92.7238C92.0158 120.581 91.3694 120.319 90.7845 119.796C90.1996 119.272 89.4147 119.011 88.4296 119.011C86.952 119.011 86.2133 119.442 86.2133 120.304C86.2133 120.765 86.5673 121.15 87.2753 121.458C88.014 121.766 89.3685 122.043 91.3386 122.289C95.9253 122.874 99.1882 123.952 101.128 125.522C103.098 127.061 104.083 129.278 104.083 132.172C104.083 135.065 103.036 137.451 100.943 139.329C98.8804 141.176 96.1407 142.377 92.7238 142.931V146.164C92.7238 146.502 92.6007 146.795 92.3544 147.041C92.1082 147.287 91.8157 147.411 91.4771 147.411H85.89C85.5514 147.411 85.259 147.287 85.0127 147.041C84.7665 146.795 84.6433 146.502 84.6433 146.164V142.977C81.0725 142.454 78.3328 141.315 76.4243 139.56C74.5157 137.775 73.5615 135.727 73.5615 133.418C73.5615 133.141 73.6538 132.91 73.8385 132.726C74.054 132.51 74.3003 132.402 74.5773 132.402H83.3504C83.9969 132.402 84.7049 132.71 85.4745 133.326C86.2748 133.942 87.3676 134.25 88.7528 134.25C91.0616 134.25 92.2159 133.819 92.2159 132.957C92.2159 132.402 91.8003 131.987 90.9692 131.71C90.1381 131.402 88.5681 131.094 86.2594 130.786C78.3174 129.739 74.3464 126.353 74.3464 120.627C74.3464 118.01 75.2699 115.778 77.1169 113.931C78.9947 112.084 81.5035 110.883 84.6433 110.329V107.096C84.6433 106.758 84.7665 106.465 85.0127 106.219C85.259 105.973 85.5514 105.85 85.89 105.85H91.4771C91.8157 105.85 92.1082 105.973 92.3544 106.219C92.6007 106.465 92.7238 106.758 92.7238 107.096Z" fill="black"/>
</svg>
