<svg width="165" height="137" viewBox="0 0 165 137" fill="none" xmlns="http://www.w3.org/2000/svg">
<path fill-rule="evenodd" clip-rule="evenodd" d="M165 18.3565C165 28.465 156.805 36.6595 146.697 36.6595C142.788 36.6595 139.165 35.4341 136.192 33.3465L93.8265 73.6381C97.022 78.2161 98.8963 83.7848 98.8963 89.7912C98.8963 92.7099 98.4537 95.5251 97.6321 98.1736L120.81 107.706C124.092 102.797 129.686 99.5646 136.035 99.5646C146.144 99.5646 154.338 107.759 154.338 117.868C154.338 127.976 146.144 136.17 136.035 136.17C125.927 136.17 117.732 127.976 117.732 117.868C117.732 116.599 117.861 115.36 118.107 114.164L94.7384 104.552C89.7693 112.647 80.8363 118.045 70.6423 118.045C55.038 118.045 42.3882 105.395 42.3882 89.7912C42.3882 85.4552 43.365 81.3473 45.1105 77.6755L21.9633 61.8835C19.6816 63.8808 16.6937 65.0912 13.4231 65.0912C6.25892 65.0912 0.451172 59.2834 0.451172 52.1192C0.451172 44.955 6.25892 39.1472 13.4231 39.1472C20.5874 39.1472 26.3951 44.955 26.3951 52.1192C26.3951 53.4803 26.1855 54.7924 25.7968 56.025L48.8786 71.7724C54.0611 65.5198 61.8866 61.5372 70.6423 61.5372C77.7169 61.5372 84.1843 64.1374 89.1408 68.4342L131.333 28.3075C129.474 25.443 128.394 22.0258 128.394 18.3565C128.394 8.24811 136.588 0.0536194 146.697 0.0536194C156.805 0.0536194 165 8.24811 165 18.3565Z" fill="black"/>
</svg>
