<svg width="176" height="150" viewBox="0 0 176 150" fill="none" xmlns="http://www.w3.org/2000/svg">
<path fill-rule="evenodd" clip-rule="evenodd" d="M21 0C9.40202 0 0 9.40201 0 21V82.0651C0 93.6631 9.40203 103.065 21 103.065H58.5524C58.6727 102.532 59.0068 102.049 59.5174 101.754C61.3153 100.716 60.5792 97.9674 58.5032 97.9674C57.3825 97.9674 56.474 97.0589 56.474 95.9382V88.3075C56.474 87.1869 57.3824 86.2785 58.5029 86.2785C60.5787 86.2785 61.3148 83.5303 59.5171 82.4924C58.5467 81.9321 58.2141 80.6911 58.7744 79.7207L62.59 73.1119C63.1502 72.1416 64.3909 71.8092 65.3611 72.3694C67.1585 73.4071 69.1699 71.3954 68.1321 69.5979C67.5719 68.6276 67.9043 67.3868 68.8746 66.8266L75.4826 63.0115C76.4535 62.4509 77.6949 62.7836 78.2555 63.7545C79.2939 65.5531 82.0433 64.8161 82.0433 62.7393C82.0433 61.6182 82.9522 60.7093 84.0733 60.7093H91.7032C92.8238 60.7093 93.7321 61.6178 93.7321 62.7383C93.7321 64.8139 96.4799 65.5507 97.5177 63.7532C98.0779 62.7829 99.3187 62.4504 100.289 63.0106L106.898 66.8261C107.868 67.3865 108.201 68.6275 107.64 69.598C106.602 71.3959 108.615 73.4078 110.412 72.3697C111.383 71.8094 112.624 72.1419 113.185 73.1125L117 79.7207C117.56 80.6912 117.228 81.9321 116.257 82.4924C114.459 83.5303 115.196 86.2786 117.272 86.2786C118.393 86.2786 119.301 87.187 119.301 88.3077V95.938C119.301 97.0588 118.393 97.9674 117.272 97.9674C115.196 97.9674 114.459 100.716 116.257 101.754C116.768 102.049 117.102 102.532 117.222 103.065H154.775C166.373 103.065 175.775 93.6631 175.775 82.0651V21C175.775 9.40202 166.373 0 154.775 0H21ZM112.758 111.652C112.123 112.204 111.182 112.321 110.412 111.877C108.614 110.838 106.601 112.851 107.639 114.649C108.2 115.62 107.867 116.861 106.897 117.421L100.288 121.237C99.3179 121.797 98.0773 121.465 97.5172 120.494C96.4796 118.697 93.7321 119.433 93.7321 121.508C93.7321 122.629 92.824 123.537 91.7038 123.537H89.633L96.5285 149.271L104.965 131.663L121.076 142.693L112.758 111.652ZM86.5051 123.537H84.0728C82.9519 123.537 82.0433 122.628 82.0433 121.507C82.0433 119.431 79.2942 118.695 78.2561 120.493C77.6956 121.464 76.4543 121.796 75.4835 121.236L68.8757 117.421C67.9052 116.861 67.5727 115.62 68.133 114.649C69.171 112.851 67.1593 110.839 65.3615 111.877C64.7071 112.255 63.9298 112.227 63.3211 111.871L55.0622 142.694L71.1727 131.663L79.6096 149.271L86.5051 123.537ZM36.1785 15.7063H139.597V33.0019H36.1785V15.7063ZM33.1785 12.7063H36.1785H139.597H142.597V15.7063V33.0019V36.0019H139.597H36.1785H33.1785V33.0019V15.7063V12.7063ZM121.419 49.5026H55.0622V46.5026H121.419V49.5026ZM37.4141 58.6796H139.067V55.6796H37.4141V58.6796ZM91.446 62.8274C92.491 62.8274 93.3381 63.6746 93.3381 64.7196C93.3381 66.6553 95.9007 67.3424 96.8685 65.6661C97.391 64.7612 98.548 64.4512 99.4529 64.9736L105.616 68.5318C106.521 69.0544 106.831 70.2118 106.309 71.1169C105.341 72.7936 107.217 74.6698 108.894 73.7017C109.799 73.1791 110.957 73.4892 111.479 74.3944L115.037 80.5571C115.56 81.4622 115.25 82.6194 114.345 83.1419C112.668 84.1099 113.355 86.6729 115.291 86.6729C116.336 86.6729 117.184 87.5201 117.184 88.5652V95.6811C117.184 96.7263 116.336 97.5737 115.291 97.5737C113.355 97.5737 112.668 100.137 114.344 101.105C115.25 101.628 115.56 102.785 115.037 103.69L111.479 109.852C110.957 110.758 109.799 111.068 108.894 110.545C107.217 109.577 105.34 111.454 106.308 113.131C106.831 114.036 106.52 115.194 105.615 115.716L99.4521 119.274C98.5473 119.797 97.3904 119.487 96.868 118.582C95.9003 116.906 93.3381 117.592 93.3381 119.528C93.3381 120.572 92.4912 121.419 91.4465 121.419H84.3299C83.2847 121.419 82.4373 120.572 82.4373 119.527C82.4373 117.59 79.8736 116.904 78.9054 118.581C78.3827 119.486 77.2251 119.796 76.3197 119.274L70.1574 115.716C69.2523 115.193 68.9422 114.036 69.4648 113.131C70.4328 111.454 68.5567 109.578 66.8801 110.546C65.9751 111.068 64.8178 110.758 64.2952 109.853L60.7372 103.69C60.2146 102.785 60.5248 101.628 61.43 101.105C63.1067 100.137 62.4203 97.5737 60.4842 97.5737C59.4391 97.5737 58.5918 96.7265 58.5918 95.6813V88.565C58.5918 87.52 59.439 86.6729 60.4839 86.6729C62.4198 86.6729 63.1062 84.1099 61.4298 83.142C60.5247 82.6195 60.2146 81.4622 60.7371 80.5571L64.2954 74.3939C64.8179 73.489 65.9749 73.179 66.8798 73.7014C68.556 74.6692 70.4317 72.7931 69.464 71.1168C68.9415 70.2119 69.2515 69.0547 70.1564 68.5323L76.3189 64.9744C77.2243 64.4516 78.3821 64.7619 78.9048 65.6673C79.8732 67.3446 82.4373 66.6573 82.4373 64.7206C82.4373 63.675 83.2849 62.8274 84.3305 62.8274H91.446ZM87.206 75.3407C96.4747 75.3407 103.988 82.8544 103.988 92.1232H104.488C104.488 82.5783 96.7508 74.8407 87.206 74.8407V75.3407ZM87.206 111.381C97.8418 111.381 106.464 102.759 106.464 92.1232C106.464 81.4875 97.8418 72.8655 87.206 72.8655C76.5703 72.8655 67.9483 81.4875 67.9483 92.1232C67.9483 102.759 76.5703 111.381 87.206 111.381ZM87.206 111.881C98.1179 111.881 106.964 103.035 106.964 92.1232C106.964 81.2114 98.1179 72.3655 87.206 72.3655C76.2941 72.3655 67.4483 81.2114 67.4483 92.1232C67.4483 103.035 76.2941 111.881 87.206 111.881Z" fill="black"/>
</svg>
