<svg width="156" height="154" viewBox="0 0 156 154" fill="none" xmlns="http://www.w3.org/2000/svg">
<path fill-rule="evenodd" clip-rule="evenodd" d="M150.15 0.666016L105.781 13.5013L119.547 26.7328L94.4852 52.8077L58.0129 27.1995C56.4189 26.0803 54.2505 26.2719 52.8775 27.6532C45.1681 35.4091 33.5475 47.1272 23.7411 57.0753C18.8388 62.0484 14.3847 66.5845 11.098 69.9634C9.45596 71.6515 8.09659 73.0598 7.11558 74.0926C6.62673 74.6073 6.21906 75.0422 5.91271 75.3777L5.88521 75.4078C5.68262 75.6294 5.2822 76.0675 5.02906 76.4472C3.80365 78.2853 4.30034 80.7688 6.13846 81.9942C7.91472 83.1784 10.2936 82.7544 11.5575 81.0659C11.5599 81.0635 11.5669 81.0555 11.5794 81.0412C11.6134 81.0024 11.6879 80.9172 11.8206 80.7719C12.0746 80.4937 12.4405 80.1028 12.9161 79.6021C13.8641 78.604 15.1973 77.2227 16.8325 75.5415C20.1004 72.1819 24.5396 67.661 29.4384 62.6914C38.2728 53.7294 48.5846 43.3258 56.1753 35.6843L92.6944 61.3254C94.3092 62.4592 96.5096 62.2461 97.8768 60.8236L125.315 32.2766L139.081 45.5081L150.15 0.666016ZM120.343 51.0878H156V153.602H120.343V51.0878ZM40.1145 76.1588H75.7717V153.602H40.1145V76.1588ZM0 101.231H35.6571V153.602H0V101.231ZM115.885 92.8733H80.2282V153.602H115.885V92.8733Z" fill="black"/>
</svg>
