<svg width="135" height="182" viewBox="0 0 135 182" fill="none" xmlns="http://www.w3.org/2000/svg">
<path d="M0 44.6792V51.3582H23.3443C14.1483 50.9127 7.98337 49.021 0 44.6792Z" fill="black"/>
<path d="M67.5 51.3582V38.2673C57.612 46.9788 50.0482 49.6546 33.75 51.3582H67.5Z" fill="black"/>
<path d="M67.5 38.2673V51.3582H101.25C86.4935 49.6686 78.6635 47.7544 67.5 38.2673Z" fill="black"/>
<path d="M101.25 51.3582H135V44.6792C125.011 49.4665 117.26 50.6811 101.25 51.3582Z" fill="black"/>
<path fill-rule="evenodd" clip-rule="evenodd" d="M23.3443 51.3582H0C0 162.88 67.5 182 67.5 182C67.5 182 135 162.88 135 51.3582H101.25H67.5H33.75H23.3443ZM35.6295 108.158L61.6162 140.794L101.25 83.4343L97.4092 81.6212L61.6162 127.113L39.3886 105.191L35.6295 108.158Z" fill="black"/>
</svg>
