<svg width="164" height="176" viewBox="0 0 164 176" fill="none" xmlns="http://www.w3.org/2000/svg">
<path d="M0.778269 111.77L64.4934 175.485C64.0509 174.839 63.6225 174.205 63.2081 173.585C61.5594 171.116 60.1298 168.846 58.8983 166.705L15.2134 123.02C6.28993 116.943 0.778269 111.77 0.778269 111.77Z" fill="black"/>
<path fill-rule="evenodd" clip-rule="evenodd" d="M116.43 16.8321C116.348 16.7504 116.303 16.6564 116.295 16.5503C116.303 16.4442 116.348 16.3504 116.43 16.2689L124.416 8.28199C124.506 8.19229 124.6 8.14749 124.698 8.14759C124.812 8.14771 124.91 8.18863 124.992 8.27034L125.556 8.83417C125.703 8.98125 125.748 9.14047 125.691 9.31182L123.522 19.619L129.638 13.5035C129.728 13.4138 129.821 13.369 129.919 13.3691C130.034 13.3692 130.132 13.4101 130.213 13.4918L130.802 14.0801C130.892 14.17 130.932 14.268 130.924 14.3741C130.933 14.4803 130.892 14.5782 130.802 14.6679L122.828 22.6425C122.746 22.724 122.648 22.7647 122.534 22.7646C122.428 22.7727 122.334 22.7358 122.252 22.6541L121.664 22.0658C121.541 21.9432 121.5 21.7881 121.541 21.6004L123.661 11.3667L117.594 17.4333C117.512 17.5148 117.415 17.5555 117.3 17.5554C117.194 17.5471 117.1 17.5021 117.018 17.4204L116.43 16.8321ZM124.953 25.3545C124.871 25.2728 124.826 25.1788 124.818 25.0727C124.826 24.9666 124.87 24.8728 124.952 24.7913L132.939 16.8044C133.029 16.7147 133.122 16.6699 133.22 16.67C133.335 16.6701 133.433 16.711 133.514 16.7928L138.515 21.7936C138.605 21.8835 138.646 21.9815 138.638 22.0876C138.646 22.1937 138.605 22.2916 138.516 22.3813L138.027 22.8706C137.945 22.9521 137.847 22.9928 137.733 22.9927C137.635 22.9926 137.541 22.9476 137.451 22.8577L133.357 18.7639L130.507 21.6137L134.356 25.4624C134.446 25.5523 134.487 25.6503 134.479 25.7564C134.487 25.8625 134.446 25.9604 134.357 26.0501L133.867 26.5393C133.786 26.6209 133.688 26.6616 133.574 26.6615C133.468 26.6532 133.374 26.6082 133.292 26.5265L129.443 22.6778L126.141 25.9802C126.059 26.0617 125.961 26.1024 125.847 26.1023C125.741 26.094 125.647 26.049 125.565 25.9673L124.953 25.3545ZM133.851 34.1059C133.859 34.212 133.904 34.306 133.986 34.3877L134.623 35.025C134.705 35.1068 134.799 35.1517 134.905 35.16C135.019 35.1601 135.117 35.1194 135.199 35.0379L142.39 27.846L144.732 30.1871C144.813 30.2688 144.907 30.3138 145.013 30.3221C145.128 30.3222 145.225 30.2815 145.307 30.2L145.821 29.6863C145.91 29.5966 145.951 29.4987 145.943 29.3926C145.951 29.2864 145.91 29.1884 145.82 29.0986L139.912 23.1907C139.831 23.109 139.733 23.0681 139.618 23.0679C139.512 23.076 139.418 23.1208 139.337 23.2023L138.823 23.716C138.742 23.7976 138.697 23.8914 138.689 23.9975C138.697 24.1036 138.742 24.1976 138.824 24.2793L141.177 26.6326L133.985 33.8245C133.904 33.906 133.859 33.9998 133.851 34.1059Z" fill="black"/>
<path fill-rule="evenodd" clip-rule="evenodd" d="M131.772 62.9797C131.773 63.1745 131.843 63.3416 131.983 63.4813L132.779 64.2771C132.918 64.4167 133.078 64.4799 133.259 64.4666C133.44 64.4812 133.6 64.4192 133.738 64.2806L135.173 62.8463C136.763 64.1876 138.331 64.9236 139.875 65.0546C141.434 65.1716 142.802 64.6412 143.98 63.4633C144.756 62.6872 145.226 61.8822 145.39 61.0482C145.567 60.2004 145.48 59.2681 145.129 58.2514C144.791 57.2209 144.188 55.9528 143.32 54.4474C142.592 53.1372 142.074 52.1059 141.765 51.3537C141.47 50.5875 141.342 49.9194 141.382 49.3493C141.435 48.7931 141.698 48.2794 142.169 47.8082C142.876 47.1015 143.681 46.8402 144.586 47.0244C145.491 47.2085 146.418 47.7753 147.368 48.7247C148.233 49.5903 148.758 50.5034 148.943 51.4638C149.141 52.4104 148.991 53.2166 148.493 53.8824C148.299 54.2155 148.349 54.5287 148.642 54.8219L149.752 55.9318C149.892 56.0714 150.038 56.1346 150.191 56.1212C150.358 56.1218 150.497 56.0667 150.608 55.9559C151.106 55.4013 151.451 54.6932 151.643 53.8315C151.848 52.9838 151.824 52.0448 151.57 51.0146C151.33 49.9983 150.818 48.9879 150.035 47.9835L151.491 46.5284C151.629 46.3898 151.691 46.2301 151.677 46.0492C151.69 45.8685 151.627 45.7083 151.487 45.5686L150.691 44.7728C150.552 44.6332 150.384 44.563 150.19 44.5623C150.023 44.5617 149.87 44.6307 149.731 44.7693L148.297 46.2036C146.804 44.9879 145.314 44.3564 143.825 44.3092C142.35 44.248 141.1 44.7302 140.075 45.7557C139.299 46.5318 138.815 47.3367 138.623 48.1706C138.432 49.0045 138.484 49.9157 138.78 50.9044C139.075 51.8931 139.615 53.0844 140.399 54.4783C141.184 55.9278 141.744 57.0426 142.081 57.8228C142.418 58.603 142.58 59.2782 142.568 59.8485C142.571 60.4327 142.336 60.9604 141.865 61.4316C141.13 62.166 140.262 62.448 139.26 62.2773C138.272 62.0928 137.198 61.4212 136.039 60.2624C134.964 59.1873 134.341 58.1487 134.171 57.1466C134 56.1445 134.136 55.2826 134.578 54.5609C134.758 54.186 134.722 53.8729 134.471 53.6216L133.382 52.5326C133.256 52.407 133.096 52.3438 132.901 52.3431C132.734 52.3425 132.595 52.3976 132.484 52.5084C131.889 53.16 131.495 53.9444 131.304 54.8617C131.14 55.7792 131.228 56.781 131.565 57.8672C131.917 58.9395 132.54 60.0059 133.434 61.0664L131.979 62.5215C131.841 62.6601 131.772 62.8128 131.772 62.9797Z" fill="black"/>
<path fill-rule="evenodd" clip-rule="evenodd" d="M95.604 16.9445L65.3392 47.2092L54.9361 57.6124C54.9361 57.6124 50.2069 52.7843 45.03 57.9612C39.8532 63.138 44.5824 67.9661 44.5824 67.9661L33.0835 79.465L0.778269 111.77C0.778269 111.77 6.28993 116.943 15.2134 123.02C24.6194 129.425 37.816 136.834 52.3441 140.246C53.4132 140.498 52.8691 140.423 53.9405 140.641C65.2443 142.937 78.2977 143.506 89.9794 138.053L94.3598 142.433L64.4934 172.3C55.7325 160.751 53.5423 150.597 53.9405 140.641C52.8691 140.423 53.4132 140.498 52.3441 140.246C51.9229 150.469 53.525 157.361 58.8983 166.705C60.1298 168.846 61.5594 171.116 63.2081 173.585C63.6225 174.205 64.0509 174.839 64.4934 175.485L95.9527 144.026L108.297 131.681C108.297 131.681 113.425 136.908 118.651 131.681C123.877 126.455 118.651 121.328 118.651 121.328L157.677 82.302C157.677 82.302 157.159 81.686 156.094 80.6989L128.208 108.584L122.235 102.611C126.535 90.5282 126.242 78.5331 123.43 67.1696C124.064 67.2389 124.689 67.3153 125.304 67.3984C126.526 67.5635 127.712 67.755 128.861 67.9696C143.955 70.7887 152.739 77.5876 156.094 80.6989C157.159 81.686 157.677 82.302 157.677 82.302L159.319 80.6596C158.74 80.1511 158.17 79.66 157.607 79.1855C155.005 76.9891 152.573 75.1491 150.161 73.5921C149.353 73.0711 148.548 72.5818 147.74 72.1214C140.858 68.2032 133.724 66.3809 122.855 64.9565C122.489 63.6126 122.091 62.2829 121.666 60.9693L146.2 36.4347C147.292 36.7047 148.364 37.0748 149.402 37.5451C151.008 38.2728 152.532 39.2404 153.92 40.4478C154.246 40.7323 154.566 41.03 154.877 41.3411C159.176 45.6406 160.933 51.5199 160.147 57.1104C159.876 59.0335 159.305 60.9224 158.433 62.701C157.553 64.4944 156.368 66.1757 154.877 67.6669C152.797 69.7468 150.347 71.2317 147.74 72.1214C148.548 72.5818 149.353 73.0711 150.161 73.5921C152.45 72.5798 154.594 71.1357 156.47 69.2598C157.279 68.451 158.007 67.5923 158.655 66.6937C159.563 65.4356 160.313 64.0992 160.906 62.7115C164.157 55.1034 162.678 45.9565 156.47 39.7482C154.779 38.0579 152.871 36.7182 150.836 35.7291C149.922 35.2851 148.983 34.9118 148.026 34.6091L149.123 33.5126L152.818 29.8175C153.367 29.2677 153.367 28.3762 152.818 27.8264L126.276 1.28507C125.726 0.735246 124.835 0.735246 124.285 1.28507L110.871 14.6994C105.906 14.6499 100.782 15.3616 95.604 16.9445ZM53.3432 59.2053L69.7196 75.4828C69.7196 75.4828 70.5161 76.2793 71.3125 75.4828C72.109 74.6864 71.3125 73.89 71.3125 73.89L56.5289 59.2053L66.0862 49.648L126.616 110.177L117.108 119.685C115.864 120.929 116.063 121.527 117.257 122.721C117.257 122.721 121.04 126.504 117.257 130.287C113.873 133.672 109.89 130.088 109.89 130.088L83.6571 103.855C83.6571 103.855 82.8114 103.009 82.015 103.806C81.2186 104.602 82.015 105.399 82.015 105.399L106.705 130.088L95.9527 140.84L35.4233 80.3109L46.1753 69.559C47.3062 68.3838 47.4441 67.6933 46.1753 66.3732C46.1753 66.3732 43.0389 63.138 46.6229 59.5541C50.2069 55.9701 53.3432 59.2053 53.3432 59.2053ZM88.3865 136.46L33.8305 81.9038L3.964 111.77C3.964 111.77 26.7119 132.428 52.198 138.003C77.684 143.578 88.3865 136.46 88.3865 136.46ZM95.5545 20.1797L67.6791 48.0551L120.642 101.018C124.564 87.9464 123.208 74.7457 119.616 62.9094C119.212 61.5795 118.78 60.2668 118.325 58.9734C113.725 45.9172 106.688 34.8322 101.656 27.8969C101.06 27.0755 100.492 26.3124 99.9592 25.611C97.3216 22.1368 95.5545 20.1797 95.5545 20.1797ZM125.281 4.27172L149.831 28.8219L144.79 33.8628L142.736 35.9167L120.65 58.0032C115.939 44.9563 108.718 33.7184 103.238 26.3147L125.281 4.27172ZM108.305 17.2652C104.686 17.3503 100.944 17.7937 97.1065 18.6277C98.1571 19.8402 99.6965 21.6784 101.524 24.0465L108.305 17.2652Z" fill="black"/>
<path d="M157.607 79.1855C158.17 79.66 158.74 80.1511 159.319 80.6596C160.901 74.5476 161.377 68.5082 160.906 62.7115C160.313 64.0992 159.563 65.4356 158.655 66.6937C158.74 70.7433 158.403 74.9233 157.607 79.1855Z" fill="black"/>
<path d="M0.778269 111.77L64.4934 175.485M0.778269 111.77L33.0835 79.465L44.5824 67.9661C44.5824 67.9661 39.8532 63.138 45.03 57.9612C50.2069 52.7843 54.9361 57.6124 54.9361 57.6124L65.3392 47.2092L95.604 16.9445C100.782 15.3616 105.906 14.6499 110.871 14.6994L124.285 1.28507C124.835 0.735246 125.726 0.735246 126.276 1.28507L152.818 27.8264C153.367 28.3762 153.367 29.2677 152.818 29.8175L149.123 33.5126M0.778269 111.77C0.778269 111.77 6.28993 116.943 15.2134 123.02M159.319 80.6596L157.677 82.302M159.319 80.6596C158.74 80.1511 158.17 79.66 157.607 79.1855M159.319 80.6596C160.901 74.5476 161.377 68.5082 160.906 62.7115M64.4934 175.485L95.9527 144.026L108.297 131.681C108.297 131.681 113.425 136.908 118.651 131.681C123.877 126.455 118.651 121.328 118.651 121.328L157.677 82.302M64.4934 175.485C64.0509 174.839 63.6225 174.205 63.2081 173.585C61.5594 171.116 60.1298 168.846 58.8983 166.705M52.3441 140.246C53.4132 140.498 52.8691 140.423 53.9405 140.641M52.3441 140.246C51.9229 150.469 53.525 157.361 58.8983 166.705M52.3441 140.246C37.816 136.834 24.6194 129.425 15.2134 123.02M157.677 82.302C157.677 82.302 157.159 81.686 156.094 80.6989M157.607 79.1855C158.403 74.9233 158.74 70.7433 158.655 66.6937M157.607 79.1855C155.005 76.9891 152.573 75.1491 150.161 73.5921M156.094 80.6989L128.208 108.584L122.235 102.611C126.535 90.5282 126.242 78.5331 123.43 67.1696C124.064 67.2389 124.689 67.3153 125.304 67.3984C126.526 67.5635 127.712 67.755 128.861 67.9696C143.955 70.7887 152.739 77.5876 156.094 80.6989ZM53.9405 140.641C65.2443 142.937 78.2977 143.506 89.9794 138.053L94.3598 142.433L64.4934 172.3C55.7325 160.751 53.5423 150.597 53.9405 140.641ZM58.8983 166.705L15.2134 123.02M119.998 62.6374C119.883 62.7519 119.754 62.8426 119.616 62.9094M149.123 33.5126C149.712 34.2354 150.284 34.9745 150.836 35.7291M149.123 33.5126L148.026 34.6091C148.983 34.9118 149.922 35.2851 150.836 35.7291M119.616 62.9094C123.208 74.7457 124.564 87.9464 120.642 101.018L67.6791 48.0551L95.5545 20.1797C95.5545 20.1797 97.3216 22.1368 99.9592 25.611C100.492 26.3124 101.06 27.0755 101.656 27.8969C106.688 34.8322 113.725 45.9172 118.325 58.9734C118.78 60.2668 119.212 61.5795 119.616 62.9094ZM150.836 35.7291C152.871 36.7182 154.779 38.0579 156.47 39.7482C162.678 45.9565 164.157 55.1034 160.906 62.7115M160.906 62.7115C160.313 64.0992 159.563 65.4356 158.655 66.6937M158.655 66.6937C158.007 67.5923 157.279 68.451 156.47 69.2598C154.594 71.1357 152.45 72.5798 150.161 73.5921M147.74 72.1214C150.347 71.2317 152.797 69.7468 154.877 67.6669C156.368 66.1757 157.553 64.4944 158.433 62.701C159.305 60.9224 159.876 59.0335 160.147 57.1104C160.933 51.5199 159.176 45.6406 154.877 41.3411C154.566 41.03 154.246 40.7323 153.92 40.4478C152.532 39.2404 151.008 38.2728 149.402 37.5451C148.364 37.0748 147.292 36.7047 146.2 36.4347L121.666 60.9693C122.091 62.2829 122.489 63.6126 122.855 64.9565C133.724 66.3809 140.858 68.2032 147.74 72.1214ZM147.74 72.1214C148.548 72.5818 149.353 73.0711 150.161 73.5921M71.3125 73.89C71.3125 73.89 72.109 74.6864 71.3125 75.4828C70.5161 76.2793 69.7196 75.4828 69.7196 75.4828L53.3432 59.2053C53.3432 59.2053 50.2069 55.9701 46.6229 59.5541C43.0389 63.138 46.1753 66.3732 46.1753 66.3732C47.4441 67.6933 47.3062 68.3838 46.1753 69.559L35.4233 80.3109L95.9527 140.84L106.705 130.088L82.015 105.399C82.015 105.399 81.2186 104.602 82.015 103.806C82.8114 103.009 83.6571 103.855 83.6571 103.855L109.89 130.088C109.89 130.088 113.873 133.672 117.257 130.287C121.04 126.504 117.257 122.721 117.257 122.721C116.063 121.527 115.864 120.929 117.108 119.685L126.616 110.177L66.0862 49.648L56.5289 59.2053L71.3125 73.89ZM33.8305 81.9038L88.3865 136.46C88.3865 136.46 77.684 143.578 52.198 138.003C26.7119 132.428 3.964 111.77 3.964 111.77L33.8305 81.9038ZM97.1065 18.6277C100.944 17.7937 104.686 17.3503 108.305 17.2652L101.524 24.0465C99.6965 21.6784 98.1571 19.8402 97.1065 18.6277ZM125.281 4.27172L149.831 28.8219L144.79 33.8628L142.736 35.9167L120.65 58.0032C115.939 44.9563 108.718 33.7184 103.238 26.3147L125.281 4.27172ZM116.295 16.5503C116.303 16.6564 116.348 16.7504 116.43 16.8321L117.018 17.4204C117.1 17.5021 117.194 17.5471 117.3 17.5554C117.415 17.5555 117.512 17.5148 117.594 17.4333L123.661 11.3667L121.541 21.6004C121.5 21.7881 121.541 21.9432 121.664 22.0658L122.252 22.6541C122.334 22.7358 122.428 22.7727 122.534 22.7646C122.648 22.7647 122.746 22.724 122.828 22.6425L130.802 14.6679C130.892 14.5782 130.933 14.4803 130.924 14.3741C130.932 14.268 130.892 14.17 130.802 14.0801L130.213 13.4918C130.132 13.4101 130.034 13.3692 129.919 13.3691C129.821 13.369 129.728 13.4138 129.638 13.5035L123.522 19.619L125.691 9.31182C125.748 9.14047 125.703 8.98125 125.556 8.83417L124.992 8.27034C124.91 8.18863 124.812 8.14771 124.698 8.14759C124.6 8.14749 124.506 8.19229 124.416 8.28199L116.43 16.2689C116.348 16.3504 116.303 16.4442 116.295 16.5503ZM124.818 25.0727C124.826 25.1788 124.871 25.2728 124.953 25.3545L125.565 25.9673C125.647 26.049 125.741 26.094 125.847 26.1023C125.961 26.1024 126.059 26.0617 126.141 25.9802L129.443 22.6778L133.292 26.5265C133.374 26.6082 133.468 26.6532 133.574 26.6615C133.688 26.6616 133.786 26.6209 133.867 26.5393L134.357 26.0501C134.446 25.9604 134.487 25.8625 134.479 25.7564C134.487 25.6503 134.446 25.5523 134.356 25.4624L130.507 21.6137L133.357 18.7639L137.451 22.8577C137.541 22.9476 137.635 22.9926 137.733 22.9927C137.847 22.9928 137.945 22.9521 138.027 22.8706L138.516 22.3813C138.605 22.2916 138.646 22.1937 138.638 22.0876C138.646 21.9815 138.605 21.8835 138.515 21.7936L133.514 16.7928C133.433 16.711 133.335 16.6701 133.22 16.67C133.122 16.6699 133.029 16.7147 132.939 16.8044L124.952 24.7913C124.87 24.8728 124.826 24.9666 124.818 25.0727ZM133.986 34.3877C133.904 34.306 133.859 34.212 133.851 34.1059C133.859 33.9998 133.904 33.906 133.985 33.8245L141.177 26.6326L138.824 24.2793C138.742 24.1976 138.697 24.1036 138.689 23.9975C138.697 23.8914 138.742 23.7976 138.823 23.716L139.337 23.2023C139.418 23.1208 139.512 23.076 139.618 23.0679C139.733 23.0681 139.831 23.109 139.912 23.1907L145.82 29.0986C145.91 29.1884 145.951 29.2864 145.943 29.3926C145.951 29.4987 145.91 29.5966 145.821 29.6863L145.307 30.2C145.225 30.2815 145.128 30.3222 145.013 30.3221C144.907 30.3138 144.813 30.2688 144.732 30.1871L142.39 27.846L135.199 35.0379C135.117 35.1194 135.019 35.1601 134.905 35.16C134.799 35.1517 134.705 35.1068 134.623 35.025L133.986 34.3877ZM131.983 63.4813C131.843 63.3416 131.773 63.1745 131.772 62.9797C131.772 62.8128 131.841 62.6601 131.979 62.5215L133.434 61.0664C132.54 60.0059 131.917 58.9395 131.565 57.8672C131.228 56.781 131.14 55.7792 131.304 54.8617C131.495 53.9444 131.889 53.16 132.484 52.5084C132.595 52.3976 132.734 52.3425 132.901 52.3431C133.096 52.3438 133.256 52.407 133.382 52.5326L134.471 53.6216C134.722 53.8729 134.758 54.186 134.578 54.5609C134.136 55.2826 134 56.1445 134.171 57.1466C134.341 58.1487 134.964 59.1873 136.039 60.2624C137.198 61.4212 138.272 62.0928 139.26 62.2773C140.262 62.448 141.13 62.166 141.865 61.4316C142.336 60.9604 142.571 60.4327 142.568 59.8485C142.58 59.2782 142.418 58.603 142.081 57.8228C141.744 57.0426 141.184 55.9278 140.399 54.4783C139.615 53.0844 139.075 51.8931 138.78 50.9044C138.484 49.9157 138.432 49.0045 138.623 48.1706C138.815 47.3367 139.299 46.5318 140.075 45.7557C141.1 44.7302 142.35 44.248 143.825 44.3092C145.314 44.3564 146.804 44.9879 148.297 46.2036L149.731 44.7693C149.87 44.6307 150.023 44.5617 150.19 44.5623C150.384 44.563 150.552 44.6332 150.691 44.7728L151.487 45.5686C151.627 45.7083 151.69 45.8685 151.677 46.0492C151.691 46.2301 151.629 46.3898 151.491 46.5284L150.035 47.9835C150.818 48.9879 151.33 49.9983 151.57 51.0146C151.824 52.0448 151.848 52.9838 151.643 53.8315C151.451 54.6932 151.106 55.4013 150.608 55.9559C150.497 56.0667 150.358 56.1218 150.191 56.1212C150.038 56.1346 149.892 56.0714 149.752 55.9318L148.642 54.8219C148.349 54.5287 148.299 54.2155 148.493 53.8824C148.991 53.2166 149.141 52.4104 148.943 51.4638C148.758 50.5034 148.233 49.5903 147.368 48.7247C146.418 47.7753 145.491 47.2085 144.586 47.0244C143.681 46.8402 142.876 47.1015 142.169 47.8082C141.698 48.2794 141.435 48.7931 141.382 49.3493C141.342 49.9194 141.47 50.5875 141.765 51.3537C142.074 52.1059 142.592 53.1372 143.32 54.4474C144.188 55.9528 144.791 57.2209 145.129 58.2514C145.48 59.2681 145.567 60.2004 145.39 61.0482C145.226 61.8822 144.756 62.6872 143.98 63.4633C142.802 64.6412 141.434 65.1716 139.875 65.0546C138.331 64.9236 136.763 64.1876 135.173 62.8463L133.738 64.2806C133.6 64.4192 133.44 64.4812 133.259 64.4666C133.078 64.4799 132.918 64.4167 132.779 64.2771L131.983 63.4813Z" stroke="black" stroke-linejoin="round"/>
</svg>
